<svg width="20" height="20" viewBox="0 0 20 20" fill="none" xmlns="http://www.w3.org/2000/svg">
<path d="M10.8337 5.41675V5.00008C10.8337 4.44755 10.6142 3.91764 10.2235 3.52694C9.83276 3.13624 9.30286 2.91675 8.75033 2.91675V2.91675C8.19779 2.91675 7.66789 3.13624 7.27719 3.52694C6.88649 3.91764 6.66699 4.44755 6.66699 5.00008V5.00008C6.66589 5.55736 6.82677 6.10295 7.13007 6.57046C7.43336 7.03798 7.86599 7.40727 8.37533 7.63342L17.3503 11.6667C17.6402 11.797 17.8867 12.0074 18.061 12.2732C18.2352 12.539 18.3298 12.849 18.3337 13.1667V15.4167C18.3337 15.8588 18.1581 16.2827 17.8455 16.5953C17.5329 16.9078 17.109 17.0834 16.667 17.0834H3.33366C2.89163 17.0834 2.46771 16.9078 2.15515 16.5953C1.84259 16.2827 1.66699 15.8588 1.66699 15.4167V13.2084C1.66833 12.876 1.76902 12.5517 1.95613 12.2769C2.14323 12.0022 2.4082 11.7897 2.71699 11.6667L10.0003 8.75008" stroke="black" stroke-width="1.5" stroke-linecap="round" stroke-linejoin="round"/>
</svg>
