<svg width="19" height="19" viewBox="0 0 19 19" fill="none" xmlns="http://www.w3.org/2000/svg">
<path fill-rule="evenodd" clip-rule="evenodd" d="M7.50019 9.11702e-08C6.33057 0.000275652 5.17723 0.274097 4.13231 0.799587C3.0874 1.32508 2.17986 2.08767 1.48222 3.02644C0.78457 3.96521 0.316154 5.05413 0.114389 6.20621C-0.0873753 7.35829 -0.0168949 8.54159 0.320199 9.66157C0.657294 10.7816 1.25166 11.8072 2.05581 12.6565C2.85995 13.5058 3.8516 14.1553 4.9515 14.553C6.05141 14.9508 7.2291 15.0857 8.39048 14.9472C9.55186 14.8086 10.6647 14.4004 11.6402 13.755L15.5862 18.415C15.772 18.6007 15.9926 18.748 16.2353 18.8484C16.4781 18.9488 16.7382 19.0005 17.0009 19.0004C17.2636 19.0003 17.5237 18.9485 17.7664 18.8479C18.009 18.7472 18.2295 18.5998 18.4152 18.414C18.6009 18.2282 18.7481 18.0076 18.8486 17.7649C18.949 17.5221 19.0007 17.262 19.0006 16.9993C19.0005 16.7366 18.9487 16.4765 18.848 16.2338C18.7474 15.9912 18.6 15.7707 18.4142 15.585L13.7552 11.64C14.5034 10.5097 14.9314 9.19773 14.9935 7.84362C15.0556 6.48951 14.7495 5.14389 14.1079 3.94984C13.4662 2.75579 12.513 1.75796 11.3495 1.06246C10.186 0.366956 8.85572 -0.000211234 7.50019 9.11702e-08ZM2.00019 7.5C2.00019 6.04131 2.57965 4.64236 3.6111 3.61091C4.64255 2.57946 6.0415 2 7.50019 2C8.95888 2 10.3578 2.57946 11.3893 3.61091C12.4207 4.64236 13.0002 6.04131 13.0002 7.5C13.0002 8.95869 12.4207 10.3576 11.3893 11.3891C10.3578 12.4205 8.95888 13 7.50019 13C6.0415 13 4.64255 12.4205 3.6111 11.3891C2.57965 10.3576 2.00019 8.95869 2.00019 7.5Z" fill="#D2D2D2"/>
</svg>
