<svg width="20" height="20" viewBox="0 0 20 20" fill="none" xmlns="http://www.w3.org/2000/svg">
<g clip-path="url(#clip0_3144_19128)">
<path fill-rule="evenodd" clip-rule="evenodd" d="M1.66633 2.67508V7.67508C1.66501 7.7086 1.67497 7.74159 1.69461 7.76878C1.71425 7.79597 1.74243 7.81579 1.77466 7.82509L4.05799 8.65842C4.08951 8.67139 4.11654 8.69329 4.13579 8.72142C4.15503 8.74954 4.16565 8.78268 4.16633 8.81675V16.6668C4.16633 17.1088 4.34192 17.5327 4.65448 17.8453C4.96704 18.1578 5.39097 18.3334 5.83299 18.3334H14.1663C14.6084 18.3334 15.0323 18.1578 15.3448 17.8453C15.6574 17.5327 15.833 17.1088 15.833 16.6668V8.80008C15.8338 8.76389 15.8453 8.72874 15.8661 8.69908C15.8868 8.66942 15.9159 8.64657 15.9497 8.63342L18.2247 7.80008C18.2518 7.79277 18.2764 7.77794 18.2956 7.75731C18.3147 7.73668 18.3277 7.71107 18.333 7.68342V2.68342C18.3334 2.64322 18.3194 2.60422 18.2933 2.57359C18.2673 2.54297 18.2311 2.52278 18.1913 2.51675L13.458 1.66675C13.4207 1.6615 13.3828 1.6684 13.3498 1.68641C13.3168 1.70442 13.2904 1.73259 13.2747 1.76675L12.383 3.65842C12.1688 4.10933 11.8313 4.49034 11.4095 4.75729C10.9877 5.02424 10.4988 5.16621 9.99966 5.16675V5.16675C9.50047 5.16621 9.01165 5.02424 8.58984 4.75729C8.16803 4.49034 7.83049 4.10933 7.61633 3.65842L6.72466 1.77508C6.71027 1.73938 6.68451 1.70941 6.65137 1.68982C6.61822 1.67024 6.57955 1.66213 6.54133 1.66675L1.80799 2.50008C1.76677 2.50626 1.72937 2.52765 1.70314 2.56005C1.67692 2.59244 1.66378 2.63348 1.66633 2.67508V2.67508Z" stroke="black" stroke-width="1.5" stroke-linecap="round" stroke-linejoin="round"/>
</g>
<defs>
<clipPath id="clip0_3144_19128">
<rect width="20" height="20" fill="white"/>
</clipPath>
</defs>
</svg>
