<svg width="20" height="20" viewBox="0 0 20 20" fill="none" xmlns="http://www.w3.org/2000/svg">
<path d="M7.50008 18.3327H12.5001C16.6667 18.3327 18.3334 16.666 18.3334 12.4993V7.49935C18.3334 3.33268 16.6667 1.66602 12.5001 1.66602H7.50008C3.33341 1.66602 1.66675 3.33268 1.66675 7.49935V12.4993C1.66675 16.666 3.33341 18.3327 7.50008 18.3327Z" stroke="black" stroke-width="1.5" stroke-linecap="round" stroke-linejoin="round"/>
<path d="M7.58325 10.0002V8.7669C7.58325 7.17524 8.70825 6.53357 10.0833 7.32524L11.1499 7.9419L12.2166 8.55857C13.5916 9.35024 13.5916 10.6502 12.2166 11.4419L11.1499 12.0586L10.0833 12.6752C8.70825 13.4669 7.58325 12.8169 7.58325 11.2336V10.0002Z" stroke="black" stroke-width="1.5" stroke-miterlimit="10" stroke-linecap="round" stroke-linejoin="round"/>
</svg>
