<svg width="24" height="24" viewBox="0 0 24 24" fill="none" xmlns="http://www.w3.org/2000/svg">
<path d="M16.61 20C17.95 20.01 19.24 19.51 20.23 18.61C23.5 15.75 21.75 10.01 17.44 9.47001C15.9 0.13001 2.42998 3.67001 5.61998 12.56" stroke="#E17A02" stroke-width="1.2" stroke-miterlimit="10" stroke-linecap="round" stroke-linejoin="round"/>
<path d="M7.27999 12.97C6.74999 12.7 6.15999 12.56 5.56999 12.57C0.909986 12.9 0.919986 19.68 5.56999 20.01" stroke="#E17A02" stroke-width="1.2" stroke-miterlimit="10" stroke-linecap="round" stroke-linejoin="round"/>
<path d="M15.82 9.89001C16.34 9.63001 16.9 9.49001 17.48 9.48001" stroke="#E17A02" stroke-width="1.2" stroke-miterlimit="10" stroke-linecap="round" stroke-linejoin="round"/>
<path d="M9.96997 20L7.96997 22" stroke="#E17A02" stroke-width="1.2" stroke-miterlimit="10" stroke-linecap="round" stroke-linejoin="round"/>
<path d="M13.97 20L11.97 22" stroke="#E17A02" stroke-width="1.2" stroke-miterlimit="10" stroke-linecap="round" stroke-linejoin="round"/>
<path d="M13.97 16L11.97 18" stroke="#E17A02" stroke-width="1.2" stroke-miterlimit="10" stroke-linecap="round" stroke-linejoin="round"/>
<path d="M9.96997 16L7.96997 18" stroke="#E17A02" stroke-width="1.2" stroke-miterlimit="10" stroke-linecap="round" stroke-linejoin="round"/>
</svg>
