<svg width="20" height="20" viewBox="0 0 20 20" fill="none" xmlns="http://www.w3.org/2000/svg">
<g clip-path="url(#clip0_843_5301)">
<path fill-rule="evenodd" clip-rule="evenodd" d="M1.66678 2.67504V7.67504C1.66547 7.70855 1.67543 7.74154 1.69507 7.76873C1.71471 7.79592 1.74289 7.81575 1.77512 7.82504L4.05845 8.65837C4.08996 8.67135 4.117 8.69324 4.13625 8.72137C4.15549 8.7495 4.16611 8.78263 4.16678 8.81671V16.6667C4.16678 17.1087 4.34238 17.5327 4.65494 17.8452C4.9675 18.1578 5.39142 18.3334 5.83345 18.3334H14.1668C14.6088 18.3334 15.0327 18.1578 15.3453 17.8452C15.6579 17.5327 15.8335 17.1087 15.8335 16.6667V8.80004C15.8343 8.76384 15.8458 8.7287 15.8665 8.69904C15.8873 8.66938 15.9164 8.64653 15.9501 8.63337L18.2251 7.80004C18.2523 7.79272 18.2769 7.7779 18.296 7.75726C18.3152 7.73663 18.3282 7.71103 18.3334 7.68337V2.68337C18.3339 2.64318 18.3198 2.60417 18.2938 2.57355C18.2678 2.54292 18.2315 2.52273 18.1918 2.51671L13.4584 1.66671C13.4212 1.66146 13.3833 1.66835 13.3502 1.68636C13.3172 1.70437 13.2909 1.73255 13.2751 1.76671L12.3834 3.65837C12.1693 4.10929 11.8317 4.49029 11.4099 4.75724C10.9881 5.02419 10.4993 5.16616 10.0001 5.16671V5.16671C9.50093 5.16616 9.01211 5.02419 8.5903 4.75724C8.16849 4.49029 7.83095 4.10929 7.61678 3.65837L6.72512 1.77504C6.71073 1.73933 6.68497 1.70936 6.65182 1.68978C6.61868 1.67019 6.58 1.66208 6.54178 1.66671L1.80845 2.50004C1.76723 2.50621 1.72982 2.52761 1.7036 2.56C1.67738 2.59239 1.66424 2.63344 1.66678 2.67504V2.67504Z" stroke="#151515" stroke-width="1.6" stroke-linecap="round" stroke-linejoin="round"/>
</g>
<defs>
<clipPath id="clip0_843_5301">
<rect width="20" height="20" fill="white"/>
</clipPath>
</defs>
</svg>
