<svg width="20" height="20" viewBox="0 0 20 20" fill="none" xmlns="http://www.w3.org/2000/svg">
<path d="M8.33335 3.75001V15C8.33335 15.9 7.96667 16.725 7.38334 17.325L7.35003 17.3583C7.27503 17.4333 7.19169 17.5083 7.11669 17.5667C6.86669 17.7833 6.58334 17.95 6.29168 18.0667C6.20001 18.1083 6.10835 18.1417 6.01669 18.175C5.69169 18.2833 5.34169 18.3333 5.00002 18.3333C4.77502 18.3333 4.55003 18.3083 4.33336 18.2667C4.22503 18.2417 4.11668 18.2167 4.00835 18.1833C3.87502 18.1417 3.75003 18.1 3.62503 18.0417C3.62503 18.0333 3.62502 18.0333 3.61668 18.0417C3.38335 17.925 3.15836 17.7917 2.95003 17.6333L2.94169 17.625C2.83335 17.5417 2.73336 17.4583 2.6417 17.3583C2.55003 17.2583 2.45835 17.1583 2.36668 17.05C2.20835 16.8417 2.07503 16.6167 1.95836 16.3833C1.96669 16.375 1.96669 16.375 1.95836 16.375C1.95836 16.375 1.95835 16.3667 1.95002 16.3583C1.90002 16.2417 1.85835 16.1167 1.81668 15.9917C1.78335 15.8833 1.75834 15.775 1.73334 15.6667C1.69168 15.45 1.66669 15.225 1.66669 15V3.75001C1.66669 2.50001 2.50002 1.66667 3.75002 1.66667H6.25002C7.50002 1.66667 8.33335 2.50001 8.33335 3.75001Z" stroke="black" stroke-width="1.5" stroke-linecap="round" stroke-linejoin="round"/>
<path d="M18.3333 13.75V16.25C18.3333 17.5 17.5 18.3333 16.25 18.3333H5C5.34167 18.3333 5.69167 18.2833 6.01667 18.175C6.10833 18.1417 6.19999 18.1083 6.29166 18.0667C6.58332 17.95 6.86667 17.7833 7.11667 17.5667C7.19167 17.5083 7.27501 17.4333 7.35001 17.3583L7.38332 17.325L13.05 11.6667H16.25C17.5 11.6667 18.3333 12.5 18.3333 13.75Z" stroke="black" stroke-width="1.5" stroke-linecap="round" stroke-linejoin="round"/>
<path d="M4.00832 18.1833C3.50832 18.0333 3.03333 17.7583 2.64167 17.3583C2.24167 16.9667 1.96665 16.4917 1.81665 15.9917C2.14165 17.0333 2.96665 17.8583 4.00832 18.1833Z" stroke="black" stroke-width="1.5" stroke-linecap="round" stroke-linejoin="round"/>
<path d="M15.3083 9.40833L13.05 11.6667L7.3833 17.325C7.96663 16.725 8.33331 15.9 8.33331 15V6.95L10.5916 4.69167C11.475 3.80834 12.6583 3.80834 13.5416 4.69167L15.3083 6.45834C16.1916 7.34167 16.1916 8.525 15.3083 9.40833Z" stroke="black" stroke-width="1.5" stroke-linecap="round" stroke-linejoin="round"/>
<path d="M5.00002 15.8333C5.46026 15.8333 5.83335 15.4602 5.83335 15C5.83335 14.5398 5.46026 14.1667 5.00002 14.1667C4.53978 14.1667 4.16669 14.5398 4.16669 15C4.16669 15.4602 4.53978 15.8333 5.00002 15.8333Z" stroke="black" stroke-width="1.5" stroke-linecap="round" stroke-linejoin="round"/>
</svg>
