<svg width="20" height="20" viewBox="0 0 20 20" fill="none" xmlns="http://www.w3.org/2000/svg">
<path d="M18.3084 15.275C18.3084 15.575 18.2417 15.8834 18.1 16.1834C17.9584 16.4834 17.775 16.7667 17.5334 17.0334C17.125 17.4834 16.675 17.8084 16.1667 18.0167C15.6667 18.225 15.125 18.3334 14.5417 18.3334C13.6917 18.3334 12.7834 18.1334 11.825 17.725C10.8667 17.3167 9.90835 16.7667 8.95835 16.075C8.00002 15.375 7.09169 14.6 6.22502 13.7417C5.36669 12.875 4.59169 11.9667 3.90002 11.0167C3.21669 10.0667 2.66669 9.11669 2.26669 8.17502C1.86669 7.22502 1.66669 6.31669 1.66669 5.45002C1.66669 4.88335 1.76669 4.34169 1.96669 3.84169C2.16669 3.33335 2.48335 2.86669 2.92502 2.45002C3.45835 1.92502 4.04169 1.66669 4.65835 1.66669C4.89169 1.66669 5.12502 1.71669 5.33335 1.81669C5.55002 1.91669 5.74169 2.06669 5.89169 2.28335L7.82502 5.00835C7.97502 5.21669 8.08335 5.40835 8.15835 5.59169C8.23335 5.76669 8.27502 5.94169 8.27502 6.10002C8.27502 6.30002 8.21669 6.50002 8.10002 6.69169C7.99169 6.88335 7.83335 7.08335 7.63335 7.28335L7.00002 7.94169C6.90835 8.03335 6.86669 8.14169 6.86669 8.27502C6.86669 8.34169 6.87502 8.40002 6.89169 8.46669C6.91669 8.53335 6.94169 8.58335 6.95835 8.63335C7.10835 8.90835 7.36669 9.26669 7.73335 9.70002C8.10835 10.1334 8.50835 10.575 8.94169 11.0167C9.39169 11.4584 9.82502 11.8667 10.2667 12.2417C10.7 12.6084 11.0584 12.8584 11.3417 13.0084C11.3834 13.025 11.4334 13.05 11.4917 13.075C11.5584 13.1 11.625 13.1084 11.7 13.1084C11.8417 13.1084 11.95 13.0584 12.0417 12.9667L12.675 12.3417C12.8834 12.1334 13.0834 11.975 13.275 11.875C13.4667 11.7584 13.6584 11.7 13.8667 11.7C14.025 11.7 14.1917 11.7334 14.375 11.8084C14.5584 11.8834 14.75 11.9917 14.9584 12.1334L17.7167 14.0917C17.9334 14.2417 18.0834 14.4167 18.175 14.625C18.2584 14.8334 18.3084 15.0417 18.3084 15.275Z" stroke="black" stroke-width="1.5" stroke-miterlimit="10"/>
</svg>
