<svg width="22" height="22" viewBox="0 0 22 22" fill="none" xmlns="http://www.w3.org/2000/svg">
<path d="M7.94922 13.1357C7.94922 14.3182 8.85672 15.2715 9.98422 15.2715H12.2851C13.2659 15.2715 14.0634 14.4374 14.0634 13.4107C14.0634 12.2924 13.5776 11.8982 12.8534 11.6415L9.15922 10.3582C8.43505 10.1015 7.94922 9.70736 7.94922 8.58903C7.94922 7.56236 8.74672 6.7282 9.72755 6.7282H12.0284C13.1559 6.7282 14.0634 7.68153 14.0634 8.86403" stroke="black" stroke-width="1.5" stroke-linecap="round" stroke-linejoin="round"/>
<path d="M11 5.5V16.5" stroke="black" stroke-width="1.5" stroke-linecap="round" stroke-linejoin="round"/>
<path d="M11 20.1667C16.0626 20.1667 20.1666 16.0626 20.1666 11C20.1666 5.93738 16.0626 1.83333 11 1.83333C5.93737 1.83333 1.83331 5.93738 1.83331 11C1.83331 16.0626 5.93737 20.1667 11 20.1667Z" stroke="black" stroke-width="1.5" stroke-linecap="round" stroke-linejoin="round"/>
</svg>
