<svg width="20" height="20" viewBox="0 0 20 20" fill="none" xmlns="http://www.w3.org/2000/svg">
<path d="M12.5 1.66663V9.99996C12.5 10.9166 11.75 11.6666 10.8333 11.6666H1.66666V4.99996C1.66666 3.15829 3.15832 1.66663 4.99999 1.66663H12.5Z" stroke="black" stroke-width="1.5" stroke-linecap="round" stroke-linejoin="round"/>
<path d="M18.3333 11.6666V14.1666C18.3333 15.55 17.2167 16.6666 15.8333 16.6666H15C15 15.75 14.25 15 13.3333 15C12.4167 15 11.6667 15.75 11.6667 16.6666H8.33332C8.33332 15.75 7.58332 15 6.66666 15C5.74999 15 4.99999 15.75 4.99999 16.6666H4.16666C2.78332 16.6666 1.66666 15.55 1.66666 14.1666V11.6666H10.8333C11.75 11.6666 12.5 10.9166 12.5 9.99996V4.16663H14.0333C14.6333 4.16663 15.1833 4.49163 15.4833 5.0083L16.9083 7.49996H15.8333C15.375 7.49996 15 7.87496 15 8.33329V10.8333C15 11.2916 15.375 11.6666 15.8333 11.6666H18.3333Z" stroke="black" stroke-width="1.5" stroke-linecap="round" stroke-linejoin="round"/>
<path d="M6.66667 18.3333C7.58714 18.3333 8.33333 17.5871 8.33333 16.6667C8.33333 15.7462 7.58714 15 6.66667 15C5.74619 15 5 15.7462 5 16.6667C5 17.5871 5.74619 18.3333 6.66667 18.3333Z" stroke="black" stroke-width="1.5" stroke-linecap="round" stroke-linejoin="round"/>
<path d="M13.3333 18.3333C14.2538 18.3333 15 17.5871 15 16.6667C15 15.7462 14.2538 15 13.3333 15C12.4128 15 11.6667 15.7462 11.6667 16.6667C11.6667 17.5871 12.4128 18.3333 13.3333 18.3333Z" stroke="black" stroke-width="1.5" stroke-linecap="round" stroke-linejoin="round"/>
<path d="M18.3333 10V11.6667H15.8333C15.375 11.6667 15 11.2917 15 10.8333V8.33333C15 7.875 15.375 7.5 15.8333 7.5H16.9083L18.3333 10Z" stroke="black" stroke-width="1.5" stroke-linecap="round" stroke-linejoin="round"/>
</svg>
