<svg width="14" height="14" viewBox="0 0 14 14" fill="none" xmlns="http://www.w3.org/2000/svg">
<path d="M7.00001 0.333496C10.68 0.333496 13.6667 3.32016 13.6667 7.00016C13.6667 10.6802 10.68 13.6668 7.00001 13.6668C3.32001 13.6668 0.333344 10.6802 0.333344 7.00016C0.333344 3.32016 3.32001 0.333496 7.00001 0.333496ZM7.00001 1.66683C4.05334 1.66683 1.66668 4.0535 1.66668 7.00016C1.66668 9.94683 4.05334 12.3335 7.00001 12.3335C9.94668 12.3335 12.3333 9.94683 12.3333 7.00016C12.3333 4.0535 9.94668 1.66683 7.00001 1.66683ZM7.00001 3.66683C8.21334 3.66683 9.27534 4.3155 9.85868 5.2855L8.71601 5.9715C8.53618 5.67166 8.2809 5.4242 7.97561 5.25379C7.67032 5.08339 7.32569 4.99599 6.97609 5.00032C6.62649 5.00464 6.28412 5.10054 5.98314 5.27844C5.68216 5.45635 5.43308 5.71005 5.26072 6.01424C5.08837 6.31844 4.99877 6.6625 5.00086 7.01212C5.00296 7.36175 5.09666 7.70471 5.27264 8.00682C5.44862 8.30894 5.70072 8.55964 6.00381 8.73393C6.3069 8.90822 6.65038 9.00002 7.00001 9.00016C7.34543 9.00039 7.68502 8.91109 7.98564 8.74097C8.28627 8.57085 8.53768 8.32572 8.71534 8.0295L9.85868 8.71483C9.48402 9.34057 8.91444 9.82614 8.23729 10.0971C7.56015 10.368 6.81282 10.4093 6.10994 10.2146C5.40706 10.02 4.78744 9.60017 4.3461 9.01953C3.90477 8.43888 3.66609 7.72949 3.66668 7.00016C3.66668 5.16016 5.16001 3.66683 7.00001 3.66683Z" fill="black"/>
</svg>
