<svg width="98" height="98" viewBox="0 0 98 98" fill="none" xmlns="http://www.w3.org/2000/svg">
<path d="M36.75 89.8333H61.25C81.6667 89.8333 89.8333 81.6666 89.8333 61.25V36.75C89.8333 16.3333 81.6667 8.16663 61.25 8.16663H36.75C16.3333 8.16663 8.16666 16.3333 8.16666 36.75V61.25C8.16666 81.6666 16.3333 89.8333 36.75 89.8333Z" stroke="#E8E8E8" stroke-width="6" stroke-linecap="round" stroke-linejoin="round"/>
<path d="M36.75 40.8333C41.2603 40.8333 44.9167 37.177 44.9167 32.6667C44.9167 28.1563 41.2603 24.5 36.75 24.5C32.2397 24.5 28.5833 28.1563 28.5833 32.6667C28.5833 37.177 32.2397 40.8333 36.75 40.8333Z" stroke="#E8E8E8" stroke-width="6" stroke-linecap="round" stroke-linejoin="round"/>
<path d="M10.9025 77.3791L31.0333 63.8633C34.2592 61.6991 38.9142 61.9441 41.8133 64.435L43.1608 65.6191C46.3458 68.355 51.4908 68.355 54.6758 65.6191L71.6625 51.0416C74.8475 48.3058 79.9925 48.3058 83.1775 51.0416L89.8333 56.7583" stroke="#E8E8E8" stroke-width="6" stroke-linecap="round" stroke-linejoin="round"/>
</svg>
