<svg width="20" height="16" viewBox="0 0 20 16" fill="none" xmlns="http://www.w3.org/2000/svg">
<path d="M14.0773 1.8675C14.1978 1.82956 14.3247 1.8165 14.4503 1.8291C14.5759 1.84171 14.6977 1.87972 14.8082 1.94083C15.0337 2.06654 15.2005 2.27617 15.2723 2.52417V2.53167L16.8823 7.79083C16.3817 7.55677 15.8358 7.43558 15.2832 7.43583C14.3406 7.44794 13.4339 7.79907 12.7291 8.42496C12.0242 9.05086 11.5683 9.90965 11.4448 10.8442H8.54733C8.40714 9.92436 7.94475 9.08426 7.24264 8.47373C6.54053 7.8632 5.64436 7.52194 4.71399 7.51084C4.1598 7.50937 3.61229 7.63179 3.1115 7.86917L4.73983 2.53583V2.52667C4.77399 2.40437 4.83223 2.29012 4.91114 2.19064C4.99005 2.09116 5.08805 2.00845 5.19936 1.94735C5.31068 1.88626 5.43307 1.84802 5.55937 1.83488C5.68567 1.82174 5.81332 1.83396 5.93482 1.87083C6.01624 1.89515 6.10168 1.90307 6.18618 1.89411C6.27067 1.88515 6.35253 1.8595 6.42704 1.81864C6.50154 1.77778 6.56718 1.72254 6.62016 1.65611C6.67314 1.58968 6.7124 1.51339 6.73566 1.43166C6.7858 1.26567 6.7693 1.08666 6.68964 0.932638C6.60998 0.778612 6.47344 0.661684 6.309 0.606666C6.02538 0.520945 5.72753 0.492541 5.43282 0.523105C5.13811 0.553668 4.85243 0.642588 4.59243 0.784685C4.33244 0.926782 4.10333 1.11922 3.91847 1.35076C3.7336 1.58231 3.59666 1.84833 3.51566 2.13333V2.14084L1.12649 9.95167C1.11899 9.975 1.11567 9.99834 1.10817 10.0217C0.925001 10.493 0.831725 10.9944 0.833164 11.5C0.799025 12.4928 1.14731 13.4608 1.80613 14.2043C2.46496 14.9478 3.38407 15.41 4.37376 15.4955C5.36346 15.581 6.34822 15.2834 7.12483 14.6639C7.90144 14.0445 8.41064 13.1506 8.54733 12.1667H11.464C11.6201 13.1388 12.1404 14.015 12.9192 14.6173C13.698 15.2197 14.6769 15.503 15.657 15.4097C16.6371 15.3165 17.545 14.8537 18.1962 14.1153C18.8474 13.3769 19.1931 12.4183 19.1632 11.4342C19.1633 10.9238 19.068 10.4179 18.8823 9.9425L16.4998 2.13333C16.3313 1.55597 15.9421 1.06825 15.4165 0.775835C15.1584 0.63305 14.874 0.544072 14.5805 0.51428C14.287 0.484488 13.9906 0.514501 13.709 0.602501C13.5438 0.656427 13.4064 0.773189 13.3266 0.927558C13.2467 1.08193 13.2308 1.26151 13.2823 1.4275C13.3045 1.50926 13.3429 1.58573 13.3952 1.65239C13.4475 1.71904 13.5127 1.77453 13.5868 1.81556C13.6609 1.85658 13.7426 1.88232 13.8268 1.89125C13.9111 1.90017 13.9963 1.89209 14.0773 1.8675ZM4.7165 14.1775C4.18401 14.1931 3.65898 14.0494 3.2086 13.7649C2.75822 13.4804 2.40299 13.068 2.18836 12.5804C1.97373 12.0928 1.90946 11.5523 2.00379 11.028C2.09812 10.5037 2.34676 10.0195 2.71787 9.63731C3.08899 9.25512 3.5657 8.99237 4.087 8.88268C4.6083 8.77298 5.15048 8.82133 5.64415 9.02154C6.13781 9.22176 6.5605 9.56472 6.85812 10.0065C7.15575 10.4484 7.31477 10.969 7.31483 11.5017C7.32441 12.2009 7.0562 12.8753 6.56907 13.377C6.08194 13.8786 5.41567 14.1665 4.7165 14.1775ZM15.2832 14.1083C14.7507 14.1238 14.2257 13.98 13.7755 13.6953C13.3252 13.4107 12.9701 12.9982 12.7556 12.5106C12.5411 12.023 12.477 11.4825 12.5714 10.9583C12.6658 10.4341 12.9145 9.9499 13.2857 9.5678C13.6568 9.1857 14.1335 8.92304 14.6548 8.81341C15.1761 8.70379 15.7182 8.7522 16.2118 8.95244C16.7055 9.15268 17.1281 9.49565 17.4257 9.93746C17.7233 10.3793 17.8823 10.8998 17.8823 11.4325C17.8921 12.1319 17.6239 12.8066 17.1365 13.3083C16.6492 13.8101 15.9826 14.0978 15.2832 14.1083Z" fill="black" stroke="black" stroke-width="0.2"/>
</svg>
