<svg width="20" height="20" viewBox="0 0 20 20" fill="none" xmlns="http://www.w3.org/2000/svg">
<path d="M5.83341 5H14.1667C14.6834 5 15.1417 5.01667 15.5501 5.075C17.7417 5.31667 18.3334 6.35 18.3334 9.16667V10.8333C18.3334 13.65 17.7417 14.6833 15.5501 14.925C15.1417 14.9833 14.6834 15 14.1667 15H5.83341C5.31675 15 4.85842 14.9833 4.45008 14.925C2.25841 14.6833 1.66675 13.65 1.66675 10.8333V9.16667C1.66675 6.35 2.25841 5.31667 4.45008 5.075C4.85842 5.01667 5.31675 5 5.83341 5Z" stroke="black" stroke-width="1.5" stroke-linecap="round" stroke-linejoin="round"/>
<path d="M14.1667 15C14.6833 15 15.1417 14.9834 15.55 14.925C15.5583 15.0417 15.5583 15.15 15.5583 15.275V15.5584C15.5583 17.775 15 18.3334 12.775 18.3334H7.22498C4.99998 18.3334 4.44165 17.775 4.44165 15.5584V15.275C4.44165 15.15 4.44165 15.0417 4.44998 14.925C4.85832 14.9834 5.31665 15 5.83332 15H14.1667Z" stroke="black" stroke-width="1.5" stroke-linecap="round" stroke-linejoin="round"/>
<path d="M7.22498 1.66675H12.775C15 1.66675 15.5583 2.22508 15.5583 4.44175V4.72508C15.5583 4.85008 15.5583 4.95842 15.55 5.07508C15.1417 5.01675 14.6833 5.00008 14.1667 5.00008H5.83332C5.31665 5.00008 4.85832 5.01675 4.44998 5.07508C4.44165 4.95842 4.44165 4.85008 4.44165 4.72508V4.44175C4.44165 2.22508 4.99998 1.66675 7.22498 1.66675Z" stroke="black" stroke-width="1.5" stroke-linecap="round" stroke-linejoin="round"/>
</svg>
