<svg width="20" height="20" viewBox="0 0 20 20" fill="none" xmlns="http://www.w3.org/2000/svg">
<path d="M10 18.3334C13.4417 18.3334 16.25 15.525 16.25 12.0834V7.91669C16.25 4.47502 13.4417 1.66669 10 1.66669C6.55833 1.66669 3.75 4.47502 3.75 7.91669V12.0834C3.75 15.525 6.55833 18.3334 10 18.3334Z" stroke="black" stroke-width="1.5" stroke-linecap="round" stroke-linejoin="round"/>
<path d="M10 9.16667C9.30833 9.16667 8.75 8.60833 8.75 7.91667V6.25C8.75 5.55833 9.30833 5 10 5C10.6833 5 11.25 5.55833 11.25 6.25V7.91667C11.25 8.60833 10.6833 9.16667 10 9.16667Z" stroke="black" stroke-width="1.5" stroke-linecap="round" stroke-linejoin="round"/>
<path d="M10 5.00002V1.66669" stroke="black" stroke-width="1.5" stroke-linecap="round" stroke-linejoin="round"/>
</svg>
