<svg width="20" height="20" viewBox="0 0 20 20" fill="none" xmlns="http://www.w3.org/2000/svg">
<path fill-rule="evenodd" clip-rule="evenodd" d="M9.79159 3.75C9.71575 3.75 9.52909 3.77083 9.42992 3.96917L7.90825 7.01167C7.66742 7.4925 7.20325 7.82667 6.66659 7.90333L3.25992 8.39417C3.03492 8.42667 2.95825 8.59333 2.93492 8.66333C2.91409 8.73083 2.88075 8.9025 3.03575 9.05083L5.49909 11.4175C5.89159 11.795 6.06992 12.3392 5.97659 12.8717L5.39659 16.2133C5.36075 16.4225 5.49159 16.5442 5.54992 16.5858C5.61159 16.6325 5.77659 16.725 5.98075 16.6183L9.02659 15.0392C9.50659 14.7917 10.0783 14.7917 10.5566 15.0392L13.6016 16.6175C13.8066 16.7233 13.9716 16.6308 14.0341 16.5858C14.0924 16.5442 14.2233 16.4225 14.1874 16.2133L13.6058 12.8717C13.5124 12.3392 13.6908 11.795 14.0833 11.4175L16.5466 9.05083C16.7024 8.9025 16.6691 8.73 16.6474 8.66333C16.6249 8.59333 16.5483 8.42667 16.3233 8.39417L12.9166 7.90333C12.3808 7.82667 11.9166 7.4925 11.6758 7.01083L10.1524 3.96917C10.0541 3.77083 9.86742 3.75 9.79159 3.75ZM5.78909 17.9167C5.44492 17.9167 5.10325 17.8083 4.81075 17.595C4.30575 17.225 4.05825 16.6142 4.16575 15.9992L4.74575 12.6575C4.76742 12.5333 4.72492 12.4075 4.63325 12.3192L2.16992 9.9525C1.71659 9.51833 1.55409 8.87667 1.74575 8.28083C1.93909 7.67833 2.45075 7.2475 3.08159 7.1575L6.48825 6.66667C6.61992 6.64833 6.73325 6.5675 6.78992 6.4525L8.31242 3.40917C8.59325 2.84833 9.15992 2.5 9.79159 2.5C10.4233 2.5 10.9899 2.84833 11.2708 3.40917L12.7941 6.45167C12.8516 6.5675 12.9641 6.64833 13.0949 6.66667L16.5016 7.1575C17.1324 7.2475 17.6441 7.67833 17.8374 8.28083C18.0291 8.87667 17.8658 9.51833 17.4124 9.9525L14.9491 12.3192C14.8574 12.4075 14.8158 12.5333 14.8374 12.6567L15.4183 15.9992C15.5249 16.615 15.2774 17.2258 14.7716 17.595C14.2591 17.9708 13.5916 18.0217 13.0258 17.7267L9.98159 16.1492C9.86242 16.0875 9.71992 16.0875 9.60075 16.1492L6.55659 17.7275C6.31325 17.8542 6.05075 17.9167 5.78909 17.9167Z" fill="#F4A622"/>
</svg>
