<svg width="20" height="20" viewBox="0 0 20 20" fill="none" xmlns="http://www.w3.org/2000/svg">
<path d="M14.9321 11.9334C14.7163 12.1425 14.6171 12.445 14.6663 12.7417L15.4071 16.8417C15.4696 17.1892 15.3229 17.5409 15.0321 17.7417C14.7471 17.95 14.3679 17.975 14.0571 17.8084L10.3663 15.8834C10.2379 15.815 10.0954 15.7784 9.94961 15.7742H9.72378C9.64544 15.7859 9.56878 15.8109 9.49878 15.8492L5.80711 17.7834C5.62461 17.875 5.41794 17.9075 5.21545 17.875C4.72211 17.7817 4.39294 17.3117 4.47378 16.8159L5.21545 12.7159C5.26461 12.4167 5.16544 12.1125 4.94961 11.9L1.94045 8.98337C1.68878 8.73921 1.60128 8.37254 1.71628 8.04171C1.82795 7.71171 2.11294 7.47087 2.45711 7.41671L6.59878 6.81587C6.91378 6.78337 7.19044 6.59171 7.33211 6.30837L9.15711 2.56671C9.20044 2.48337 9.25628 2.40671 9.32378 2.34171L9.39878 2.28337C9.43794 2.24004 9.48294 2.20421 9.53294 2.17504L9.62378 2.14171L9.76544 2.08337H10.1163C10.4296 2.11587 10.7054 2.30337 10.8496 2.58337L12.6988 6.30837C12.8321 6.58087 13.0913 6.77004 13.3904 6.81587L17.5321 7.41671C17.8821 7.46671 18.1746 7.70837 18.2904 8.04171C18.3996 8.37587 18.3054 8.74254 18.0488 8.98337L14.9321 11.9334Z" fill="#F4A622"/>
</svg>
