<svg width="24" height="24" viewBox="0 0 24 24" fill="none" xmlns="http://www.w3.org/2000/svg">
<rect width="24" height="24" rx="4" fill="#FCFCFC"/>
<g clip-path="url(#clip0_1841_17806)">
<path fill-rule="evenodd" clip-rule="evenodd" d="M5.0002 5.60505V8.60505C4.99941 8.62516 5.00539 8.64495 5.01717 8.66127C5.02895 8.67758 5.04587 8.68948 5.0652 8.69505L6.4352 9.19505C6.45411 9.20284 6.47033 9.21597 6.48188 9.23285C6.49343 9.24973 6.49979 9.26961 6.5002 9.29005V14.0001C6.5002 14.2653 6.60556 14.5196 6.7931 14.7072C6.98063 14.8947 7.23499 15.0001 7.5002 15.0001H12.5002C12.7654 15.0001 13.0198 14.8947 13.2073 14.7072C13.3948 14.5196 13.5002 14.2653 13.5002 14.0001V9.28005C13.5007 9.25833 13.5076 9.23725 13.5201 9.21945C13.5325 9.20165 13.55 9.18794 13.5702 9.18005L14.9352 8.68005C14.9515 8.67566 14.9663 8.66677 14.9778 8.65439C14.9893 8.64201 14.997 8.62664 15.0002 8.61005V5.61005C15.0005 5.58593 14.992 5.56253 14.9764 5.54416C14.9608 5.52578 14.939 5.51367 14.9152 5.51005L12.0752 5.00005C12.0529 4.9969 12.0301 5.00104 12.0103 5.01184C11.9905 5.02265 11.9747 5.03956 11.9652 5.06005L11.4302 6.19505C11.3017 6.4656 11.0992 6.6942 10.8461 6.85437C10.593 7.01454 10.2997 7.09973 10.0002 7.10005C9.70069 7.09973 9.4074 7.01454 9.15431 6.85437C8.90122 6.6942 8.6987 6.4656 8.5702 6.19505L8.0352 5.06505C8.02657 5.04363 8.01111 5.02564 7.99123 5.01389C7.97134 5.00214 7.94813 4.99728 7.9252 5.00005L5.0852 5.50005C5.06047 5.50376 5.03803 5.51659 5.02229 5.53603C5.00656 5.55546 4.99866 5.635 5.00019 5.65996L5.0002 5.60505Z" fill="#0D5F91" stroke="#003555" stroke-width="0.8" stroke-linecap="round" stroke-linejoin="round"/>
</g>
<g clip-path="url(#clip1_1841_17806)">
<path fill-rule="evenodd" clip-rule="evenodd" d="M7.16723 7.87256V11.3726C7.16631 11.396 7.17328 11.4191 7.18703 11.4381C7.20077 11.4572 7.2205 11.4711 7.24306 11.4776L8.84139 12.0609C8.86345 12.07 8.88238 12.0853 8.89585 12.105C8.90932 12.1247 8.91675 12.1479 8.91723 12.1717V17.6667C8.91723 17.9761 9.04014 18.2729 9.25894 18.4917C9.47773 18.7105 9.77448 18.8334 10.0839 18.8334H15.9172C16.2266 18.8334 16.5234 18.7105 16.7422 18.4917C16.961 18.2729 17.0839 17.9761 17.0839 17.6667V12.1601C17.0845 12.1347 17.0925 12.1101 17.1071 12.0894C17.1216 12.0686 17.1419 12.0526 17.1656 12.0434L18.7581 11.4601C18.7771 11.4549 18.7943 11.4446 18.8077 11.4301C18.8211 11.4157 18.8302 11.3978 18.8339 11.3784V7.87839C18.8342 7.85026 18.8244 7.82295 18.8061 7.80151C18.7879 7.78008 18.7625 7.76594 18.7347 7.76173L15.4214 7.16673C15.3953 7.16305 15.3688 7.16788 15.3456 7.18049C15.3225 7.19309 15.3041 7.21282 15.2931 7.23673L14.6689 8.56089C14.519 8.87653 14.2827 9.14323 13.9874 9.3301C13.6922 9.51697 13.35 9.61635 13.0006 9.61673C12.6511 9.61635 12.309 9.51697 12.0137 9.3301C11.7184 9.14323 11.4821 8.87653 11.3322 8.56089L10.7081 7.24256C10.698 7.21756 10.68 7.19659 10.6568 7.18288C10.6336 7.16917 10.6065 7.16349 10.5797 7.16673L7.26639 7.75006C7.23754 7.75438 7.21136 7.76936 7.193 7.79203C7.17464 7.81471 7.16543 7.9075 7.16721 7.93662L7.16723 7.87256Z" fill="#E2B000" stroke="#947301" stroke-width="0.8" stroke-linecap="round" stroke-linejoin="round"/>
</g>
<defs>
<clipPath id="clip0_1841_17806">
<rect width="12" height="12" fill="white" transform="translate(4 4)"/>
</clipPath>
<clipPath id="clip1_1841_17806">
<rect width="14" height="14" fill="white" transform="translate(6 6)"/>
</clipPath>
</defs>
</svg>
