<svg width="20" height="20" viewBox="0 0 20 20" fill="none" xmlns="http://www.w3.org/2000/svg">
<path d="M7.50002 18.3333H12.5C16.6667 18.3333 18.3334 16.6666 18.3334 12.5V7.49996C18.3334 3.33329 16.6667 1.66663 12.5 1.66663H7.50002C3.33335 1.66663 1.66669 3.33329 1.66669 7.49996V12.5C1.66669 16.6666 3.33335 18.3333 7.50002 18.3333Z" stroke="black" stroke-width="1.5" stroke-linecap="round" stroke-linejoin="round"/>
<path d="M7.58331 9.99999V8.76666C7.58331 7.17499 8.70831 6.53333 10.0833 7.32499L11.15 7.94166L12.2166 8.55833C13.5916 9.34999 13.5916 10.65 12.2166 11.4417L11.15 12.0583L10.0833 12.675C8.70831 13.4667 7.58331 12.8167 7.58331 11.2333V9.99999Z" stroke="black" stroke-width="1.5" stroke-miterlimit="10" stroke-linecap="round" stroke-linejoin="round"/>
</svg>
