<svg width="22" height="22" viewBox="0 0 22 22" fill="none" xmlns="http://www.w3.org/2000/svg">
<path fill-rule="evenodd" clip-rule="evenodd" d="M2.29336 11.0001C2.2908 12.1273 2.2405 13.6647 2.93785 14.2394C3.58831 14.7755 4.04611 14.6374 5.23365 14.7245C6.42204 14.8125 8.93011 18.3058 10.8636 17.2009C11.861 16.4165 11.9352 14.7722 11.9352 11.0001C11.9352 7.22806 11.861 5.58374 10.8636 4.7994C8.93011 3.69359 6.42204 7.18777 5.23365 7.27574C4.04611 7.36289 3.58831 7.22477 2.93785 7.76082C2.2405 8.33551 2.2908 9.87294 2.29336 11.0001Z" stroke="black" stroke-width="1.5" stroke-linecap="round" stroke-linejoin="round"/>
<path d="M17.9523 5.41199C20.2898 8.77709 20.2975 13.2159 17.9523 16.5876" stroke="#007DCA" stroke-width="1.5" stroke-linecap="round" stroke-linejoin="round"/>
<path d="M15.6578 7.62154C16.8599 9.72134 16.8599 12.2857 15.6578 14.3789" stroke="#007DCA" stroke-width="1.5" stroke-linecap="round" stroke-linejoin="round"/>
</svg>
