<svg width="18" height="18" viewBox="0 0 18 18" fill="none" xmlns="http://www.w3.org/2000/svg">
<path d="M2.25757 8.41406V11.7816C2.25757 15.1491 3.60757 16.4991 6.97507 16.4991H11.0176C14.3851 16.4991 15.7351 15.1491 15.7351 11.7816V8.41406" stroke="black" stroke-width="1.5" stroke-linecap="round" stroke-linejoin="round"/>
<path d="M9.00011 9C10.3726 9 11.3851 7.8825 11.2501 6.51L10.7551 1.5H7.25261L6.75011 6.51C6.61511 7.8825 7.62761 9 9.00011 9Z" stroke="black" stroke-width="1.5" stroke-linecap="round" stroke-linejoin="round"/>
<path d="M13.7326 9C15.2476 9 16.3576 7.77 16.2076 6.2625L15.9976 4.2C15.7276 2.25 14.9776 1.5 13.0126 1.5H10.7251L11.2501 6.7575C11.3776 7.995 12.4951 9 13.7326 9Z" stroke="black" stroke-width="1.5" stroke-linecap="round" stroke-linejoin="round"/>
<path d="M4.23003 9C5.46753 9 6.58503 7.995 6.70503 6.7575L6.87003 5.1L7.23003 1.5H4.94253C2.97753 1.5 2.22753 2.25 1.95753 4.2L1.75503 6.2625C1.60503 7.77 2.71503 9 4.23003 9Z" stroke="black" stroke-width="1.5" stroke-linecap="round" stroke-linejoin="round"/>
<path d="M9 12.75C7.7475 12.75 7.125 13.3725 7.125 14.625V16.5H10.875V14.625C10.875 13.3725 10.2525 12.75 9 12.75Z" stroke="black" stroke-width="1.5" stroke-linecap="round" stroke-linejoin="round"/>
</svg>
