<svg width="24" height="24" viewBox="0 0 24 24" fill="none" xmlns="http://www.w3.org/2000/svg">
<path fill-rule="evenodd" clip-rule="evenodd" d="M9.87657 15.2062C6.03257 15.2062 2.74957 15.7872 2.74957 18.1152C2.74957 20.4432 6.01257 21.0452 9.87657 21.0452C13.7216 21.0452 17.0036 20.4632 17.0036 18.1362C17.0036 15.8092 13.7416 15.2062 9.87657 15.2062Z" stroke="#EAA700" stroke-width="1.5" stroke-linecap="round" stroke-linejoin="round"/>
<path fill-rule="evenodd" clip-rule="evenodd" d="M9.87657 11.8859C12.3996 11.8859 14.4446 9.84088 14.4446 7.31788C14.4446 4.79488 12.3996 2.74988 9.87657 2.74988C7.35457 2.74988 5.30954 4.79488 5.30954 7.31788C5.30057 9.83188 7.33057 11.8769 9.84557 11.8859H9.87657Z" stroke="#EAA700" stroke-width="1.5" stroke-linecap="round" stroke-linejoin="round"/>
<path d="M19.2037 8.66907V12.6791" stroke="#EAA700" stroke-width="1.5" stroke-linecap="round" stroke-linejoin="round"/>
<path d="M21.2495 10.674H17.1595" stroke="#EAA700" stroke-width="1.5" stroke-linecap="round" stroke-linejoin="round"/>
</svg>
