<svg width="164" height="40" viewBox="0 0 164 40" fill="none" xmlns="http://www.w3.org/2000/svg">
<mask id="path-1-outside-1_2024_6224" maskUnits="userSpaceOnUse" x="49" y="6" width="115" height="25" fill="black">
<rect fill="white" x="49" y="6" width="115" height="25"/>
<path d="M52.346 7.254H50.51C51.224 7.662 51.564 9.192 51.564 11.164V26.124C51.564 27.994 51.258 29.592 50.51 30H58.534C64.926 30 67.884 26.022 67.884 18.644C67.884 11.436 64.552 7.288 58.534 7.288L52.346 7.254ZM56.222 29.66C55.406 29.66 54.692 29.082 54.522 28.266C54.42 27.654 54.352 26.906 54.352 26.124V11.164C54.352 10.382 54.386 9.634 54.488 9.022C54.658 8.206 55.372 7.628 56.222 7.628H58.058C62.852 7.628 64.756 11.606 64.756 18.644C64.756 25.818 62.818 29.66 58.194 29.66H56.222ZM83.3885 15.006C79.3085 15.006 76.0105 17.794 76.0105 22.486C76.0105 27.382 79.3085 30.17 83.3885 30.17C85.8705 30.17 88.0465 29.15 89.3725 27.246C89.3725 27.246 87.5365 29.252 84.4085 29.252C84.0685 29.252 83.7285 29.218 83.3885 29.184C80.8385 28.844 79.0025 26.974 79.0025 22.486V22.316H90.7665C90.6645 17.692 87.4005 15.006 83.3885 15.006ZM79.0025 21.976C79.1385 17.862 80.8045 15.38 83.3885 15.38C85.9725 15.38 87.6385 17.726 87.7745 21.976H79.0025ZM74.0725 19.596C74.2425 18.882 75.4665 15.38 79.0705 14.088C79.8525 13.816 81.1785 13.51 82.6405 13.51C84.0345 13.51 85.5645 13.782 86.7885 14.598L87.6045 12.15C86.8905 12.048 86.1765 11.98 85.4285 11.98C83.2185 11.98 81.0085 12.49 79.2745 13.204C76.3505 14.462 74.4125 17.318 74.0725 18.746V15.006C73.9705 15.074 72.4065 16.06 70.2645 16.332C70.6045 16.536 70.8765 17.012 71.0465 17.692C71.2165 18.372 71.3185 19.256 71.3185 20.242V26.09C71.3185 27.994 70.9785 29.558 70.2645 30H75.1265C74.4125 29.592 74.0725 27.96 74.0725 26.09V19.596ZM99.0222 30.17C100.858 30.17 104.768 29.252 104.768 25.92C104.768 24.458 103.918 23.03 102.252 22.316L97.8322 20.378C96.6762 19.868 95.9282 19.324 95.9282 18.032C95.9282 16.536 97.1862 15.414 98.9542 15.38C100.654 15.38 102.116 16.06 102.592 17.93L104.122 16.468C102.728 15.516 100.96 15.04 99.0222 15.04C94.3982 15.04 93.1742 17.794 93.1742 19.086C93.1742 20.446 93.9902 21.806 95.5202 22.452L100.314 24.56C101.47 25.07 102.388 25.818 102.388 26.94C102.388 28.538 101.028 29.796 99.0902 29.83C97.2202 29.83 95.1462 28.912 94.8742 26.566L93.1402 28.062C94.6362 29.422 96.7102 30.17 99.0222 30.17ZM113.033 30.17C114.869 30.17 118.779 29.252 118.779 25.92C118.779 24.458 117.929 23.03 116.263 22.316L111.843 20.378C110.687 19.868 109.939 19.324 109.939 18.032C109.939 16.536 111.197 15.414 112.965 15.38C114.665 15.38 116.127 16.06 116.603 17.93L118.133 16.468C116.739 15.516 114.971 15.04 113.033 15.04C108.409 15.04 107.185 17.794 107.185 19.086C107.185 20.446 108.001 21.806 109.531 22.452L114.325 24.56C115.481 25.07 116.399 25.818 116.399 26.94C116.399 28.538 115.039 29.796 113.101 29.83C111.231 29.83 109.157 28.912 108.885 26.566L107.151 28.062C108.647 29.422 110.721 30.17 113.033 30.17ZM145.777 30C145.063 29.592 144.723 27.994 144.723 26.124V22.452C144.723 17.59 142.649 15.04 139.113 15.04C136.291 15.04 134.829 17.522 134.285 18.644C133.435 16.264 131.667 15.04 129.253 15.04C126.737 15.04 125.581 16.74 124.969 17.794V15.04C124.867 15.074 123.303 16.06 121.161 16.366C121.501 16.536 121.773 17.012 121.943 17.692C122.113 18.372 122.181 19.256 122.181 20.242V26.124C122.181 27.994 121.875 29.558 121.161 30H126.023C125.309 29.592 124.969 27.994 124.969 26.124V18.304C125.241 17.998 126.193 15.822 128.165 15.686H128.471C129.729 15.686 132.075 16.23 132.075 22.52V26.124C132.075 27.994 131.769 29.558 131.021 30H135.917C135.169 29.592 134.863 27.994 134.863 26.124V22.452C134.863 21.16 134.693 20.038 134.421 19.086C134.897 17.964 136.291 15.686 138.059 15.686H138.093C139.215 15.686 141.969 15.72 141.969 22.52V26.124C141.969 27.994 141.629 29.558 140.915 30H145.777ZM162.876 22.316C162.808 17.692 159.544 15.04 155.498 15.04C151.452 15.04 148.154 17.794 148.154 22.486C148.154 27.382 151.452 30.17 155.498 30.17C157.98 30.17 160.156 29.15 161.516 27.246C161.516 27.246 159.646 29.252 156.552 29.252C156.212 29.252 155.872 29.218 155.532 29.184C152.982 28.844 151.146 26.974 151.146 22.486V22.316H162.876ZM155.532 15.38C158.116 15.38 159.782 17.726 159.918 21.976H151.146C151.282 17.862 152.914 15.38 155.532 15.38Z"/>
</mask>
<path d="M52.346 7.254H50.51C51.224 7.662 51.564 9.192 51.564 11.164V26.124C51.564 27.994 51.258 29.592 50.51 30H58.534C64.926 30 67.884 26.022 67.884 18.644C67.884 11.436 64.552 7.288 58.534 7.288L52.346 7.254ZM56.222 29.66C55.406 29.66 54.692 29.082 54.522 28.266C54.42 27.654 54.352 26.906 54.352 26.124V11.164C54.352 10.382 54.386 9.634 54.488 9.022C54.658 8.206 55.372 7.628 56.222 7.628H58.058C62.852 7.628 64.756 11.606 64.756 18.644C64.756 25.818 62.818 29.66 58.194 29.66H56.222ZM83.3885 15.006C79.3085 15.006 76.0105 17.794 76.0105 22.486C76.0105 27.382 79.3085 30.17 83.3885 30.17C85.8705 30.17 88.0465 29.15 89.3725 27.246C89.3725 27.246 87.5365 29.252 84.4085 29.252C84.0685 29.252 83.7285 29.218 83.3885 29.184C80.8385 28.844 79.0025 26.974 79.0025 22.486V22.316H90.7665C90.6645 17.692 87.4005 15.006 83.3885 15.006ZM79.0025 21.976C79.1385 17.862 80.8045 15.38 83.3885 15.38C85.9725 15.38 87.6385 17.726 87.7745 21.976H79.0025ZM74.0725 19.596C74.2425 18.882 75.4665 15.38 79.0705 14.088C79.8525 13.816 81.1785 13.51 82.6405 13.51C84.0345 13.51 85.5645 13.782 86.7885 14.598L87.6045 12.15C86.8905 12.048 86.1765 11.98 85.4285 11.98C83.2185 11.98 81.0085 12.49 79.2745 13.204C76.3505 14.462 74.4125 17.318 74.0725 18.746V15.006C73.9705 15.074 72.4065 16.06 70.2645 16.332C70.6045 16.536 70.8765 17.012 71.0465 17.692C71.2165 18.372 71.3185 19.256 71.3185 20.242V26.09C71.3185 27.994 70.9785 29.558 70.2645 30H75.1265C74.4125 29.592 74.0725 27.96 74.0725 26.09V19.596ZM99.0222 30.17C100.858 30.17 104.768 29.252 104.768 25.92C104.768 24.458 103.918 23.03 102.252 22.316L97.8322 20.378C96.6762 19.868 95.9282 19.324 95.9282 18.032C95.9282 16.536 97.1862 15.414 98.9542 15.38C100.654 15.38 102.116 16.06 102.592 17.93L104.122 16.468C102.728 15.516 100.96 15.04 99.0222 15.04C94.3982 15.04 93.1742 17.794 93.1742 19.086C93.1742 20.446 93.9902 21.806 95.5202 22.452L100.314 24.56C101.47 25.07 102.388 25.818 102.388 26.94C102.388 28.538 101.028 29.796 99.0902 29.83C97.2202 29.83 95.1462 28.912 94.8742 26.566L93.1402 28.062C94.6362 29.422 96.7102 30.17 99.0222 30.17ZM113.033 30.17C114.869 30.17 118.779 29.252 118.779 25.92C118.779 24.458 117.929 23.03 116.263 22.316L111.843 20.378C110.687 19.868 109.939 19.324 109.939 18.032C109.939 16.536 111.197 15.414 112.965 15.38C114.665 15.38 116.127 16.06 116.603 17.93L118.133 16.468C116.739 15.516 114.971 15.04 113.033 15.04C108.409 15.04 107.185 17.794 107.185 19.086C107.185 20.446 108.001 21.806 109.531 22.452L114.325 24.56C115.481 25.07 116.399 25.818 116.399 26.94C116.399 28.538 115.039 29.796 113.101 29.83C111.231 29.83 109.157 28.912 108.885 26.566L107.151 28.062C108.647 29.422 110.721 30.17 113.033 30.17ZM145.777 30C145.063 29.592 144.723 27.994 144.723 26.124V22.452C144.723 17.59 142.649 15.04 139.113 15.04C136.291 15.04 134.829 17.522 134.285 18.644C133.435 16.264 131.667 15.04 129.253 15.04C126.737 15.04 125.581 16.74 124.969 17.794V15.04C124.867 15.074 123.303 16.06 121.161 16.366C121.501 16.536 121.773 17.012 121.943 17.692C122.113 18.372 122.181 19.256 122.181 20.242V26.124C122.181 27.994 121.875 29.558 121.161 30H126.023C125.309 29.592 124.969 27.994 124.969 26.124V18.304C125.241 17.998 126.193 15.822 128.165 15.686H128.471C129.729 15.686 132.075 16.23 132.075 22.52V26.124C132.075 27.994 131.769 29.558 131.021 30H135.917C135.169 29.592 134.863 27.994 134.863 26.124V22.452C134.863 21.16 134.693 20.038 134.421 19.086C134.897 17.964 136.291 15.686 138.059 15.686H138.093C139.215 15.686 141.969 15.72 141.969 22.52V26.124C141.969 27.994 141.629 29.558 140.915 30H145.777ZM162.876 22.316C162.808 17.692 159.544 15.04 155.498 15.04C151.452 15.04 148.154 17.794 148.154 22.486C148.154 27.382 151.452 30.17 155.498 30.17C157.98 30.17 160.156 29.15 161.516 27.246C161.516 27.246 159.646 29.252 156.552 29.252C156.212 29.252 155.872 29.218 155.532 29.184C152.982 28.844 151.146 26.974 151.146 22.486V22.316H162.876ZM155.532 15.38C158.116 15.38 159.782 17.726 159.918 21.976H151.146C151.282 17.862 152.914 15.38 155.532 15.38Z" fill="#008F0E"/>
<path d="M52.346 7.254L52.3476 6.954H52.346V7.254ZM50.51 7.254V6.954H49.3803L50.3612 7.51447L50.51 7.254ZM50.51 30L50.3663 29.7366L50.51 30.3V30ZM58.534 7.288L58.5324 7.588H58.534V7.288ZM54.522 28.266L54.2258 28.3154L54.2283 28.3272L54.522 28.266ZM54.488 9.022L54.1941 8.96076L54.1921 8.97268L54.488 9.022ZM52.346 6.954H50.51V7.554H52.346V6.954ZM50.3612 7.51447C50.6057 7.65422 50.8436 8.03137 51.0141 8.69697C51.1799 9.34383 51.264 10.192 51.264 11.164H51.864C51.864 10.164 51.7781 9.26116 51.5954 8.54803C51.4174 7.85362 51.1283 7.26178 50.6588 6.99353L50.3612 7.51447ZM51.264 11.164V26.124H51.864V11.164H51.264ZM51.264 26.124C51.264 27.0461 51.1882 27.8863 51.0264 28.5379C50.8593 29.2105 50.6211 29.5977 50.3663 29.7366L50.6537 30.2634C51.1469 29.9943 51.4357 29.3785 51.6086 28.6826C51.7868 27.9657 51.864 27.0719 51.864 26.124H51.264ZM50.51 30.3H58.534V29.7H50.51V30.3ZM58.534 30.3C61.7958 30.3 64.2304 29.2818 65.84 27.2765C67.4394 25.2839 68.184 22.3652 68.184 18.644H67.584C67.584 22.3008 66.8496 25.0601 65.372 26.901C63.9046 28.7292 61.6642 29.7 58.534 29.7V30.3ZM68.184 18.644C68.184 14.9987 67.342 12.0829 65.698 10.0731C64.0465 8.05413 61.6174 6.988 58.534 6.988V7.588C61.4686 7.588 63.7145 8.59586 65.2335 10.4529C66.76 12.3191 67.584 15.0813 67.584 18.644H68.184ZM58.5356 6.988L52.3476 6.954L52.3444 7.55399L58.5324 7.58799L58.5356 6.988ZM56.222 29.36C55.5493 29.36 54.957 28.8828 54.8157 28.2048L54.2283 28.3272C54.4271 29.2812 55.2627 29.96 56.222 29.96V29.36ZM54.8179 28.2167C54.7187 27.6211 54.652 26.8896 54.652 26.124H54.052C54.052 26.9224 54.1213 27.6869 54.2261 28.3153L54.8179 28.2167ZM54.652 26.124V11.164H54.052V26.124H54.652ZM54.652 11.164C54.652 10.3876 54.686 9.65895 54.7839 9.07132L54.1921 8.97268C54.086 9.60905 54.052 10.3764 54.052 11.164H54.652ZM54.7817 9.08319C54.9222 8.40861 55.5117 7.928 56.222 7.928V7.328C55.2323 7.328 54.3938 8.00339 54.1943 8.96081L54.7817 9.08319ZM56.222 7.928H58.058V7.328H56.222V7.928ZM58.058 7.928C59.2143 7.928 60.1793 8.16755 60.9792 8.62057C61.7785 9.07329 62.4297 9.74862 62.9445 10.646C63.9802 12.4513 64.456 15.1412 64.456 18.644H65.056C65.056 15.1088 64.5798 12.2907 63.465 10.3475C62.9046 9.37062 62.1808 8.61158 61.2749 8.09849C60.3695 7.5857 59.2987 7.328 58.058 7.328V7.928ZM64.456 18.644C64.456 22.2149 63.9717 24.9049 62.9486 26.6933C62.44 27.5822 61.8005 28.2447 61.022 28.6867C60.2429 29.129 59.3077 29.36 58.194 29.36V29.96C59.3923 29.96 60.4334 29.7108 61.3182 29.2085C62.2035 28.7059 62.9155 27.9595 63.4694 26.9912C64.5713 25.0651 65.056 22.2471 65.056 18.644H64.456ZM58.194 29.36H56.222V29.96H58.194V29.36ZM89.3725 27.246L89.6187 27.4174L89.1512 27.0435L89.3725 27.246ZM83.3885 29.184L83.3489 29.4815L83.3587 29.4825L83.3885 29.184ZM79.0025 22.316V22.016H78.7025V22.316H79.0025ZM90.7665 22.316V22.616H91.0732L91.0665 22.3094L90.7665 22.316ZM79.0025 21.976L78.7027 21.9661L78.6925 22.276H79.0025V21.976ZM87.7745 21.976V22.276H88.0843L88.0744 21.9664L87.7745 21.976ZM74.0725 19.596L73.7807 19.5265L73.7725 19.5608V19.596H74.0725ZM79.0705 14.088L78.972 13.8046L78.9693 13.8056L79.0705 14.088ZM86.7885 14.598L86.6221 14.8476L86.9489 15.0655L87.0731 14.6929L86.7885 14.598ZM87.6045 12.15L87.8891 12.2449L88.0028 11.9038L87.647 11.853L87.6045 12.15ZM79.2745 13.204L79.1603 12.9266L79.156 12.9284L79.2745 13.204ZM74.0725 18.746H73.7725L74.3644 18.8155L74.0725 18.746ZM74.0725 15.006H74.3725V14.4454L73.9061 14.7564L74.0725 15.006ZM70.2645 16.332L70.2267 16.0344L69.3673 16.1435L70.1102 16.5892L70.2645 16.332ZM71.0465 17.692L71.3376 17.6192L71.0465 17.692ZM70.2645 30L70.1066 29.7449L69.21 30.3H70.2645V30ZM75.1265 30V30.3H76.2562L75.2754 29.7395L75.1265 30ZM83.3885 14.706C81.2801 14.706 79.3582 15.427 77.9616 16.7703C76.5628 18.1156 75.7105 20.0663 75.7105 22.486H76.3105C76.3105 20.2137 77.1072 18.4244 78.3775 17.2027C79.6499 15.979 81.417 15.306 83.3885 15.306V14.706ZM75.7105 22.486C75.7105 25.0041 76.5604 27.0058 77.9595 28.3782C79.3568 29.7488 81.2799 30.47 83.3885 30.47V29.87C81.4172 29.87 79.6513 29.1972 78.3796 27.9498C77.1097 26.7042 76.3105 24.8639 76.3105 22.486H75.7105ZM83.3885 30.47C85.9543 30.47 88.2289 29.4131 89.6187 27.4174L89.1264 27.0746C87.8642 28.8869 85.7868 29.87 83.3885 29.87V30.47ZM89.3725 27.246C89.1512 27.0435 89.1513 27.0434 89.1514 27.0433C89.1514 27.0433 89.1515 27.0432 89.1515 27.0432C89.1515 27.0431 89.1516 27.0431 89.1516 27.0431C89.1516 27.0431 89.1515 27.0432 89.1512 27.0434C89.1508 27.0439 89.1499 27.0448 89.1486 27.0462C89.146 27.049 89.1416 27.0536 89.1355 27.06C89.1233 27.0726 89.1041 27.092 89.0782 27.1173C89.0263 27.1678 88.9473 27.2416 88.8424 27.331C88.6322 27.5098 88.3189 27.75 87.9111 27.9906C87.0953 28.4719 85.9066 28.952 84.4085 28.952V29.552C86.0385 29.552 87.3317 29.0291 88.216 28.5074C88.6581 28.2465 88.9993 27.9852 89.2312 27.7879C89.3472 27.6892 89.4361 27.6063 89.4969 27.5471C89.5272 27.5175 89.5506 27.4938 89.5668 27.4771C89.5749 27.4687 89.5812 27.4621 89.5857 27.4573C89.588 27.4549 89.5898 27.4529 89.5911 27.4515C89.5918 27.4507 89.5924 27.4501 89.5928 27.4496C89.593 27.4494 89.5932 27.4492 89.5934 27.449C89.5935 27.4489 89.5936 27.4488 89.5936 27.4488C89.5937 27.4486 89.5938 27.4485 89.3725 27.246ZM84.4085 28.952C84.086 28.952 83.7609 28.9197 83.4184 28.8855L83.3587 29.4825C83.6961 29.5163 84.0511 29.552 84.4085 29.552V28.952ZM83.4282 28.8866C82.2199 28.7255 81.2034 28.2076 80.482 27.2142C79.7547 26.2126 79.3025 24.6935 79.3025 22.486H78.7025C78.7025 24.7665 79.1684 26.4264 79.9965 27.5668C80.8306 28.7154 82.0072 29.3025 83.3489 29.4814L83.4282 28.8866ZM79.3025 22.486V22.316H78.7025V22.486H79.3025ZM79.0025 22.616H90.7665V22.016H79.0025V22.616ZM91.0665 22.3094C91.0139 19.9248 90.1436 18.0181 88.7492 16.7083C87.3568 15.4005 85.4615 14.706 83.3885 14.706V15.306C85.3276 15.306 87.0702 15.9545 88.3384 17.1457C89.6044 18.3349 90.4172 20.0832 90.4666 22.3226L91.0665 22.3094ZM79.3024 21.9859C79.3693 19.9618 79.8123 18.374 80.5271 17.3017C81.2347 16.2403 82.2084 15.68 83.3885 15.68V15.08C81.9847 15.08 80.8333 15.7607 80.0279 16.9688C79.2298 18.166 78.7718 19.8762 78.7027 21.9661L79.3024 21.9859ZM83.3885 15.68C84.5747 15.68 85.5468 16.2118 86.2511 17.2524C86.9641 18.3059 87.4077 19.8919 87.4747 21.9856L88.0744 21.9664C88.0054 19.8101 87.548 18.0981 86.748 16.9161C85.9393 15.7212 84.7864 15.08 83.3885 15.08V15.68ZM87.7745 21.676H79.0025V22.276H87.7745V21.676ZM74.3644 19.6655C74.4417 19.3409 74.7761 18.3218 75.5306 17.2292C76.283 16.1398 77.4438 14.9899 79.1718 14.3704L78.9693 13.8056C77.0933 14.4781 75.8401 15.7252 75.0369 16.8883C74.236 18.0482 73.8734 19.1371 73.7807 19.5265L74.3644 19.6655ZM79.1691 14.3713C79.9239 14.1088 81.2165 13.81 82.6405 13.81V13.21C81.1406 13.21 79.7812 13.5232 78.972 13.8047L79.1691 14.3713ZM82.6405 13.81C84.0023 13.81 85.4659 14.0768 86.6221 14.8476L86.9549 14.3484C85.6632 13.4872 84.0668 13.21 82.6405 13.21V13.81ZM87.0731 14.6929L87.8891 12.2449L87.3199 12.0551L86.5039 14.5031L87.0731 14.6929ZM87.647 11.853C86.9237 11.7497 86.1949 11.68 85.4285 11.68V12.28C86.1582 12.28 86.8574 12.3463 87.5621 12.447L87.647 11.853ZM85.4285 11.68C83.1757 11.68 80.927 12.1991 79.1603 12.9266L79.3888 13.4814C81.09 12.7809 83.2613 12.28 85.4285 12.28V11.68ZM79.156 12.9284C77.6421 13.5797 76.3909 14.6408 75.476 15.7169C74.5657 16.7876 73.9655 17.9005 73.7807 18.6765L74.3644 18.8155C74.5196 18.1635 75.0584 17.1344 75.9331 16.1056C76.8031 15.0822 77.983 14.0863 79.3931 13.4796L79.156 12.9284ZM74.3725 18.746V15.006H73.7725V18.746H74.3725ZM73.9061 14.7564C73.8241 14.8111 72.3048 15.7705 70.2267 16.0344L70.3023 16.6296C72.5083 16.3495 74.117 15.3369 74.2389 15.2556L73.9061 14.7564ZM70.1102 16.5892C70.3449 16.7301 70.5909 17.1062 70.7555 17.7648L71.3376 17.6192C71.1622 16.9178 70.8642 16.3419 70.4189 16.0748L70.1102 16.5892ZM70.7555 17.7648C70.9182 18.4158 71.0185 19.2746 71.0185 20.242H71.6185C71.6185 19.2374 71.5148 18.3282 71.3376 17.6192L70.7555 17.7648ZM71.0185 20.242V26.09H71.6185V20.242H71.0185ZM71.0185 26.09C71.0185 27.0271 70.9346 27.8673 70.7686 28.5192C70.5979 29.1893 70.3586 29.589 70.1066 29.7449L70.4224 30.2551C70.8845 29.969 71.1721 29.3657 71.35 28.6673C71.5325 27.9507 71.6185 27.0569 71.6185 26.09H71.0185ZM70.2645 30.3H75.1265V29.7H70.2645V30.3ZM75.2754 29.7395C75.1615 29.6745 75.0402 29.5467 74.9233 29.3349C74.8074 29.125 74.7059 28.8506 74.6227 28.5201C74.4564 27.859 74.3725 27.0098 74.3725 26.09H73.7725C73.7725 27.0402 73.8586 27.942 74.0408 28.6664C74.1319 29.0286 74.2493 29.3556 74.398 29.6249C74.5456 29.8923 74.7346 30.1215 74.9777 30.2605L75.2754 29.7395ZM74.3725 26.09V19.596H73.7725V26.09H74.3725ZM102.252 22.316L102.132 22.5908L102.134 22.5917L102.252 22.316ZM97.8322 20.378L97.7111 20.6525L97.7117 20.6528L97.8322 20.378ZM98.9542 15.38V15.0799L98.9484 15.0801L98.9542 15.38ZM102.592 17.93L102.301 18.004L102.428 18.5017L102.799 18.1469L102.592 17.93ZM104.122 16.468L104.329 16.6849L104.597 16.4291L104.291 16.2203L104.122 16.468ZM95.5202 22.452L95.6409 22.1773L95.6368 22.1756L95.5202 22.452ZM100.314 24.56L100.435 24.2855L100.435 24.2854L100.314 24.56ZM99.0902 29.83V30.13L99.0954 30.13L99.0902 29.83ZM94.8742 26.566L95.1722 26.5314L95.1069 25.9689L94.6782 26.3389L94.8742 26.566ZM93.1402 28.062L92.9442 27.8349L92.6877 28.0561L92.9384 28.284L93.1402 28.062ZM99.0222 30.47C99.9773 30.47 101.465 30.2335 102.725 29.559C103.995 28.8794 105.068 27.7312 105.068 25.92H104.468C104.468 27.4408 103.586 28.4176 102.442 29.03C101.288 29.6475 99.903 29.87 99.0222 29.87V30.47ZM105.068 25.92C105.068 24.3348 104.144 22.8003 102.37 22.0403L102.134 22.5917C103.693 23.2597 104.468 24.5812 104.468 25.92H105.068ZM102.373 22.0413L97.9526 20.1032L97.7117 20.6528L102.132 22.5907L102.373 22.0413ZM97.9533 20.1035C97.3821 19.8515 96.9549 19.6084 96.6677 19.2954C96.3926 18.9957 96.2282 18.6117 96.2282 18.032H95.6282C95.6282 18.7443 95.8377 19.2783 96.2256 19.7011C96.6014 20.1106 97.1263 20.3945 97.7111 20.6525L97.9533 20.1035ZM96.2282 18.032C96.2282 16.7387 97.3131 15.7116 98.9599 15.6799L98.9484 15.0801C97.0593 15.1164 95.6282 16.3333 95.6282 18.032H96.2282ZM98.9542 15.68C99.7673 15.68 100.497 15.843 101.072 16.2072C101.64 16.567 102.081 17.1376 102.301 18.004L102.883 17.856C102.627 16.8523 102.1 16.148 101.393 15.7003C100.693 15.257 99.841 15.08 98.9542 15.08V15.68ZM102.799 18.1469L104.329 16.6849L103.915 16.2511L102.385 17.7131L102.799 18.1469ZM104.291 16.2203C102.838 15.2277 101.008 14.74 99.0222 14.74V15.34C100.913 15.34 102.618 15.8043 103.953 16.7157L104.291 16.2203ZM99.0222 14.74C96.6479 14.74 95.1062 15.4488 94.1562 16.3622C93.2132 17.269 92.8742 18.3586 92.8742 19.086H93.4742C93.4742 18.5214 93.7471 17.588 94.5721 16.7947C95.3901 16.0082 96.7725 15.34 99.0222 15.34V14.74ZM92.8742 19.086C92.8742 20.5685 93.7642 22.0362 95.4035 22.7284L95.6368 22.1756C94.2162 21.5758 93.4742 20.3235 93.4742 19.086H92.8742ZM95.3994 22.7266L100.193 24.8346L100.435 24.2854L95.6409 22.1774L95.3994 22.7266ZM100.193 24.8345C101.332 25.3371 102.088 26.0124 102.088 26.94H102.688C102.688 25.6236 101.608 24.8029 100.435 24.2855L100.193 24.8345ZM102.088 26.94C102.088 28.3383 100.898 29.4982 99.0849 29.53L99.0954 30.13C101.158 30.0938 102.688 28.7377 102.688 26.94H102.088ZM99.0902 29.53C98.1995 29.53 97.275 29.3106 96.549 28.8279C95.8317 28.351 95.2974 27.6115 95.1722 26.5314L94.5762 26.6006C94.7229 27.8665 95.3616 28.759 96.2168 29.3276C97.0633 29.8904 98.1109 30.13 99.0902 30.13V29.53ZM94.6782 26.3389L92.9442 27.8349L93.3361 28.2891L95.0701 26.7931L94.6782 26.3389ZM92.9384 28.284C94.497 29.701 96.6463 30.47 99.0222 30.47V29.87C96.7741 29.87 94.7753 29.143 93.342 27.84L92.9384 28.284ZM116.263 22.316L116.142 22.5908L116.144 22.5917L116.263 22.316ZM111.843 20.378L111.721 20.6525L111.722 20.6528L111.843 20.378ZM112.965 15.38V15.0799L112.959 15.0801L112.965 15.38ZM116.603 17.93L116.312 18.004L116.439 18.5017L116.81 18.1469L116.603 17.93ZM118.133 16.468L118.34 16.6849L118.608 16.4291L118.302 16.2203L118.133 16.468ZM109.531 22.452L109.651 22.1773L109.647 22.1756L109.531 22.452ZM114.325 24.56L114.446 24.2855L114.445 24.2854L114.325 24.56ZM113.101 29.83V30.13L113.106 30.13L113.101 29.83ZM108.885 26.566L109.183 26.5314L109.117 25.9689L108.689 26.3389L108.885 26.566ZM107.151 28.062L106.955 27.8349L106.698 28.0561L106.949 28.284L107.151 28.062ZM113.033 30.47C113.988 30.47 115.475 30.2335 116.736 29.559C118.005 28.8794 119.079 27.7312 119.079 25.92H118.479C118.479 27.4408 117.597 28.4176 116.452 29.03C115.299 29.6475 113.913 29.87 113.033 29.87V30.47ZM119.079 25.92C119.079 24.3348 118.154 22.8003 116.381 22.0403L116.144 22.5917C117.703 23.2597 118.479 24.5812 118.479 25.92H119.079ZM116.383 22.0413L111.963 20.1032L111.722 20.6528L116.142 22.5907L116.383 22.0413ZM111.964 20.1035C111.392 19.8515 110.965 19.6084 110.678 19.2954C110.403 18.9957 110.239 18.6117 110.239 18.032H109.639C109.639 18.7443 109.848 19.2783 110.236 19.7011C110.612 20.1106 111.137 20.3945 111.721 20.6525L111.964 20.1035ZM110.239 18.032C110.239 16.7387 111.323 15.7116 112.97 15.6799L112.959 15.0801C111.07 15.1164 109.639 16.3333 109.639 18.032H110.239ZM112.965 15.68C113.778 15.68 114.507 15.843 115.082 16.2072C115.65 16.567 116.091 17.1376 116.312 18.004L116.893 17.856C116.638 16.8523 116.11 16.148 115.403 15.7003C114.703 15.257 113.851 15.08 112.965 15.08V15.68ZM116.81 18.1469L118.34 16.6849L117.925 16.2511L116.395 17.7131L116.81 18.1469ZM118.302 16.2203C116.848 15.2277 115.018 14.74 113.033 14.74V15.34C114.923 15.34 116.629 15.8043 117.963 16.7157L118.302 16.2203ZM113.033 14.74C110.658 14.74 109.117 15.4488 108.167 16.3622C107.224 17.269 106.885 18.3586 106.885 19.086H107.485C107.485 18.5214 107.757 17.588 108.582 16.7947C109.401 16.0082 110.783 15.34 113.033 15.34V14.74ZM106.885 19.086C106.885 20.5685 107.775 22.0362 109.414 22.7284L109.647 22.1756C108.227 21.5758 107.485 20.3235 107.485 19.086H106.885ZM109.41 22.7266L114.204 24.8346L114.445 24.2854L109.651 22.1774L109.41 22.7266ZM114.203 24.8345C115.343 25.3371 116.099 26.0124 116.099 26.94H116.699C116.699 25.6236 115.618 24.8029 114.446 24.2855L114.203 24.8345ZM116.099 26.94C116.099 28.3383 114.908 29.4982 113.095 29.53L113.106 30.13C115.169 30.0938 116.699 28.7377 116.699 26.94H116.099ZM113.101 29.53C112.21 29.53 111.285 29.3106 110.559 28.8279C109.842 28.351 109.308 27.6115 109.183 26.5314L108.587 26.6006C108.733 27.8665 109.372 28.759 110.227 29.3276C111.074 29.8904 112.121 30.13 113.101 30.13V29.53ZM108.689 26.3389L106.955 27.8349L107.347 28.2891L109.081 26.7931L108.689 26.3389ZM106.949 28.284C108.507 29.701 110.657 30.47 113.033 30.47V29.87C110.784 29.87 108.786 29.143 107.352 27.84L106.949 28.284ZM145.777 30V30.3H146.907L145.926 29.7395L145.777 30ZM134.285 18.644L134.002 18.7449L134.243 19.4183L134.555 18.7749L134.285 18.644ZM124.969 17.794H124.669V18.9081L125.228 17.9446L124.969 17.794ZM124.969 15.04H125.269V14.6238L124.874 14.7554L124.969 15.04ZM121.161 16.366L121.119 16.069L120.168 16.2048L121.027 16.6343L121.161 16.366ZM121.943 17.692L122.234 17.6192L121.943 17.692ZM121.161 30L121.003 29.7449L120.106 30.3H121.161V30ZM126.023 30V30.3H127.153L126.172 29.7395L126.023 30ZM124.969 18.304L124.745 18.1047L124.669 18.1899V18.304H124.969ZM128.165 15.686V15.386H128.155L128.144 15.3867L128.165 15.686ZM131.021 30L130.868 29.7417L129.924 30.3H131.021V30ZM135.917 30V30.3L136.061 29.7366L135.917 30ZM134.421 19.086L134.145 18.9688L134.103 19.0665L134.132 19.1684L134.421 19.086ZM140.915 30L140.757 29.7449L139.86 30.3H140.915V30ZM145.926 29.7395C145.811 29.6737 145.689 29.5469 145.573 29.3387C145.457 29.1321 145.356 28.8622 145.273 28.5362C145.107 27.8841 145.023 27.0439 145.023 26.124H144.423C144.423 27.0741 144.509 27.9679 144.691 28.6843C144.783 29.0425 144.9 29.3655 145.049 29.6317C145.197 29.8964 145.386 30.1223 145.628 30.2605L145.926 29.7395ZM145.023 26.124V22.452H144.423V26.124H145.023ZM145.023 22.452C145.023 19.9844 144.497 18.0567 143.481 16.7395C142.456 15.4105 140.96 14.74 139.113 14.74V15.34C140.801 15.34 142.11 15.9445 143.006 17.106C143.911 18.2793 144.423 20.0576 144.423 22.452H145.023ZM139.113 14.74C136.094 14.74 134.559 17.3907 134.015 18.5131L134.555 18.7749C135.099 17.6533 136.488 15.34 139.113 15.34V14.74ZM134.567 18.5431C134.125 17.3055 133.438 16.3498 132.529 15.7049C131.621 15.0598 130.512 14.74 129.253 14.74V15.34C130.408 15.34 131.39 15.6322 132.182 16.1941C132.973 16.7562 133.594 17.6025 134.002 18.7449L134.567 18.5431ZM129.253 14.74C126.566 14.74 125.332 16.5712 124.71 17.6434L125.228 17.9446C125.83 16.9088 126.908 15.34 129.253 15.34V14.74ZM125.269 17.794V15.04H124.669V17.794H125.269ZM124.874 14.7554C124.84 14.7666 124.806 14.7851 124.794 14.7911C124.774 14.8017 124.749 14.8154 124.721 14.8306C124.664 14.8616 124.588 14.903 124.493 14.9528C124.303 15.0522 124.038 15.1847 123.711 15.3254C123.056 15.6073 122.156 15.9208 121.119 16.069L121.203 16.663C122.308 16.5052 123.261 16.1727 123.949 15.8766C124.293 15.7283 124.572 15.5888 124.771 15.4842C124.871 15.432 124.951 15.3884 125.007 15.3578C125.036 15.3421 125.057 15.3309 125.072 15.3232C125.095 15.3108 125.085 15.3177 125.064 15.3246L124.874 14.7554ZM121.027 16.6343C121.127 16.6842 121.242 16.7933 121.357 16.9892C121.47 17.183 121.572 17.4434 121.652 17.7648L122.234 17.6192C122.144 17.2606 122.025 16.943 121.875 16.6863C121.726 16.4317 121.535 16.2178 121.295 16.0977L121.027 16.6343ZM121.652 17.7648C121.813 18.4096 121.881 19.2651 121.881 20.242H122.481C122.481 19.2469 122.413 18.3344 122.234 17.6192L121.652 17.7648ZM121.881 20.242V26.124H122.481V20.242H121.881ZM121.881 26.124C121.881 27.0458 121.805 27.8782 121.647 28.5265C121.485 29.1935 121.253 29.5903 121.003 29.7449L121.319 30.2551C121.783 29.9677 122.061 29.3615 122.23 28.6685C122.404 27.9568 122.481 27.0722 122.481 26.124H121.881ZM121.161 30.3H126.023V29.7H121.161V30.3ZM126.172 29.7395C126.057 29.6737 125.935 29.5469 125.819 29.3387C125.703 29.1321 125.602 28.8622 125.519 28.5362C125.353 27.8841 125.269 27.0439 125.269 26.124H124.669C124.669 27.0741 124.755 27.9679 124.937 28.6843C125.029 29.0425 125.146 29.3655 125.295 29.6317C125.443 29.8964 125.632 30.1223 125.874 30.2605L126.172 29.7395ZM125.269 26.124V18.304H124.669V26.124H125.269ZM125.193 18.5033C125.247 18.4429 125.305 18.3528 125.358 18.2688C125.418 18.1725 125.479 18.0718 125.559 17.9459C125.714 17.7022 125.911 17.4112 126.156 17.1275C126.65 16.5569 127.313 16.0455 128.186 15.9853L128.144 15.3867C127.045 15.4625 126.246 16.1071 125.703 16.735C125.43 17.0505 125.214 17.3694 125.053 17.6241C124.974 17.7473 124.901 17.8678 124.849 17.9497C124.79 18.0437 124.759 18.0886 124.745 18.1047L125.193 18.5033ZM128.165 15.986H128.471V15.386H128.165V15.986ZM128.471 15.986C129.051 15.986 129.846 16.108 130.511 16.9326C131.191 17.7759 131.775 19.4013 131.775 22.52H132.375C132.375 19.3487 131.786 17.5571 130.978 16.5559C130.156 15.536 129.149 15.386 128.471 15.386V15.986ZM131.775 22.52V26.124H132.375V22.52H131.775ZM131.775 26.124C131.775 27.046 131.699 27.8776 131.537 28.5247C131.371 29.1891 131.133 29.5855 130.868 29.7417L131.174 30.2583C131.657 29.9725 131.946 29.3659 132.119 28.6703C132.298 27.9574 132.375 27.072 132.375 26.124H131.775ZM131.021 30.3H135.917V29.7H131.021V30.3ZM136.061 29.7366C135.806 29.5977 135.568 29.2105 135.401 28.5379C135.239 27.8863 135.163 27.0461 135.163 26.124H134.563C134.563 27.0719 134.64 27.9657 134.818 28.6826C134.991 29.3785 135.28 29.9943 135.773 30.2634L136.061 29.7366ZM135.163 26.124V22.452H134.563V26.124H135.163ZM135.163 22.452C135.163 21.1336 134.989 19.9838 134.709 19.0036L134.132 19.1684C134.396 20.0922 134.563 21.1864 134.563 22.452H135.163ZM134.697 19.2032C134.925 18.665 135.377 17.8445 135.98 17.1642C136.59 16.4759 137.305 15.986 138.059 15.986V15.386C137.045 15.386 136.179 16.0351 135.531 16.7663C134.876 17.5055 134.392 18.385 134.145 18.9688L134.697 19.2032ZM138.059 15.986H138.093V15.386H138.059V15.986ZM138.093 15.986C138.646 15.986 139.5 15.9987 140.236 16.7614C140.984 17.5359 141.669 19.1472 141.669 22.52H142.269C142.269 19.0928 141.577 17.2871 140.668 16.3446C139.746 15.3903 138.662 15.386 138.093 15.386V15.986ZM141.669 22.52V26.124H142.269V22.52H141.669ZM141.669 26.124C141.669 27.0437 141.585 27.8754 141.419 28.523C141.248 29.1889 141.009 29.5888 140.757 29.7449L141.073 30.2551C141.535 29.9692 141.822 29.3661 142 28.672C142.183 27.9596 142.269 27.0742 142.269 26.124H141.669ZM140.915 30.3H145.777V29.7H140.915V30.3ZM162.876 22.316V22.616H163.18L163.176 22.3116L162.876 22.316ZM161.516 27.246L161.76 27.4204L161.296 27.0414L161.516 27.246ZM155.532 29.184L155.492 29.4815L155.502 29.4825L155.532 29.184ZM151.146 22.316V22.016H150.846V22.316H151.146ZM159.918 21.976V22.276H160.228L160.218 21.9664L159.918 21.976ZM151.146 21.976L150.846 21.9661L150.836 22.276H151.146V21.976ZM163.176 22.3116C163.141 19.9262 162.279 18.0267 160.883 16.7246C159.49 15.4249 157.586 14.74 155.498 14.74V15.34C157.456 15.34 159.207 15.9811 160.474 17.1634C161.739 18.3433 162.543 20.0818 162.576 22.3204L163.176 22.3116ZM155.498 14.74C153.407 14.74 151.493 15.4522 150.101 16.7869C148.706 18.1238 147.854 20.0662 147.854 22.486H148.454C148.454 20.2138 149.25 18.4332 150.516 17.2201C151.784 16.0048 153.543 15.34 155.498 15.34V14.74ZM147.854 22.486C147.854 25.0041 148.704 27.0056 150.098 28.3778C151.491 29.7484 153.406 30.47 155.498 30.47V29.87C153.544 29.87 151.787 29.1976 150.519 27.9502C149.253 26.7044 148.454 24.8639 148.454 22.486H147.854ZM155.498 30.47C158.064 30.47 160.337 29.4127 161.76 27.4204L161.272 27.0716C159.975 28.8873 157.895 29.87 155.498 29.87V30.47ZM161.516 27.246C161.296 27.0414 161.296 27.0414 161.296 27.0413C161.296 27.0413 161.297 27.0412 161.297 27.0412C161.297 27.0411 161.297 27.0411 161.297 27.0411C161.297 27.0411 161.297 27.0412 161.296 27.0415C161.296 27.042 161.295 27.0429 161.294 27.0443C161.291 27.0472 161.286 27.0518 161.28 27.0582C161.268 27.0709 161.248 27.0904 161.222 27.1157C161.169 27.1664 161.089 27.2403 160.982 27.3298C160.769 27.5089 160.452 27.7494 160.042 27.9903C159.221 28.4722 158.032 28.952 156.552 28.952V29.552C158.165 29.552 159.458 29.0288 160.346 28.5077C160.79 28.2471 161.134 27.9861 161.368 27.7891C161.486 27.6905 161.576 27.6077 161.637 27.5487C161.668 27.5192 161.691 27.4956 161.708 27.4789C161.716 27.4706 161.722 27.4639 161.727 27.4592C161.729 27.4568 161.731 27.4549 161.732 27.4534C161.733 27.4527 161.734 27.4521 161.734 27.4516C161.734 27.4514 161.735 27.4512 161.735 27.451C161.735 27.4509 161.735 27.4508 161.735 27.4508C161.735 27.4507 161.735 27.4506 161.516 27.246ZM156.552 28.952C156.229 28.952 155.904 28.9197 155.562 28.8855L155.502 29.4825C155.839 29.5163 156.194 29.552 156.552 29.552V28.952ZM155.571 28.8866C154.363 28.7255 153.347 28.2076 152.625 27.2142C151.898 26.2126 151.446 24.6935 151.446 22.486H150.846C150.846 24.7665 151.312 26.4264 152.14 27.5668C152.974 28.7154 154.15 29.3025 155.492 29.4814L155.571 28.8866ZM151.446 22.486V22.316H150.846V22.486H151.446ZM151.146 22.616H162.876V22.016H151.146V22.616ZM155.532 15.68C156.718 15.68 157.69 16.2118 158.394 17.2524C159.107 18.3059 159.551 19.8919 159.618 21.9856L160.218 21.9664C160.149 19.8101 159.691 18.0981 158.891 16.9161C158.083 15.7212 156.93 15.08 155.532 15.08V15.68ZM159.918 21.676H151.146V22.276H159.918V21.676ZM151.446 21.9859C151.513 19.9607 151.947 18.373 152.658 17.301C153.361 16.241 154.334 15.68 155.532 15.68V15.08C154.112 15.08 152.96 15.76 152.158 16.9695C151.364 18.167 150.915 19.8773 150.846 21.9661L151.446 21.9859Z" fill="#008F0E" mask="url(#path-1-outside-1_2024_6224)"/>
<rect width="40" height="40" rx="20" fill="#008F0E" fill-opacity="0.2"/>
<path d="M19.0167 21.7776C18.9124 21.4154 19.5345 18.8359 19.5345 18.8359H21.5061C21.5061 18.8359 22.3716 21.3829 22.2526 21.7776C21.4391 24.4752 20.5699 26.9012 20.5699 26.9012C20.5699 26.9012 19.7933 24.4751 19.0167 21.7776Z" fill="#004407"/>
<path d="M19.5054 18.5707C19.1302 17.195 18.5049 15.577 18.5049 15.577L19.3803 13.7427L21.6567 13.7422L22.5068 15.577C22.5068 15.577 22.1316 16.8511 21.5063 18.5707C21.4815 18.6391 19.5257 18.6451 19.5054 18.5707Z" fill="#004407"/>
<path d="M14.2726 9.48697C16.285 15.442 20.5554 27.6201 20.5554 27.6201C20.5554 27.6201 24.7634 15.9351 27.0353 9.37963C27.1669 9.00016 32.8527 9.047 32.9394 9.37963C33.0261 9.71225 32.9133 11.4574 32.9133 11.4574C32.9133 11.4574 32.1784 15.3826 31.4019 15.7108C30.6255 16.0389 28.8894 16.6165 28.3791 17.837C27.7053 19.4485 28.8829 21.2401 28.8829 21.2401L20.5554 34.0002L12.2573 21.2397C12.2573 21.2397 13.3562 19.0784 12.7611 17.837C12.1847 16.6344 9.73809 15.7103 9.73809 15.7103C8.52896 14.6894 8 9.64242 8 9.37954C8 9.11666 14.0927 8.95477 14.2726 9.48697Z" fill="#008F0E"/>
<path d="M17.0477 16.7973C16.9247 16.9808 16.9736 17.2293 17.1571 17.3524C17.3406 17.4754 17.5891 17.4264 17.7121 17.2429L17.0477 16.7973ZM14.7695 10.2985C14.7262 10.3058 14.7139 10.2954 14.759 10.3069C14.7958 10.3163 14.8506 10.335 14.925 10.3669C15.0733 10.4303 15.2663 10.5315 15.4931 10.665C15.9449 10.9309 16.498 11.3054 17.0361 11.7056C17.5746 12.1061 18.0882 12.5249 18.4634 12.8773C18.6521 13.0545 18.7972 13.207 18.892 13.3265C18.9397 13.3865 18.9676 13.4295 18.9819 13.4564C19.0004 13.4912 18.9808 13.4701 18.9808 13.4121H19.7808C19.7808 13.276 19.7295 13.1584 19.6883 13.0809C19.6429 12.9954 19.5831 12.9103 19.5186 12.8291C19.3892 12.666 19.2125 12.4834 19.0111 12.2942C18.6063 11.914 18.0669 11.4753 17.5136 11.0637C16.9599 10.6519 16.3823 10.26 15.8989 9.97551C15.6581 9.83381 15.4323 9.7138 15.2398 9.63142C15.1438 9.59034 15.0478 9.55498 14.9569 9.53179C14.8744 9.51072 14.7577 9.48923 14.6367 9.50959L14.7695 10.2985ZM18.9808 13.4121C18.9808 13.4098 18.9751 13.4643 18.9218 13.6021C18.8741 13.7255 18.8026 13.8798 18.7119 14.0575C18.5309 14.4122 18.2866 14.834 18.0385 15.2428C17.791 15.6503 17.5432 16.0392 17.3569 16.3267C17.2638 16.4703 17.1863 16.5883 17.1322 16.6702C17.1051 16.7112 17.0839 16.7431 17.0695 16.7648C17.0623 16.7756 17.0568 16.7838 17.0531 16.7893C17.0513 16.792 17.0499 16.7941 17.049 16.7954C17.0485 16.7961 17.0482 16.7966 17.048 16.7969C17.0479 16.7971 17.0478 16.7972 17.0478 16.7973C17.0477 16.7973 17.0477 16.7973 17.0477 16.7973C17.0477 16.7974 17.0477 16.7973 17.3799 17.0201C17.7121 17.2429 17.7121 17.2429 17.7122 17.2429C17.7122 17.2429 17.7122 17.2428 17.7123 17.2427C17.7123 17.2426 17.7124 17.2425 17.7126 17.2423C17.7128 17.2419 17.7132 17.2413 17.7137 17.2405C17.7148 17.239 17.7163 17.2368 17.7182 17.2339C17.7221 17.228 17.7278 17.2194 17.7353 17.2082C17.7502 17.1858 17.772 17.1531 17.7996 17.1113C17.8549 17.0276 17.9337 16.9076 18.0282 16.7618C18.2171 16.4703 18.4695 16.0743 18.7223 15.6579C18.9743 15.2428 19.2303 14.8016 19.4245 14.4212C19.5213 14.2314 19.6062 14.0501 19.6679 13.8908C19.724 13.7459 19.7808 13.5706 19.7808 13.4121H18.9808Z" fill="#004407"/>
<path d="M23.8532 16.778C23.9568 16.9731 23.8826 17.2153 23.6875 17.3189C23.4924 17.4225 23.2503 17.3483 23.1467 17.1532L23.8532 16.778ZM26.3635 10.2968C26.4148 10.3058 26.4339 10.2934 26.3893 10.305C26.3551 10.3138 26.3028 10.3316 26.2308 10.3621C26.0874 10.4228 25.8988 10.5193 25.6762 10.6464C25.2328 10.8994 24.6856 11.2554 24.1517 11.6353C23.6174 12.0154 23.1061 12.4124 22.7322 12.7459C22.5442 12.9136 22.3998 13.0574 22.3056 13.1694C22.2583 13.2258 22.2313 13.2652 22.2181 13.2886C22.1998 13.321 22.2241 13.2933 22.2241 13.2264H21.4241C21.4241 13.0866 21.4801 12.9685 21.5215 12.8952C21.5679 12.813 21.6285 12.7318 21.693 12.6549C21.8227 12.5005 21.9992 12.3277 22.1998 12.1488C22.603 11.7892 23.1396 11.3735 23.6879 10.9834C24.2366 10.593 24.8068 10.2214 25.2796 9.95156C25.5151 9.81719 25.7344 9.70346 25.9191 9.62533C26.011 9.58642 26.1029 9.5527 26.1891 9.53041C26.2649 9.51081 26.381 9.48767 26.5018 9.50887L26.3635 10.2968ZM22.2241 13.2264C22.2241 13.2209 22.2239 13.2351 22.2334 13.2776C22.2421 13.3169 22.2563 13.3681 22.2768 13.4318C22.3179 13.5592 22.3788 13.7191 22.4553 13.9031C22.608 14.2704 22.8136 14.7115 23.0218 15.1398C23.2295 15.5671 23.4374 15.9769 23.5937 16.2802C23.6718 16.4317 23.7368 16.5565 23.7822 16.6432C23.8049 16.6865 23.8228 16.7204 23.8349 16.7433C23.8409 16.7548 23.8456 16.7635 23.8486 16.7694C23.8502 16.7723 23.8514 16.7745 23.8521 16.7759C23.8525 16.7767 23.8528 16.7772 23.853 16.7775C23.8531 16.7777 23.8531 16.7778 23.8532 16.7779C23.8532 16.778 23.8532 16.778 23.8532 16.778C23.8532 16.778 23.8532 16.778 23.4999 16.9656C23.1467 17.1532 23.1466 17.1532 23.1466 17.1531C23.1466 17.1531 23.1466 17.1531 23.1466 17.153C23.1465 17.1529 23.1464 17.1527 23.1463 17.1525C23.1461 17.1521 23.1458 17.1515 23.1453 17.1507C23.1445 17.1491 23.1432 17.1468 23.1416 17.1437C23.1384 17.1376 23.1336 17.1285 23.1274 17.1167C23.1149 17.0931 23.0967 17.0586 23.0736 17.0145C23.0274 16.9264 22.9615 16.8 22.8825 16.6465C22.7245 16.3399 22.5136 15.9242 22.3023 15.4896C22.0915 15.056 21.8781 14.5988 21.7166 14.2103C21.636 14.0164 21.566 13.8341 21.5154 13.6773C21.4693 13.5344 21.4241 13.3682 21.4241 13.2264H22.2241Z" fill="#004407"/>
</svg>
