<svg width="164" height="41" viewBox="0 0 164 41" fill="none" xmlns="http://www.w3.org/2000/svg">
<rect width="40" height="40" rx="20" fill="#007DCA"/>
<path d="M19.0167 21.7771C18.9124 21.4149 19.5345 18.8354 19.5345 18.8354H21.5061C21.5061 18.8354 22.3716 21.3824 22.2526 21.7771C21.4391 24.4747 20.5699 26.9008 20.5699 26.9008C20.5699 26.9008 19.7933 24.4746 19.0167 21.7771Z" fill="white"/>
<path d="M19.5054 18.5702C19.1302 17.1945 18.5049 15.5765 18.5049 15.5765L19.3803 13.7422L21.6567 13.7417L22.5068 15.5765C22.5068 15.5765 22.1316 16.8506 21.5063 18.5702C21.4815 18.6386 19.5257 18.6446 19.5054 18.5702Z" fill="white"/>
<path d="M14.2726 9.48648C16.285 15.4415 20.5554 27.6197 20.5554 27.6197C20.5554 27.6197 24.7634 15.9346 27.0353 9.37914C27.1669 8.99967 32.8527 9.04652 32.9394 9.37914C33.0261 9.71176 32.9133 11.4569 32.9133 11.4569C32.9133 11.4569 32.1784 15.3821 31.4019 15.7103C30.6255 16.0384 28.8894 16.616 28.3791 17.8365C27.7053 19.448 28.8829 21.2396 28.8829 21.2396L20.5554 33.9997L12.2573 21.2392C12.2573 21.2392 13.3562 19.0779 12.7611 17.8365C12.1847 16.6339 9.73809 15.7098 9.73809 15.7098C8.52896 14.689 8 9.64194 8 9.37905C8 9.11617 14.0927 8.95428 14.2726 9.48648Z" fill="white"/>
<path d="M17.0477 16.7969C16.9247 16.9803 16.9736 17.2288 17.1571 17.3519C17.3406 17.4749 17.5891 17.4259 17.7121 17.2425L17.0477 16.7969ZM14.7695 10.298C14.7262 10.3053 14.7139 10.2949 14.759 10.3064C14.7958 10.3158 14.8506 10.3346 14.925 10.3664C15.0733 10.4299 15.2663 10.531 15.4931 10.6645C15.9449 10.9304 16.498 11.3049 17.0361 11.7051C17.5746 12.1056 18.0882 12.5244 18.4634 12.8769C18.6521 13.054 18.7972 13.2065 18.892 13.326C18.9397 13.386 18.9676 13.429 18.9819 13.4559C19.0004 13.4907 18.9808 13.4696 18.9808 13.4116H19.7808C19.7808 13.2755 19.7295 13.1579 19.6883 13.0804C19.6429 12.995 19.5831 12.9098 19.5186 12.8286C19.3892 12.6655 19.2125 12.4829 19.0111 12.2937C18.6063 11.9135 18.0669 11.4748 17.5136 11.0632C16.9599 10.6514 16.3823 10.2595 15.8989 9.97502C15.6581 9.83332 15.4323 9.71331 15.2398 9.63094C15.1438 9.58986 15.0478 9.55449 14.9569 9.5313C14.8744 9.51023 14.7577 9.48874 14.6367 9.50911L14.7695 10.298ZM18.9808 13.4116C18.9808 13.4093 18.9751 13.4638 18.9218 13.6016C18.8741 13.725 18.8026 13.8793 18.7119 14.057C18.5309 14.4117 18.2866 14.8335 18.0385 15.2423C17.791 15.6498 17.5432 16.0388 17.3569 16.3262C17.2638 16.4698 17.1863 16.5878 17.1322 16.6697C17.1051 16.7107 17.0839 16.7426 17.0695 16.7643C17.0623 16.7751 17.0568 16.7833 17.0531 16.7888C17.0513 16.7915 17.0499 16.7936 17.049 16.7949C17.0485 16.7956 17.0482 16.7961 17.048 16.7964C17.0479 16.7966 17.0478 16.7967 17.0478 16.7968C17.0477 16.7968 17.0477 16.7968 17.0477 16.7969C17.0477 16.7969 17.0477 16.7969 17.3799 17.0197C17.7121 17.2425 17.7121 17.2424 17.7122 17.2424C17.7122 17.2424 17.7122 17.2423 17.7123 17.2423C17.7123 17.2421 17.7124 17.242 17.7126 17.2418C17.7128 17.2414 17.7132 17.2408 17.7137 17.24C17.7148 17.2385 17.7163 17.2363 17.7182 17.2334C17.7221 17.2275 17.7278 17.2189 17.7353 17.2077C17.7502 17.1854 17.772 17.1526 17.7996 17.1108C17.8549 17.0271 17.9337 16.9071 18.0282 16.7613C18.2171 16.4698 18.4695 16.0738 18.7223 15.6574C18.9743 15.2423 19.2303 14.8011 19.4245 14.4207C19.5213 14.2309 19.6062 14.0496 19.6679 13.8904C19.724 13.7454 19.7808 13.5701 19.7808 13.4116H18.9808Z" fill="white"/>
<path d="M23.8532 16.7775C23.9568 16.9726 23.8826 17.2148 23.6875 17.3184C23.4924 17.422 23.2503 17.3478 23.1467 17.1527L23.8532 16.7775ZM26.3635 10.2963C26.4148 10.3053 26.4339 10.2929 26.3893 10.3045C26.3551 10.3133 26.3028 10.3311 26.2308 10.3616C26.0874 10.4223 25.8988 10.5188 25.6762 10.6459C25.2328 10.8989 24.6856 11.255 24.1517 11.6348C23.6174 12.0149 23.1061 12.4119 22.7322 12.7454C22.5442 12.9131 22.3998 13.0569 22.3056 13.1689C22.2583 13.2253 22.2313 13.2647 22.2181 13.2881C22.1998 13.3205 22.2241 13.2928 22.2241 13.2259H21.4241C21.4241 13.0861 21.4801 12.968 21.5215 12.8947C21.5679 12.8125 21.6285 12.7313 21.693 12.6544C21.8227 12.5 21.9992 12.3272 22.1998 12.1483C22.603 11.7887 23.1396 11.373 23.6879 10.9829C24.2366 10.5925 24.8068 10.2209 25.2796 9.95107C25.5151 9.8167 25.7344 9.70297 25.9191 9.62484C26.011 9.58593 26.1029 9.55221 26.1891 9.52992C26.2649 9.51032 26.381 9.48718 26.5018 9.50838L26.3635 10.2963ZM22.2241 13.2259C22.2241 13.2204 22.2239 13.2346 22.2334 13.2771C22.2421 13.3164 22.2563 13.3676 22.2768 13.4313C22.3179 13.5587 22.3788 13.7186 22.4553 13.9027C22.608 14.2699 22.8136 14.711 23.0218 15.1394C23.2295 15.5666 23.4374 15.9764 23.5937 16.2797C23.6718 16.4313 23.7368 16.556 23.7822 16.6427C23.8049 16.6861 23.8228 16.7199 23.8349 16.7428C23.8409 16.7543 23.8456 16.7631 23.8486 16.7689C23.8502 16.7718 23.8514 16.774 23.8521 16.7755C23.8525 16.7762 23.8528 16.7767 23.853 16.7771C23.8531 16.7772 23.8531 16.7774 23.8532 16.7774C23.8532 16.7775 23.8532 16.7775 23.8532 16.7775C23.8532 16.7775 23.8532 16.7775 23.4999 16.9651C23.1467 17.1527 23.1466 17.1527 23.1466 17.1526C23.1466 17.1526 23.1466 17.1526 23.1466 17.1525C23.1465 17.1524 23.1464 17.1522 23.1463 17.152C23.1461 17.1516 23.1458 17.151 23.1453 17.1502C23.1445 17.1486 23.1432 17.1463 23.1416 17.1432C23.1384 17.1371 23.1336 17.128 23.1274 17.1162C23.1149 17.0927 23.0967 17.0581 23.0736 17.014C23.0274 16.9259 22.9615 16.7995 22.8825 16.6461C22.7245 16.3394 22.5136 15.9237 22.3023 15.4891C22.0915 15.0555 21.8781 14.5983 21.7166 14.2098C21.636 14.0159 21.566 13.8336 21.5154 13.6768C21.4693 13.5339 21.4241 13.3677 21.4241 13.2259H22.2241Z" fill="white"/>
<mask id="path-7-outside-1_2288_7410" maskUnits="userSpaceOnUse" x="49" y="7" width="115" height="25" fill="black">
<rect fill="white" x="49" y="7" width="115" height="25"/>
<path d="M52.346 8.254H50.51C51.224 8.662 51.564 10.192 51.564 12.164V27.124C51.564 28.994 51.258 30.592 50.51 31H58.534C64.926 31 67.884 27.022 67.884 19.644C67.884 12.436 64.552 8.288 58.534 8.288L52.346 8.254ZM56.222 30.66C55.406 30.66 54.692 30.082 54.522 29.266C54.42 28.654 54.352 27.906 54.352 27.124V12.164C54.352 11.382 54.386 10.634 54.488 10.022C54.658 9.206 55.372 8.628 56.222 8.628H58.058C62.852 8.628 64.756 12.606 64.756 19.644C64.756 26.818 62.818 30.66 58.194 30.66H56.222ZM83.3885 16.006C79.3085 16.006 76.0105 18.794 76.0105 23.486C76.0105 28.382 79.3085 31.17 83.3885 31.17C85.8705 31.17 88.0465 30.15 89.3725 28.246C89.3725 28.246 87.5365 30.252 84.4085 30.252C84.0685 30.252 83.7285 30.218 83.3885 30.184C80.8385 29.844 79.0025 27.974 79.0025 23.486V23.316H90.7665C90.6645 18.692 87.4005 16.006 83.3885 16.006ZM79.0025 22.976C79.1385 18.862 80.8045 16.38 83.3885 16.38C85.9725 16.38 87.6385 18.726 87.7745 22.976H79.0025ZM74.0725 20.596C74.2425 19.882 75.4665 16.38 79.0705 15.088C79.8525 14.816 81.1785 14.51 82.6405 14.51C84.0345 14.51 85.5645 14.782 86.7885 15.598L87.6045 13.15C86.8905 13.048 86.1765 12.98 85.4285 12.98C83.2185 12.98 81.0085 13.49 79.2745 14.204C76.3505 15.462 74.4125 18.318 74.0725 19.746V16.006C73.9705 16.074 72.4065 17.06 70.2645 17.332C70.6045 17.536 70.8765 18.012 71.0465 18.692C71.2165 19.372 71.3185 20.256 71.3185 21.242V27.09C71.3185 28.994 70.9785 30.558 70.2645 31H75.1265C74.4125 30.592 74.0725 28.96 74.0725 27.09V20.596ZM99.0222 31.17C100.858 31.17 104.768 30.252 104.768 26.92C104.768 25.458 103.918 24.03 102.252 23.316L97.8322 21.378C96.6762 20.868 95.9282 20.324 95.9282 19.032C95.9282 17.536 97.1862 16.414 98.9542 16.38C100.654 16.38 102.116 17.06 102.592 18.93L104.122 17.468C102.728 16.516 100.96 16.04 99.0222 16.04C94.3982 16.04 93.1742 18.794 93.1742 20.086C93.1742 21.446 93.9902 22.806 95.5202 23.452L100.314 25.56C101.47 26.07 102.388 26.818 102.388 27.94C102.388 29.538 101.028 30.796 99.0902 30.83C97.2202 30.83 95.1462 29.912 94.8742 27.566L93.1402 29.062C94.6362 30.422 96.7102 31.17 99.0222 31.17ZM113.033 31.17C114.869 31.17 118.779 30.252 118.779 26.92C118.779 25.458 117.929 24.03 116.263 23.316L111.843 21.378C110.687 20.868 109.939 20.324 109.939 19.032C109.939 17.536 111.197 16.414 112.965 16.38C114.665 16.38 116.127 17.06 116.603 18.93L118.133 17.468C116.739 16.516 114.971 16.04 113.033 16.04C108.409 16.04 107.185 18.794 107.185 20.086C107.185 21.446 108.001 22.806 109.531 23.452L114.325 25.56C115.481 26.07 116.399 26.818 116.399 27.94C116.399 29.538 115.039 30.796 113.101 30.83C111.231 30.83 109.157 29.912 108.885 27.566L107.151 29.062C108.647 30.422 110.721 31.17 113.033 31.17ZM145.777 31C145.063 30.592 144.723 28.994 144.723 27.124V23.452C144.723 18.59 142.649 16.04 139.113 16.04C136.291 16.04 134.829 18.522 134.285 19.644C133.435 17.264 131.667 16.04 129.253 16.04C126.737 16.04 125.581 17.74 124.969 18.794V16.04C124.867 16.074 123.303 17.06 121.161 17.366C121.501 17.536 121.773 18.012 121.943 18.692C122.113 19.372 122.181 20.256 122.181 21.242V27.124C122.181 28.994 121.875 30.558 121.161 31H126.023C125.309 30.592 124.969 28.994 124.969 27.124V19.304C125.241 18.998 126.193 16.822 128.165 16.686H128.471C129.729 16.686 132.075 17.23 132.075 23.52V27.124C132.075 28.994 131.769 30.558 131.021 31H135.917C135.169 30.592 134.863 28.994 134.863 27.124V23.452C134.863 22.16 134.693 21.038 134.421 20.086C134.897 18.964 136.291 16.686 138.059 16.686H138.093C139.215 16.686 141.969 16.72 141.969 23.52V27.124C141.969 28.994 141.629 30.558 140.915 31H145.777ZM162.876 23.316C162.808 18.692 159.544 16.04 155.498 16.04C151.452 16.04 148.154 18.794 148.154 23.486C148.154 28.382 151.452 31.17 155.498 31.17C157.98 31.17 160.156 30.15 161.516 28.246C161.516 28.246 159.646 30.252 156.552 30.252C156.212 30.252 155.872 30.218 155.532 30.184C152.982 29.844 151.146 27.974 151.146 23.486V23.316H162.876ZM155.532 16.38C158.116 16.38 159.782 18.726 159.918 22.976H151.146C151.282 18.862 152.914 16.38 155.532 16.38Z"/>
</mask>
<path d="M52.346 8.254H50.51C51.224 8.662 51.564 10.192 51.564 12.164V27.124C51.564 28.994 51.258 30.592 50.51 31H58.534C64.926 31 67.884 27.022 67.884 19.644C67.884 12.436 64.552 8.288 58.534 8.288L52.346 8.254ZM56.222 30.66C55.406 30.66 54.692 30.082 54.522 29.266C54.42 28.654 54.352 27.906 54.352 27.124V12.164C54.352 11.382 54.386 10.634 54.488 10.022C54.658 9.206 55.372 8.628 56.222 8.628H58.058C62.852 8.628 64.756 12.606 64.756 19.644C64.756 26.818 62.818 30.66 58.194 30.66H56.222ZM83.3885 16.006C79.3085 16.006 76.0105 18.794 76.0105 23.486C76.0105 28.382 79.3085 31.17 83.3885 31.17C85.8705 31.17 88.0465 30.15 89.3725 28.246C89.3725 28.246 87.5365 30.252 84.4085 30.252C84.0685 30.252 83.7285 30.218 83.3885 30.184C80.8385 29.844 79.0025 27.974 79.0025 23.486V23.316H90.7665C90.6645 18.692 87.4005 16.006 83.3885 16.006ZM79.0025 22.976C79.1385 18.862 80.8045 16.38 83.3885 16.38C85.9725 16.38 87.6385 18.726 87.7745 22.976H79.0025ZM74.0725 20.596C74.2425 19.882 75.4665 16.38 79.0705 15.088C79.8525 14.816 81.1785 14.51 82.6405 14.51C84.0345 14.51 85.5645 14.782 86.7885 15.598L87.6045 13.15C86.8905 13.048 86.1765 12.98 85.4285 12.98C83.2185 12.98 81.0085 13.49 79.2745 14.204C76.3505 15.462 74.4125 18.318 74.0725 19.746V16.006C73.9705 16.074 72.4065 17.06 70.2645 17.332C70.6045 17.536 70.8765 18.012 71.0465 18.692C71.2165 19.372 71.3185 20.256 71.3185 21.242V27.09C71.3185 28.994 70.9785 30.558 70.2645 31H75.1265C74.4125 30.592 74.0725 28.96 74.0725 27.09V20.596ZM99.0222 31.17C100.858 31.17 104.768 30.252 104.768 26.92C104.768 25.458 103.918 24.03 102.252 23.316L97.8322 21.378C96.6762 20.868 95.9282 20.324 95.9282 19.032C95.9282 17.536 97.1862 16.414 98.9542 16.38C100.654 16.38 102.116 17.06 102.592 18.93L104.122 17.468C102.728 16.516 100.96 16.04 99.0222 16.04C94.3982 16.04 93.1742 18.794 93.1742 20.086C93.1742 21.446 93.9902 22.806 95.5202 23.452L100.314 25.56C101.47 26.07 102.388 26.818 102.388 27.94C102.388 29.538 101.028 30.796 99.0902 30.83C97.2202 30.83 95.1462 29.912 94.8742 27.566L93.1402 29.062C94.6362 30.422 96.7102 31.17 99.0222 31.17ZM113.033 31.17C114.869 31.17 118.779 30.252 118.779 26.92C118.779 25.458 117.929 24.03 116.263 23.316L111.843 21.378C110.687 20.868 109.939 20.324 109.939 19.032C109.939 17.536 111.197 16.414 112.965 16.38C114.665 16.38 116.127 17.06 116.603 18.93L118.133 17.468C116.739 16.516 114.971 16.04 113.033 16.04C108.409 16.04 107.185 18.794 107.185 20.086C107.185 21.446 108.001 22.806 109.531 23.452L114.325 25.56C115.481 26.07 116.399 26.818 116.399 27.94C116.399 29.538 115.039 30.796 113.101 30.83C111.231 30.83 109.157 29.912 108.885 27.566L107.151 29.062C108.647 30.422 110.721 31.17 113.033 31.17ZM145.777 31C145.063 30.592 144.723 28.994 144.723 27.124V23.452C144.723 18.59 142.649 16.04 139.113 16.04C136.291 16.04 134.829 18.522 134.285 19.644C133.435 17.264 131.667 16.04 129.253 16.04C126.737 16.04 125.581 17.74 124.969 18.794V16.04C124.867 16.074 123.303 17.06 121.161 17.366C121.501 17.536 121.773 18.012 121.943 18.692C122.113 19.372 122.181 20.256 122.181 21.242V27.124C122.181 28.994 121.875 30.558 121.161 31H126.023C125.309 30.592 124.969 28.994 124.969 27.124V19.304C125.241 18.998 126.193 16.822 128.165 16.686H128.471C129.729 16.686 132.075 17.23 132.075 23.52V27.124C132.075 28.994 131.769 30.558 131.021 31H135.917C135.169 30.592 134.863 28.994 134.863 27.124V23.452C134.863 22.16 134.693 21.038 134.421 20.086C134.897 18.964 136.291 16.686 138.059 16.686H138.093C139.215 16.686 141.969 16.72 141.969 23.52V27.124C141.969 28.994 141.629 30.558 140.915 31H145.777ZM162.876 23.316C162.808 18.692 159.544 16.04 155.498 16.04C151.452 16.04 148.154 18.794 148.154 23.486C148.154 28.382 151.452 31.17 155.498 31.17C157.98 31.17 160.156 30.15 161.516 28.246C161.516 28.246 159.646 30.252 156.552 30.252C156.212 30.252 155.872 30.218 155.532 30.184C152.982 29.844 151.146 27.974 151.146 23.486V23.316H162.876ZM155.532 16.38C158.116 16.38 159.782 18.726 159.918 22.976H151.146C151.282 18.862 152.914 16.38 155.532 16.38Z" fill="#007DCA"/>
<path d="M52.346 8.254L52.3476 7.954H52.346V8.254ZM50.51 8.254V7.954H49.3803L50.3612 8.51447L50.51 8.254ZM50.51 31L50.3663 30.7366L50.51 31.3V31ZM58.534 8.288L58.5324 8.588H58.534V8.288ZM54.522 29.266L54.2258 29.3154L54.2283 29.3272L54.522 29.266ZM54.488 10.022L54.1941 9.96076L54.1921 9.97268L54.488 10.022ZM52.346 7.954H50.51V8.554H52.346V7.954ZM50.3612 8.51447C50.6057 8.65422 50.8436 9.03137 51.0141 9.69697C51.1799 10.3438 51.264 11.192 51.264 12.164H51.864C51.864 11.164 51.7781 10.2612 51.5954 9.54803C51.4174 8.85362 51.1283 8.26178 50.6588 7.99353L50.3612 8.51447ZM51.264 12.164V27.124H51.864V12.164H51.264ZM51.264 27.124C51.264 28.0461 51.1882 28.8863 51.0264 29.5379C50.8593 30.2105 50.6211 30.5977 50.3663 30.7366L50.6537 31.2634C51.1469 30.9943 51.4357 30.3785 51.6086 29.6826C51.7868 28.9657 51.864 28.0719 51.864 27.124H51.264ZM50.51 31.3H58.534V30.7H50.51V31.3ZM58.534 31.3C61.7958 31.3 64.2304 30.2818 65.84 28.2765C67.4394 26.2839 68.184 23.3652 68.184 19.644H67.584C67.584 23.3008 66.8496 26.0601 65.372 27.901C63.9046 29.7292 61.6642 30.7 58.534 30.7V31.3ZM68.184 19.644C68.184 15.9987 67.342 13.0829 65.698 11.0731C64.0465 9.05413 61.6174 7.988 58.534 7.988V8.588C61.4686 8.588 63.7145 9.59586 65.2335 11.4529C66.76 13.3191 67.584 16.0813 67.584 19.644H68.184ZM58.5356 7.988L52.3476 7.954L52.3444 8.55399L58.5324 8.58799L58.5356 7.988ZM56.222 30.36C55.5493 30.36 54.957 29.8828 54.8157 29.2048L54.2283 29.3272C54.4271 30.2812 55.2627 30.96 56.222 30.96V30.36ZM54.8179 29.2167C54.7187 28.6211 54.652 27.8896 54.652 27.124H54.052C54.052 27.9224 54.1213 28.6869 54.2261 29.3153L54.8179 29.2167ZM54.652 27.124V12.164H54.052V27.124H54.652ZM54.652 12.164C54.652 11.3876 54.686 10.6589 54.7839 10.0713L54.1921 9.97268C54.086 10.6091 54.052 11.3764 54.052 12.164H54.652ZM54.7817 10.0832C54.9222 9.40861 55.5117 8.928 56.222 8.928V8.328C55.2323 8.328 54.3938 9.00339 54.1943 9.96081L54.7817 10.0832ZM56.222 8.928H58.058V8.328H56.222V8.928ZM58.058 8.928C59.2143 8.928 60.1793 9.16755 60.9792 9.62057C61.7785 10.0733 62.4297 10.7486 62.9445 11.646C63.9802 13.4513 64.456 16.1412 64.456 19.644H65.056C65.056 16.1088 64.5798 13.2907 63.465 11.3475C62.9046 10.3706 62.1808 9.61158 61.2749 9.09849C60.3695 8.5857 59.2987 8.328 58.058 8.328V8.928ZM64.456 19.644C64.456 23.2149 63.9717 25.9049 62.9486 27.6933C62.44 28.5822 61.8005 29.2447 61.022 29.6867C60.2429 30.129 59.3077 30.36 58.194 30.36V30.96C59.3923 30.96 60.4334 30.7108 61.3182 30.2085C62.2035 29.7059 62.9155 28.9595 63.4694 27.9912C64.5713 26.0651 65.056 23.2471 65.056 19.644H64.456ZM58.194 30.36H56.222V30.96H58.194V30.36ZM89.3725 28.246L89.6187 28.4174L89.1512 28.0435L89.3725 28.246ZM83.3885 30.184L83.3489 30.4815L83.3587 30.4825L83.3885 30.184ZM79.0025 23.316V23.016H78.7025V23.316H79.0025ZM90.7665 23.316V23.616H91.0732L91.0665 23.3094L90.7665 23.316ZM79.0025 22.976L78.7027 22.9661L78.6925 23.276H79.0025V22.976ZM87.7745 22.976V23.276H88.0843L88.0744 22.9664L87.7745 22.976ZM74.0725 20.596L73.7807 20.5265L73.7725 20.5608V20.596H74.0725ZM79.0705 15.088L78.972 14.8046L78.9693 14.8056L79.0705 15.088ZM86.7885 15.598L86.6221 15.8476L86.9489 16.0655L87.0731 15.6929L86.7885 15.598ZM87.6045 13.15L87.8891 13.2449L88.0028 12.9038L87.647 12.853L87.6045 13.15ZM79.2745 14.204L79.1603 13.9266L79.156 13.9284L79.2745 14.204ZM74.0725 19.746H73.7725L74.3644 19.8155L74.0725 19.746ZM74.0725 16.006H74.3725V15.4454L73.9061 15.7564L74.0725 16.006ZM70.2645 17.332L70.2267 17.0344L69.3673 17.1435L70.1102 17.5892L70.2645 17.332ZM71.0465 18.692L71.3376 18.6192L71.0465 18.692ZM70.2645 31L70.1066 30.7449L69.21 31.3H70.2645V31ZM75.1265 31V31.3H76.2562L75.2754 30.7395L75.1265 31ZM83.3885 15.706C81.2801 15.706 79.3582 16.427 77.9616 17.7703C76.5628 19.1156 75.7105 21.0663 75.7105 23.486H76.3105C76.3105 21.2137 77.1072 19.4244 78.3775 18.2027C79.6499 16.979 81.417 16.306 83.3885 16.306V15.706ZM75.7105 23.486C75.7105 26.0041 76.5604 28.0058 77.9595 29.3782C79.3568 30.7488 81.2799 31.47 83.3885 31.47V30.87C81.4172 30.87 79.6513 30.1972 78.3796 28.9498C77.1097 27.7042 76.3105 25.8639 76.3105 23.486H75.7105ZM83.3885 31.47C85.9543 31.47 88.2289 30.4131 89.6187 28.4174L89.1264 28.0746C87.8642 29.8869 85.7868 30.87 83.3885 30.87V31.47ZM89.3725 28.246C89.1512 28.0435 89.1513 28.0434 89.1514 28.0433C89.1514 28.0433 89.1515 28.0432 89.1515 28.0432C89.1515 28.0431 89.1516 28.0431 89.1516 28.0431C89.1516 28.0431 89.1515 28.0432 89.1512 28.0434C89.1508 28.0439 89.1499 28.0448 89.1486 28.0462C89.146 28.049 89.1416 28.0536 89.1355 28.06C89.1233 28.0726 89.1041 28.092 89.0782 28.1173C89.0263 28.1678 88.9473 28.2416 88.8424 28.331C88.6322 28.5098 88.3189 28.75 87.9111 28.9906C87.0953 29.4719 85.9066 29.952 84.4085 29.952V30.552C86.0385 30.552 87.3317 30.0291 88.216 29.5074C88.6581 29.2465 88.9993 28.9852 89.2312 28.7879C89.3472 28.6892 89.4361 28.6063 89.4969 28.5471C89.5272 28.5175 89.5506 28.4938 89.5668 28.4771C89.5749 28.4687 89.5812 28.4621 89.5857 28.4573C89.588 28.4549 89.5898 28.4529 89.5911 28.4515C89.5918 28.4507 89.5924 28.4501 89.5928 28.4496C89.593 28.4494 89.5932 28.4492 89.5934 28.449C89.5935 28.4489 89.5936 28.4488 89.5936 28.4488C89.5937 28.4486 89.5938 28.4485 89.3725 28.246ZM84.4085 29.952C84.086 29.952 83.7609 29.9197 83.4184 29.8855L83.3587 30.4825C83.6961 30.5163 84.0511 30.552 84.4085 30.552V29.952ZM83.4282 29.8866C82.2199 29.7255 81.2034 29.2076 80.482 28.2142C79.7547 27.2126 79.3025 25.6935 79.3025 23.486H78.7025C78.7025 25.7665 79.1684 27.4264 79.9965 28.5668C80.8306 29.7154 82.0072 30.3025 83.3489 30.4814L83.4282 29.8866ZM79.3025 23.486V23.316H78.7025V23.486H79.3025ZM79.0025 23.616H90.7665V23.016H79.0025V23.616ZM91.0665 23.3094C91.0139 20.9248 90.1436 19.0181 88.7492 17.7083C87.3568 16.4005 85.4615 15.706 83.3885 15.706V16.306C85.3276 16.306 87.0702 16.9545 88.3384 18.1457C89.6044 19.3349 90.4172 21.0832 90.4666 23.3226L91.0665 23.3094ZM79.3024 22.9859C79.3693 20.9618 79.8123 19.374 80.5271 18.3017C81.2347 17.2403 82.2084 16.68 83.3885 16.68V16.08C81.9847 16.08 80.8333 16.7607 80.0279 17.9688C79.2298 19.166 78.7718 20.8762 78.7027 22.9661L79.3024 22.9859ZM83.3885 16.68C84.5747 16.68 85.5468 17.2118 86.2511 18.2524C86.9641 19.3059 87.4077 20.8919 87.4747 22.9856L88.0744 22.9664C88.0054 20.8101 87.548 19.0981 86.748 17.9161C85.9393 16.7212 84.7864 16.08 83.3885 16.08V16.68ZM87.7745 22.676H79.0025V23.276H87.7745V22.676ZM74.3644 20.6655C74.4417 20.3409 74.7761 19.3218 75.5306 18.2292C76.283 17.1398 77.4438 15.9899 79.1718 15.3704L78.9693 14.8056C77.0933 15.4781 75.8401 16.7252 75.0369 17.8883C74.236 19.0482 73.8734 20.1371 73.7807 20.5265L74.3644 20.6655ZM79.1691 15.3713C79.9239 15.1088 81.2165 14.81 82.6405 14.81V14.21C81.1406 14.21 79.7812 14.5232 78.972 14.8047L79.1691 15.3713ZM82.6405 14.81C84.0023 14.81 85.4659 15.0768 86.6221 15.8476L86.9549 15.3484C85.6632 14.4872 84.0668 14.21 82.6405 14.21V14.81ZM87.0731 15.6929L87.8891 13.2449L87.3199 13.0551L86.5039 15.5031L87.0731 15.6929ZM87.647 12.853C86.9237 12.7497 86.1949 12.68 85.4285 12.68V13.28C86.1582 13.28 86.8574 13.3463 87.5621 13.447L87.647 12.853ZM85.4285 12.68C83.1757 12.68 80.927 13.1991 79.1603 13.9266L79.3888 14.4814C81.09 13.7809 83.2613 13.28 85.4285 13.28V12.68ZM79.156 13.9284C77.6421 14.5797 76.3909 15.6408 75.476 16.7169C74.5657 17.7876 73.9655 18.9005 73.7807 19.6765L74.3644 19.8155C74.5196 19.1635 75.0584 18.1344 75.9331 17.1056C76.8031 16.0822 77.983 15.0863 79.3931 14.4796L79.156 13.9284ZM74.3725 19.746V16.006H73.7725V19.746H74.3725ZM73.9061 15.7564C73.8241 15.8111 72.3048 16.7705 70.2267 17.0344L70.3023 17.6296C72.5083 17.3495 74.117 16.3369 74.2389 16.2556L73.9061 15.7564ZM70.1102 17.5892C70.3449 17.7301 70.5909 18.1062 70.7555 18.7648L71.3376 18.6192C71.1622 17.9178 70.8642 17.3419 70.4189 17.0748L70.1102 17.5892ZM70.7555 18.7648C70.9182 19.4158 71.0185 20.2746 71.0185 21.242H71.6185C71.6185 20.2374 71.5148 19.3282 71.3376 18.6192L70.7555 18.7648ZM71.0185 21.242V27.09H71.6185V21.242H71.0185ZM71.0185 27.09C71.0185 28.0271 70.9346 28.8673 70.7686 29.5192C70.5979 30.1893 70.3586 30.589 70.1066 30.7449L70.4224 31.2551C70.8845 30.969 71.1721 30.3657 71.35 29.6673C71.5325 28.9507 71.6185 28.0569 71.6185 27.09H71.0185ZM70.2645 31.3H75.1265V30.7H70.2645V31.3ZM75.2754 30.7395C75.1615 30.6745 75.0402 30.5467 74.9233 30.3349C74.8074 30.125 74.7059 29.8506 74.6227 29.5201C74.4564 28.859 74.3725 28.0098 74.3725 27.09H73.7725C73.7725 28.0402 73.8586 28.942 74.0408 29.6664C74.1319 30.0286 74.2493 30.3556 74.398 30.6249C74.5456 30.8923 74.7346 31.1215 74.9777 31.2605L75.2754 30.7395ZM74.3725 27.09V20.596H73.7725V27.09H74.3725ZM102.252 23.316L102.132 23.5908L102.134 23.5917L102.252 23.316ZM97.8322 21.378L97.7111 21.6525L97.7117 21.6528L97.8322 21.378ZM98.9542 16.38V16.0799L98.9484 16.0801L98.9542 16.38ZM102.592 18.93L102.301 19.004L102.428 19.5017L102.799 19.1469L102.592 18.93ZM104.122 17.468L104.329 17.6849L104.597 17.4291L104.291 17.2203L104.122 17.468ZM95.5202 23.452L95.6409 23.1773L95.6368 23.1756L95.5202 23.452ZM100.314 25.56L100.435 25.2855L100.435 25.2854L100.314 25.56ZM99.0902 30.83V31.13L99.0954 31.13L99.0902 30.83ZM94.8742 27.566L95.1722 27.5314L95.1069 26.9689L94.6782 27.3389L94.8742 27.566ZM93.1402 29.062L92.9442 28.8349L92.6877 29.0561L92.9384 29.284L93.1402 29.062ZM99.0222 31.47C99.9773 31.47 101.465 31.2335 102.725 30.559C103.995 29.8794 105.068 28.7312 105.068 26.92H104.468C104.468 28.4408 103.586 29.4176 102.442 30.03C101.288 30.6475 99.903 30.87 99.0222 30.87V31.47ZM105.068 26.92C105.068 25.3348 104.144 23.8003 102.37 23.0403L102.134 23.5917C103.693 24.2597 104.468 25.5812 104.468 26.92H105.068ZM102.373 23.0413L97.9526 21.1032L97.7117 21.6528L102.132 23.5907L102.373 23.0413ZM97.9533 21.1035C97.3821 20.8515 96.9549 20.6084 96.6677 20.2954C96.3926 19.9957 96.2282 19.6117 96.2282 19.032H95.6282C95.6282 19.7443 95.8377 20.2783 96.2256 20.7011C96.6014 21.1106 97.1263 21.3945 97.7111 21.6525L97.9533 21.1035ZM96.2282 19.032C96.2282 17.7387 97.3131 16.7116 98.9599 16.6799L98.9484 16.0801C97.0593 16.1164 95.6282 17.3333 95.6282 19.032H96.2282ZM98.9542 16.68C99.7673 16.68 100.497 16.843 101.072 17.2072C101.64 17.567 102.081 18.1376 102.301 19.004L102.883 18.856C102.627 17.8523 102.1 17.148 101.393 16.7003C100.693 16.257 99.841 16.08 98.9542 16.08V16.68ZM102.799 19.1469L104.329 17.6849L103.915 17.2511L102.385 18.7131L102.799 19.1469ZM104.291 17.2203C102.838 16.2277 101.008 15.74 99.0222 15.74V16.34C100.913 16.34 102.618 16.8043 103.953 17.7157L104.291 17.2203ZM99.0222 15.74C96.6479 15.74 95.1062 16.4488 94.1562 17.3622C93.2132 18.269 92.8742 19.3586 92.8742 20.086H93.4742C93.4742 19.5214 93.7471 18.588 94.5721 17.7947C95.3901 17.0082 96.7725 16.34 99.0222 16.34V15.74ZM92.8742 20.086C92.8742 21.5685 93.7642 23.0362 95.4035 23.7284L95.6368 23.1756C94.2162 22.5758 93.4742 21.3235 93.4742 20.086H92.8742ZM95.3994 23.7266L100.193 25.8346L100.435 25.2854L95.6409 23.1774L95.3994 23.7266ZM100.193 25.8345C101.332 26.3371 102.088 27.0124 102.088 27.94H102.688C102.688 26.6236 101.608 25.8029 100.435 25.2855L100.193 25.8345ZM102.088 27.94C102.088 29.3383 100.898 30.4982 99.0849 30.53L99.0954 31.13C101.158 31.0938 102.688 29.7377 102.688 27.94H102.088ZM99.0902 30.53C98.1995 30.53 97.275 30.3106 96.549 29.8279C95.8317 29.351 95.2974 28.6115 95.1722 27.5314L94.5762 27.6006C94.7229 28.8665 95.3616 29.759 96.2168 30.3276C97.0633 30.8904 98.1109 31.13 99.0902 31.13V30.53ZM94.6782 27.3389L92.9442 28.8349L93.3361 29.2891L95.0701 27.7931L94.6782 27.3389ZM92.9384 29.284C94.497 30.701 96.6463 31.47 99.0222 31.47V30.87C96.7741 30.87 94.7753 30.143 93.342 28.84L92.9384 29.284ZM116.263 23.316L116.142 23.5908L116.144 23.5917L116.263 23.316ZM111.843 21.378L111.721 21.6525L111.722 21.6528L111.843 21.378ZM112.965 16.38V16.0799L112.959 16.0801L112.965 16.38ZM116.603 18.93L116.312 19.004L116.439 19.5017L116.81 19.1469L116.603 18.93ZM118.133 17.468L118.34 17.6849L118.608 17.4291L118.302 17.2203L118.133 17.468ZM109.531 23.452L109.651 23.1773L109.647 23.1756L109.531 23.452ZM114.325 25.56L114.446 25.2855L114.445 25.2854L114.325 25.56ZM113.101 30.83V31.13L113.106 31.13L113.101 30.83ZM108.885 27.566L109.183 27.5314L109.117 26.9689L108.689 27.3389L108.885 27.566ZM107.151 29.062L106.955 28.8349L106.698 29.0561L106.949 29.284L107.151 29.062ZM113.033 31.47C113.988 31.47 115.475 31.2335 116.736 30.559C118.005 29.8794 119.079 28.7312 119.079 26.92H118.479C118.479 28.4408 117.597 29.4176 116.452 30.03C115.299 30.6475 113.913 30.87 113.033 30.87V31.47ZM119.079 26.92C119.079 25.3348 118.154 23.8003 116.381 23.0403L116.144 23.5917C117.703 24.2597 118.479 25.5812 118.479 26.92H119.079ZM116.383 23.0413L111.963 21.1032L111.722 21.6528L116.142 23.5907L116.383 23.0413ZM111.964 21.1035C111.392 20.8515 110.965 20.6084 110.678 20.2954C110.403 19.9957 110.239 19.6117 110.239 19.032H109.639C109.639 19.7443 109.848 20.2783 110.236 20.7011C110.612 21.1106 111.137 21.3945 111.721 21.6525L111.964 21.1035ZM110.239 19.032C110.239 17.7387 111.323 16.7116 112.97 16.6799L112.959 16.0801C111.07 16.1164 109.639 17.3333 109.639 19.032H110.239ZM112.965 16.68C113.778 16.68 114.507 16.843 115.082 17.2072C115.65 17.567 116.091 18.1376 116.312 19.004L116.893 18.856C116.638 17.8523 116.11 17.148 115.403 16.7003C114.703 16.257 113.851 16.08 112.965 16.08V16.68ZM116.81 19.1469L118.34 17.6849L117.925 17.2511L116.395 18.7131L116.81 19.1469ZM118.302 17.2203C116.848 16.2277 115.018 15.74 113.033 15.74V16.34C114.923 16.34 116.629 16.8043 117.963 17.7157L118.302 17.2203ZM113.033 15.74C110.658 15.74 109.117 16.4488 108.167 17.3622C107.224 18.269 106.885 19.3586 106.885 20.086H107.485C107.485 19.5214 107.757 18.588 108.582 17.7947C109.401 17.0082 110.783 16.34 113.033 16.34V15.74ZM106.885 20.086C106.885 21.5685 107.775 23.0362 109.414 23.7284L109.647 23.1756C108.227 22.5758 107.485 21.3235 107.485 20.086H106.885ZM109.41 23.7266L114.204 25.8346L114.445 25.2854L109.651 23.1774L109.41 23.7266ZM114.203 25.8345C115.343 26.3371 116.099 27.0124 116.099 27.94H116.699C116.699 26.6236 115.618 25.8029 114.446 25.2855L114.203 25.8345ZM116.099 27.94C116.099 29.3383 114.908 30.4982 113.095 30.53L113.106 31.13C115.169 31.0938 116.699 29.7377 116.699 27.94H116.099ZM113.101 30.53C112.21 30.53 111.285 30.3106 110.559 29.8279C109.842 29.351 109.308 28.6115 109.183 27.5314L108.587 27.6006C108.733 28.8665 109.372 29.759 110.227 30.3276C111.074 30.8904 112.121 31.13 113.101 31.13V30.53ZM108.689 27.3389L106.955 28.8349L107.347 29.2891L109.081 27.7931L108.689 27.3389ZM106.949 29.284C108.507 30.701 110.657 31.47 113.033 31.47V30.87C110.784 30.87 108.786 30.143 107.352 28.84L106.949 29.284ZM145.777 31V31.3H146.907L145.926 30.7395L145.777 31ZM134.285 19.644L134.002 19.7449L134.243 20.4183L134.555 19.7749L134.285 19.644ZM124.969 18.794H124.669V19.9081L125.228 18.9446L124.969 18.794ZM124.969 16.04H125.269V15.6238L124.874 15.7554L124.969 16.04ZM121.161 17.366L121.119 17.069L120.168 17.2048L121.027 17.6343L121.161 17.366ZM121.943 18.692L122.234 18.6192L121.943 18.692ZM121.161 31L121.003 30.7449L120.106 31.3H121.161V31ZM126.023 31V31.3H127.153L126.172 30.7395L126.023 31ZM124.969 19.304L124.745 19.1047L124.669 19.1899V19.304H124.969ZM128.165 16.686V16.386H128.155L128.144 16.3867L128.165 16.686ZM131.021 31L130.868 30.7417L129.924 31.3H131.021V31ZM135.917 31V31.3L136.061 30.7366L135.917 31ZM134.421 20.086L134.145 19.9688L134.103 20.0665L134.132 20.1684L134.421 20.086ZM140.915 31L140.757 30.7449L139.86 31.3H140.915V31ZM145.926 30.7395C145.811 30.6737 145.689 30.5469 145.573 30.3387C145.457 30.1321 145.356 29.8622 145.273 29.5362C145.107 28.8841 145.023 28.0439 145.023 27.124H144.423C144.423 28.0741 144.509 28.9679 144.691 29.6843C144.783 30.0425 144.9 30.3655 145.049 30.6317C145.197 30.8964 145.386 31.1223 145.628 31.2605L145.926 30.7395ZM145.023 27.124V23.452H144.423V27.124H145.023ZM145.023 23.452C145.023 20.9844 144.497 19.0567 143.481 17.7395C142.456 16.4105 140.96 15.74 139.113 15.74V16.34C140.801 16.34 142.11 16.9445 143.006 18.106C143.911 19.2793 144.423 21.0576 144.423 23.452H145.023ZM139.113 15.74C136.094 15.74 134.559 18.3907 134.015 19.5131L134.555 19.7749C135.099 18.6533 136.488 16.34 139.113 16.34V15.74ZM134.567 19.5431C134.125 18.3055 133.438 17.3498 132.529 16.7049C131.621 16.0598 130.512 15.74 129.253 15.74V16.34C130.408 16.34 131.39 16.6322 132.182 17.1941C132.973 17.7562 133.594 18.6025 134.002 19.7449L134.567 19.5431ZM129.253 15.74C126.566 15.74 125.332 17.5712 124.71 18.6434L125.228 18.9446C125.83 17.9088 126.908 16.34 129.253 16.34V15.74ZM125.269 18.794V16.04H124.669V18.794H125.269ZM124.874 15.7554C124.84 15.7666 124.806 15.7851 124.794 15.7911C124.774 15.8017 124.749 15.8154 124.721 15.8306C124.664 15.8616 124.588 15.903 124.493 15.9528C124.303 16.0522 124.038 16.1847 123.711 16.3254C123.056 16.6073 122.156 16.9208 121.119 17.069L121.203 17.663C122.308 17.5052 123.261 17.1727 123.949 16.8766C124.293 16.7283 124.572 16.5888 124.771 16.4842C124.871 16.432 124.951 16.3884 125.007 16.3578C125.036 16.3421 125.057 16.3309 125.072 16.3232C125.095 16.3108 125.085 16.3177 125.064 16.3246L124.874 15.7554ZM121.027 17.6343C121.127 17.6842 121.242 17.7933 121.357 17.9892C121.47 18.183 121.572 18.4434 121.652 18.7648L122.234 18.6192C122.144 18.2606 122.025 17.943 121.875 17.6863C121.726 17.4317 121.535 17.2178 121.295 17.0977L121.027 17.6343ZM121.652 18.7648C121.813 19.4096 121.881 20.2651 121.881 21.242H122.481C122.481 20.2469 122.413 19.3344 122.234 18.6192L121.652 18.7648ZM121.881 21.242V27.124H122.481V21.242H121.881ZM121.881 27.124C121.881 28.0458 121.805 28.8782 121.647 29.5265C121.485 30.1935 121.253 30.5903 121.003 30.7449L121.319 31.2551C121.783 30.9677 122.061 30.3615 122.23 29.6685C122.404 28.9568 122.481 28.0722 122.481 27.124H121.881ZM121.161 31.3H126.023V30.7H121.161V31.3ZM126.172 30.7395C126.057 30.6737 125.935 30.5469 125.819 30.3387C125.703 30.1321 125.602 29.8622 125.519 29.5362C125.353 28.8841 125.269 28.0439 125.269 27.124H124.669C124.669 28.0741 124.755 28.9679 124.937 29.6843C125.029 30.0425 125.146 30.3655 125.295 30.6317C125.443 30.8964 125.632 31.1223 125.874 31.2605L126.172 30.7395ZM125.269 27.124V19.304H124.669V27.124H125.269ZM125.193 19.5033C125.247 19.4429 125.305 19.3528 125.358 19.2688C125.418 19.1725 125.479 19.0718 125.559 18.9459C125.714 18.7022 125.911 18.4112 126.156 18.1275C126.65 17.5569 127.313 17.0455 128.186 16.9853L128.144 16.3867C127.045 16.4625 126.246 17.1071 125.703 17.735C125.43 18.0505 125.214 18.3694 125.053 18.6241C124.974 18.7473 124.901 18.8678 124.849 18.9497C124.79 19.0437 124.759 19.0886 124.745 19.1047L125.193 19.5033ZM128.165 16.986H128.471V16.386H128.165V16.986ZM128.471 16.986C129.051 16.986 129.846 17.108 130.511 17.9326C131.191 18.7759 131.775 20.4013 131.775 23.52H132.375C132.375 20.3487 131.786 18.5571 130.978 17.5559C130.156 16.536 129.149 16.386 128.471 16.386V16.986ZM131.775 23.52V27.124H132.375V23.52H131.775ZM131.775 27.124C131.775 28.046 131.699 28.8776 131.537 29.5247C131.371 30.1891 131.133 30.5855 130.868 30.7417L131.174 31.2583C131.657 30.9725 131.946 30.3659 132.119 29.6703C132.298 28.9574 132.375 28.072 132.375 27.124H131.775ZM131.021 31.3H135.917V30.7H131.021V31.3ZM136.061 30.7366C135.806 30.5977 135.568 30.2105 135.401 29.5379C135.239 28.8863 135.163 28.0461 135.163 27.124H134.563C134.563 28.0719 134.64 28.9657 134.818 29.6826C134.991 30.3785 135.28 30.9943 135.773 31.2634L136.061 30.7366ZM135.163 27.124V23.452H134.563V27.124H135.163ZM135.163 23.452C135.163 22.1336 134.989 20.9838 134.709 20.0036L134.132 20.1684C134.396 21.0922 134.563 22.1864 134.563 23.452H135.163ZM134.697 20.2032C134.925 19.665 135.377 18.8445 135.98 18.1642C136.59 17.4759 137.305 16.986 138.059 16.986V16.386C137.045 16.386 136.179 17.0351 135.531 17.7663C134.876 18.5055 134.392 19.385 134.145 19.9688L134.697 20.2032ZM138.059 16.986H138.093V16.386H138.059V16.986ZM138.093 16.986C138.646 16.986 139.5 16.9987 140.236 17.7614C140.984 18.5359 141.669 20.1472 141.669 23.52H142.269C142.269 20.0928 141.577 18.2871 140.668 17.3446C139.746 16.3903 138.662 16.386 138.093 16.386V16.986ZM141.669 23.52V27.124H142.269V23.52H141.669ZM141.669 27.124C141.669 28.0437 141.585 28.8754 141.419 29.523C141.248 30.1889 141.009 30.5888 140.757 30.7449L141.073 31.2551C141.535 30.9692 141.822 30.3661 142 29.672C142.183 28.9596 142.269 28.0742 142.269 27.124H141.669ZM140.915 31.3H145.777V30.7H140.915V31.3ZM162.876 23.316V23.616H163.18L163.176 23.3116L162.876 23.316ZM161.516 28.246L161.76 28.4204L161.296 28.0414L161.516 28.246ZM155.532 30.184L155.492 30.4815L155.502 30.4825L155.532 30.184ZM151.146 23.316V23.016H150.846V23.316H151.146ZM159.918 22.976V23.276H160.228L160.218 22.9664L159.918 22.976ZM151.146 22.976L150.846 22.9661L150.836 23.276H151.146V22.976ZM163.176 23.3116C163.141 20.9262 162.279 19.0267 160.883 17.7246C159.49 16.4249 157.586 15.74 155.498 15.74V16.34C157.456 16.34 159.207 16.9811 160.474 18.1634C161.739 19.3433 162.543 21.0818 162.576 23.3204L163.176 23.3116ZM155.498 15.74C153.407 15.74 151.493 16.4522 150.101 17.7869C148.706 19.1238 147.854 21.0662 147.854 23.486H148.454C148.454 21.2138 149.25 19.4332 150.516 18.2201C151.784 17.0048 153.543 16.34 155.498 16.34V15.74ZM147.854 23.486C147.854 26.0041 148.704 28.0056 150.098 29.3778C151.491 30.7484 153.406 31.47 155.498 31.47V30.87C153.544 30.87 151.787 30.1976 150.519 28.9502C149.253 27.7044 148.454 25.8639 148.454 23.486H147.854ZM155.498 31.47C158.064 31.47 160.337 30.4127 161.76 28.4204L161.272 28.0716C159.975 29.8873 157.895 30.87 155.498 30.87V31.47ZM161.516 28.246C161.296 28.0414 161.296 28.0414 161.296 28.0413C161.296 28.0413 161.297 28.0412 161.297 28.0412C161.297 28.0411 161.297 28.0411 161.297 28.0411C161.297 28.0411 161.297 28.0412 161.296 28.0415C161.296 28.042 161.295 28.0429 161.294 28.0443C161.291 28.0472 161.286 28.0518 161.28 28.0582C161.268 28.0709 161.248 28.0904 161.222 28.1157C161.169 28.1664 161.089 28.2403 160.982 28.3298C160.769 28.5089 160.452 28.7494 160.042 28.9903C159.221 29.4722 158.032 29.952 156.552 29.952V30.552C158.165 30.552 159.458 30.0288 160.346 29.5077C160.79 29.2471 161.134 28.9861 161.368 28.7891C161.486 28.6905 161.576 28.6077 161.637 28.5487C161.668 28.5192 161.691 28.4956 161.708 28.4789C161.716 28.4706 161.722 28.4639 161.727 28.4592C161.729 28.4568 161.731 28.4549 161.732 28.4534C161.733 28.4527 161.734 28.4521 161.734 28.4516C161.734 28.4514 161.735 28.4512 161.735 28.451C161.735 28.4509 161.735 28.4508 161.735 28.4508C161.735 28.4507 161.735 28.4506 161.516 28.246ZM156.552 29.952C156.229 29.952 155.904 29.9197 155.562 29.8855L155.502 30.4825C155.839 30.5163 156.194 30.552 156.552 30.552V29.952ZM155.571 29.8866C154.363 29.7255 153.347 29.2076 152.625 28.2142C151.898 27.2126 151.446 25.6935 151.446 23.486H150.846C150.846 25.7665 151.312 27.4264 152.14 28.5668C152.974 29.7154 154.15 30.3025 155.492 30.4814L155.571 29.8866ZM151.446 23.486V23.316H150.846V23.486H151.446ZM151.146 23.616H162.876V23.016H151.146V23.616ZM155.532 16.68C156.718 16.68 157.69 17.2118 158.394 18.2524C159.107 19.3059 159.551 20.8919 159.618 22.9856L160.218 22.9664C160.149 20.8101 159.691 19.0981 158.891 17.9161C158.083 16.7212 156.93 16.08 155.532 16.08V16.68ZM159.918 22.676H151.146V23.276H159.918V22.676ZM151.446 22.9859C151.513 20.9607 151.947 19.373 152.658 18.301C153.361 17.241 154.334 16.68 155.532 16.68V16.08C154.112 16.08 152.96 16.76 152.158 17.9695C151.364 19.167 150.915 20.8773 150.846 22.9661L151.446 22.9859Z" fill="#007DCA" mask="url(#path-7-outside-1_2288_7410)"/>
</svg>
