<svg width="32" height="32" viewBox="0 0 32 32" fill="none" xmlns="http://www.w3.org/2000/svg">
<path d="M6.66669 13.3334H9.33335C12 13.3334 13.3334 12 13.3334 9.33335V6.66669C13.3334 4.00002 12 2.66669 9.33335 2.66669H6.66669C4.00002 2.66669 2.66669 4.00002 2.66669 6.66669V9.33335C2.66669 12 4.00002 13.3334 6.66669 13.3334Z" stroke="#E17A02" stroke-width="2" stroke-miterlimit="10" stroke-linecap="round" stroke-linejoin="round"/>
<path d="M22.6667 13.3334H25.3334C28 13.3334 29.3334 12 29.3334 9.33335V6.66669C29.3334 4.00002 28 2.66669 25.3334 2.66669H22.6667C20 2.66669 18.6667 4.00002 18.6667 6.66669V9.33335C18.6667 12 20 13.3334 22.6667 13.3334Z" stroke="#E17A02" stroke-width="2" stroke-miterlimit="10" stroke-linecap="round" stroke-linejoin="round"/>
<path d="M22.6667 29.3334H25.3334C28 29.3334 29.3334 28 29.3334 25.3334V22.6667C29.3334 20 28 18.6667 25.3334 18.6667H22.6667C20 18.6667 18.6667 20 18.6667 22.6667V25.3334C18.6667 28 20 29.3334 22.6667 29.3334Z" stroke="#E17A02" stroke-width="2" stroke-miterlimit="10" stroke-linecap="round" stroke-linejoin="round"/>
<path d="M6.66669 29.3334H9.33335C12 29.3334 13.3334 28 13.3334 25.3334V22.6667C13.3334 20 12 18.6667 9.33335 18.6667H6.66669C4.00002 18.6667 2.66669 20 2.66669 22.6667V25.3334C2.66669 28 4.00002 29.3334 6.66669 29.3334Z" stroke="#E17A02" stroke-width="2" stroke-miterlimit="10" stroke-linecap="round" stroke-linejoin="round"/>
</svg>
