<svg width="32" height="32" viewBox="0 0 32 32" fill="none" xmlns="http://www.w3.org/2000/svg">
<path d="M6.66666 13.3334H9.33332C12 13.3334 13.3333 12 13.3333 9.33335V6.66669C13.3333 4.00002 12 2.66669 9.33332 2.66669H6.66666C3.99999 2.66669 2.66666 4.00002 2.66666 6.66669V9.33335C2.66666 12 3.99999 13.3334 6.66666 13.3334Z" stroke="#007DCA" stroke-width="2" stroke-miterlimit="10" stroke-linecap="round" stroke-linejoin="round"/>
<path d="M22.6667 13.3334H25.3333C28 13.3334 29.3333 12 29.3333 9.33335V6.66669C29.3333 4.00002 28 2.66669 25.3333 2.66669H22.6667C20 2.66669 18.6667 4.00002 18.6667 6.66669V9.33335C18.6667 12 20 13.3334 22.6667 13.3334Z" stroke="#007DCA" stroke-width="2" stroke-miterlimit="10" stroke-linecap="round" stroke-linejoin="round"/>
<path d="M22.6667 29.3334H25.3333C28 29.3334 29.3333 28 29.3333 25.3334V22.6667C29.3333 20 28 18.6667 25.3333 18.6667H22.6667C20 18.6667 18.6667 20 18.6667 22.6667V25.3334C18.6667 28 20 29.3334 22.6667 29.3334Z" stroke="#007DCA" stroke-width="2" stroke-miterlimit="10" stroke-linecap="round" stroke-linejoin="round"/>
<path d="M6.66666 29.3334H9.33332C12 29.3334 13.3333 28 13.3333 25.3334V22.6667C13.3333 20 12 18.6667 9.33332 18.6667H6.66666C3.99999 18.6667 2.66666 20 2.66666 22.6667V25.3334C2.66666 28 3.99999 29.3334 6.66666 29.3334Z" stroke="#007DCA" stroke-width="2" stroke-miterlimit="10" stroke-linecap="round" stroke-linejoin="round"/>
</svg>
