<svg width="36" height="36" viewBox="0 0 36 36" fill="none" xmlns="http://www.w3.org/2000/svg">
<path d="M14.625 14.7521V14.0246C14.625 12.3371 15.9825 10.6796 17.67 10.5221C19.68 10.3271 21.375 11.9096 21.375 13.8821V14.9171" stroke="white" stroke-width="1.5" stroke-miterlimit="10" stroke-linecap="round" stroke-linejoin="round"/>
<path d="M15.75 25.5H20.25C23.265 25.5 23.805 24.2925 23.9625 22.8225L24.525 18.3225C24.7275 16.4925 24.2025 15 21 15H15C11.7975 15 11.2725 16.4925 11.475 18.3225L12.0375 22.8225C12.195 24.2925 12.735 25.5 15.75 25.5Z" stroke="white" stroke-width="1.5" stroke-miterlimit="10" stroke-linecap="round" stroke-linejoin="round"/>
<path d="M20.6216 18H20.6283" stroke="white" stroke-width="2" stroke-linecap="round" stroke-linejoin="round"/>
<path d="M15.3709 18H15.3776" stroke="white" stroke-width="2" stroke-linecap="round" stroke-linejoin="round"/>
<rect x="6" y="20" width="10" height="10" rx="5" fill="#007DCA"/>
<path d="M8.66663 25H13.3333" stroke="white" stroke-width="1.5" stroke-linecap="round" stroke-linejoin="round"/>
<path d="M11 27.3327V22.666" stroke="white" stroke-width="1.5" stroke-linecap="round" stroke-linejoin="round"/>
</svg>
