<svg width="20" height="20" viewBox="0 0 20 20" fill="none" xmlns="http://www.w3.org/2000/svg">
<path fill-rule="evenodd" clip-rule="evenodd" d="M10 3.33333C10.9205 3.33333 11.6667 2.58714 11.6667 1.66667C11.6667 0.746192 10.9205 0 10 0C9.07954 0 8.33334 0.746192 8.33334 1.66667C8.33334 2.58714 9.07954 3.33333 10 3.33333ZM10 11.6667C10.9205 11.6667 11.6667 10.9205 11.6667 10C11.6667 9.07952 10.9205 8.33333 10 8.33333C9.07954 8.33333 8.33334 9.07952 8.33334 10C8.33334 10.9205 9.07954 11.6667 10 11.6667ZM11.6667 18.3333C11.6667 19.2538 10.9205 20 10 20C9.07954 20 8.33334 19.2538 8.33334 18.3333C8.33334 17.4129 9.07954 16.6667 10 16.6667C10.9205 16.6667 11.6667 17.4129 11.6667 18.3333Z" fill="#161616"/>
</svg>
