<svg width="24" height="24" viewBox="0 0 24 24" fill="none" xmlns="http://www.w3.org/2000/svg">
<path d="M12 2C6.7535 2 2.5 6.2535 2.5 11.5C2.5 16.7465 6.7535 21 12 21C17.2465 21 21.5 16.7465 21.5 11.5C21.5 6.2535 17.2465 2 12 2Z" fill="url(#paint0_linear_2521_15497)"/>
<path opacity="0.05" d="M19.499 11.7425C18.2975 9.3015 13.752 9.503 12.816 12.811C9.2375 12.936 8.9315 18.926 12.5 18.8645C12.9285 18.8645 15.779 18.8645 17.9975 18.8645C19.959 17.265 21.26 14.897 21.461 12.22C21.099 11.888 20.163 11.6095 19.499 11.7425Z" fill="black"/>
<path opacity="0.07" d="M19.4625 11.837C18.1655 9.4065 13.7735 9.7545 12.925 12.8775C9.59 12.9875 9.419 18.381 12.7495 18.4095C13.1945 18.4135 16.512 18.4095 18.452 18.4095C20.133 16.8855 21.2475 14.7425 21.4515 12.3395C21.0285 11.974 20.1485 11.7125 19.4625 11.837Z" fill="black"/>
<path opacity="0.07" d="M19.426 11.9315C18.033 9.511 13.7945 10.0055 13.0345 12.944C9.94301 13.039 9.90751 17.928 13 17.955C13.4615 17.959 17.2455 17.955 18.9075 17.955C20.3085 16.5065 21.236 14.5885 21.443 12.46C20.958 12.0605 20.1335 11.8155 19.426 11.9315Z" fill="black"/>
<path d="M19.75 12C19.6275 12 19.508 12.011 19.3895 12.0265C18.759 11.105 17.7005 10.5 16.5 10.5C14.911 10.5 13.571 11.56 13.144 13.0105C11.952 13.067 11 14.0435 11 15.25C11 16.4925 12.0075 17.5 13.25 17.5C13.7925 17.5 19.1875 17.5 19.75 17.5C21.269 17.5 22.5 16.269 22.5 14.75C22.5 13.231 21.269 12 19.75 12Z" fill="url(#paint1_linear_2521_15497)"/>
<defs>
<linearGradient id="paint0_linear_2521_15497" x1="3.1105" y1="2.6105" x2="18.704" y2="18.204" gradientUnits="userSpaceOnUse">
<stop stop-color="#FED100"/>
<stop offset="1" stop-color="#E36001"/>
</linearGradient>
<linearGradient id="paint1_linear_2521_15497" x1="14.6865" y1="10.334" x2="18.82" y2="19.573" gradientUnits="userSpaceOnUse">
<stop stop-color="#FCFCFC"/>
<stop offset="1" stop-color="#C3C9CD"/>
</linearGradient>
</defs>
</svg>
