<svg width="20" height="20" viewBox="0 0 20 20" fill="none" xmlns="http://www.w3.org/2000/svg">
<path d="M10 15C8.67396 15 7.40219 14.4732 6.46451 13.5355C5.52683 12.5978 5.00004 11.3261 5.00004 10C5.00004 8.67391 5.52683 7.40214 6.46451 6.46446C7.40219 5.52678 8.67396 5 10 5C11.3261 5 12.5979 5.52678 13.5356 6.46446C14.4733 7.40214 15 8.67391 15 10C15 11.3261 14.4733 12.5978 13.5356 13.5355C12.5979 14.4732 11.3261 15 10 15ZM10 13.3333C10.8841 13.3333 11.7319 12.9821 12.3571 12.357C12.9822 11.7319 13.3334 10.8841 13.3334 10C13.3334 9.11594 12.9822 8.26809 12.3571 7.64297C11.7319 7.01785 10.8841 6.66666 10 6.66666C9.11599 6.66666 8.26814 7.01785 7.64302 7.64297C7.0179 8.26809 6.66671 9.11594 6.66671 10C6.66671 10.8841 7.0179 11.7319 7.64302 12.357C8.26814 12.9821 9.11599 13.3333 10 13.3333ZM9.16671 0.833328H10.8334V3.33333H9.16671V0.833328ZM9.16671 16.6667H10.8334V19.1667H9.16671V16.6667ZM2.92921 4.1075L4.10754 2.92916L5.87504 4.69666L4.69671 5.875L2.92921 4.10833V4.1075ZM14.125 15.3033L15.3034 14.125L17.0709 15.8925L15.8925 17.0708L14.125 15.3033ZM15.8925 2.92833L17.0709 4.1075L15.3034 5.875L14.125 4.69666L15.8925 2.92916V2.92833ZM4.69671 14.125L5.87504 15.3033L4.10754 17.0708L2.92921 15.8925L4.69671 14.125ZM19.1667 9.16666V10.8333H16.6667V9.16666H19.1667ZM3.33337 9.16666V10.8333H0.833374V9.16666H3.33337Z" fill="#EAA700"/>
</svg>
