<?xml version="1.0" standalone="no"?>
<!DOCTYPE svg PUBLIC "-//W3C//DTD SVG 20010904//EN"
 "http://www.w3.org/TR/2001/REC-SVG-20010904/DTD/svg10.dtd">
<svg version="1.0" xmlns="http://www.w3.org/2000/svg"
 width="70.000000pt" height="70.000000pt" viewBox="0 0 70.000000 70.000000"
 preserveAspectRatio="xMidYMid meet">
<metadata>
Created by potrace 1.14, written by Peter Selinger 2001-2017
</metadata>
<g transform="translate(0.000000,70.000000) scale(0.100000,-0.100000)"
fill="#000000" stroke="none">
<path d="M253 686 c-103 -34 -176 -98 -222 -196 -22 -46 -26 -69 -26 -140 0
-76 4 -93 33 -152 38 -77 92 -130 171 -167 47 -22 70 -26 141 -26 71 0 94 4
141 26 79 37 133 90 171 167 29 59 33 76 33 152 0 71 -4 94 -26 141 -58 124
-169 199 -302 205 -43 3 -89 -2 -114 -10z m40 -176 c26 -16 47 -34 47 -40 0
-17 34 -11 46 8 11 16 74 58 74 48 0 -2 -16 -14 -36 -27 -26 -16 -34 -26 -30
-40 15 -47 18 -64 9 -51 -17 23 -33 -29 -19 -63 12 -28 13 -26 51 83 l39 112
48 0 c57 0 64 -10 48 -69 -7 -29 -19 -45 -39 -56 -33 -17 -43 -37 -35 -70 4
-17 -12 -49 -63 -129 -37 -58 -70 -106 -73 -106 -3 0 -36 48 -73 106 -57 88
-68 112 -63 136 4 20 0 34 -14 48 -11 11 -24 20 -30 20 -14 0 -27 29 -35 78
l-7 42 54 0 c43 0 64 -6 101 -30z"/>
<path d="M260 513 c0 -4 14 -50 32 -101 24 -71 34 -89 41 -77 5 9 6 32 2 52
-5 31 -8 33 -23 21 -15 -12 -15 -10 1 14 22 34 21 47 0 65 -30 22 -53 34 -53
26z"/>
</g>
</svg>
