<?xml version="1.0" standalone="no"?>
<!DOCTYPE svg PUBLIC "-//W3C//DTD SVG 20010904//EN"
 "http://www.w3.org/TR/2001/REC-SVG-20010904/DTD/svg10.dtd">
<svg version="1.0" xmlns="http://www.w3.org/2000/svg"
 width="260.000000pt" height="260.000000pt" viewBox="0 0 260.000000 260.000000"
 preserveAspectRatio="xMidYMid meet">
<metadata>
Created by potrace 1.14, written by Peter Selinger 2001-2017
</metadata>
<g transform="translate(0.000000,260.000000) scale(0.100000,-0.100000)"
fill="#000000" stroke="none">
<path d="M1125 2590 c-560 -88 -984 -488 -1102 -1040 -28 -131 -25 -382 5
-520 59 -265 178 -476 374 -666 183 -177 390 -286 648 -341 131 -28 382 -25
520 5 512 114 896 504 1007 1022 25 119 25 382 -1 500 -59 270 -169 474 -360
665 -192 191 -397 304 -656 360 -89 19 -350 28 -435 15z m-220 -595 c15 -5 29
-30 52 -98 18 -51 109 -315 204 -587 94 -272 172 -496 174 -498 3 -3 86 227
281 777 78 222 145 405 148 408 9 10 261 15 316 6 l55 -8 3 -73 c2 -53 -4 -98
-22 -167 -42 -156 -44 -160 -130 -200 -86 -41 -142 -96 -152 -151 -7 -39 8
-123 30 -163 12 -22 -3 -48 -257 -437 -149 -228 -271 -413 -272 -412 -6 7
-481 738 -507 780 l-29 46 21 61 c11 33 20 81 20 106 0 39 -6 51 -40 89 -22
23 -69 58 -104 76 -36 18 -72 40 -81 50 -32 35 -82 233 -88 345 l-2 50 60 7
c64 7 287 2 320 -7z m167 -70 c96 -63 198 -162 198 -191 0 -23 3 -24 65 -24
62 0 65 1 65 24 0 31 83 109 200 185 98 65 120 72 120 42 0 -14 -18 -29 -59
-51 -64 -35 -198 -138 -213 -164 -7 -13 4 -45 46 -131 31 -63 56 -121 56 -130
0 -34 -31 -12 -58 42 l-29 57 -33 -98 -32 -97 -65 3 -65 3 -22 70 c-35 109
-39 114 -61 66 -22 -50 -42 -68 -56 -54 -7 7 5 43 39 114 73 152 72 141 10
199 -29 27 -90 73 -135 102 -51 33 -82 60 -82 71 -1 26 28 15 111 -38z m342
-597 c40 -142 41 -121 -15 -294 -45 -142 -68 -198 -69 -168 0 5 -22 80 -49
168 l-48 158 13 72 c24 127 16 116 88 116 l65 0 15 -52z"/>
</g>
</svg>
