<?xml version="1.0" standalone="no"?>
<!DOCTYPE svg PUBLIC "-//W3C//DTD SVG 20010904//EN"
 "http://www.w3.org/TR/2001/REC-SVG-20010904/DTD/svg10.dtd">
<svg version="1.0" xmlns="http://www.w3.org/2000/svg"
 width="640.000000pt" height="640.000000pt" viewBox="0 0 640.000000 640.000000"
 preserveAspectRatio="xMidYMid meet">
<metadata>
Created by potrace 1.14, written by Peter Selinger 2001-2017
</metadata>
<g transform="translate(0.000000,640.000000) scale(0.100000,-0.100000)"
fill="#000000" stroke="none">
<path d="M2885 6385 c-541 -58 -1015 -227 -1455 -520 -691 -460 -1174 -1163
-1354 -1970 -86 -385 -98 -806 -36 -1202 186 -1167 1011 -2144 2131 -2523 148
-50 339 -100 459 -119 36 -6 76 -13 90 -15 229 -40 615 -45 880 -11 767 98
1456 458 1978 1035 743 821 1005 1974 691 3046 -113 389 -291 732 -555 1074
-103 133 -381 415 -502 510 -499 389 -1015 609 -1612 685 -173 23 -550 28
-715 10z"/>
</g>
</svg>
