<svg width="24" height="18" viewBox="0 0 24 18" fill="none" xmlns="http://www.w3.org/2000/svg">
<path d="M0.00292969 6.25886L11.9138 5.48743L23.9944 6.25886V7.04314L22.1172 8.94471L24.0029 10.9581V11.7424L12.1006 12.5653L0.00292969 11.7424V10.9581L1.71722 8.87528L0.00292969 7.04314V6.25886Z" fill="#D80027"/>
<path d="M0.00292969 0.00384521H23.9944V6.25884H0.00292969V0.00384521Z" fill="#338AF3"/>
<path d="M0.00292969 7.04315H23.9944V10.9582H0.00292969V7.04315Z" fill="#EEEEEE"/>
<path d="M0.00292969 11.7424H23.9944V17.9974H0.00292969V11.7424Z" fill="#6DA544"/>
<path d="M5.48832 3.71826C5.48836 3.31669 5.67175 2.92723 6.00798 2.61471C6.34421 2.30219 6.81299 2.08544 7.33632 2.00055C6.9966 1.9491 6.64589 1.9549 6.30953 2.01751C5.97317 2.08012 5.65954 2.19799 5.39133 2.3626C5.12311 2.52721 4.90699 2.73444 4.75859 2.96933C4.61019 3.20422 4.5332 3.46091 4.5332 3.72083C4.5332 3.98076 4.61019 4.23744 4.75859 4.47233C4.90699 4.70722 5.12311 4.91446 5.39133 5.07907C5.65954 5.24367 5.97317 5.36154 6.30953 5.42415C6.64589 5.48677 6.9966 5.49256 7.33632 5.44112C6.81258 5.35494 6.34382 5.13714 6.00772 4.8238C5.67163 4.51047 5.48837 4.12041 5.48832 3.71826ZM8.72146 4.51926L8.87575 4.8844H9.39003L8.96832 5.11326L9.13975 5.4784L8.71803 5.2534L8.31003 5.4784L8.46946 5.11326L8.04775 4.88955H8.56203L8.72146 4.51926ZM10.362 4.51926L10.5215 4.8844H11.0357L10.614 5.11326L10.7735 5.4784L10.3603 5.2534L9.94546 5.47969L10.1169 5.11455L9.68832 4.88955H10.2026L10.362 4.51926ZM12.0026 4.51926L12.174 4.88955H12.6883L12.2666 5.1184L12.438 5.48355L12.0026 5.25469L11.5895 5.47969L11.7489 5.11455L11.3289 4.88955H11.8432L12.0026 4.51926ZM13.6432 4.51926L13.8026 4.8844H14.3169L13.8952 5.11326L14.0666 5.4784L13.6449 5.2534L13.2317 5.4784L13.3912 5.11326L12.9677 4.88955H13.482L13.6432 4.51926ZM15.2837 4.51926L15.4432 4.8844H15.9575L15.5357 5.11326L15.7072 5.4784L15.2855 5.2534L14.8723 5.4784L15.0317 5.11326L14.6169 4.88955H15.1312L15.2837 4.51926ZM10.3637 3.23997L10.5232 3.60512H11.0375L10.6157 3.83398L10.7752 4.19912L10.362 3.97026L9.94546 4.2004L10.1169 3.83526L9.68832 3.60383H10.2026L10.3637 3.23997ZM12.0043 3.23997L12.174 3.60383H12.6883L12.2666 3.83269L12.438 4.19783L12.0026 3.97155L11.5895 4.2004L11.7489 3.83526L11.3289 3.60383H11.8432L12.0043 3.23997ZM13.6449 3.23997L13.8043 3.60512H14.3186L13.8969 3.83398L14.0683 4.19912L13.6466 3.97026L13.2335 4.19912L13.3929 3.83398L12.9677 3.60383H13.482L13.6449 3.23997ZM15.2855 3.23997L15.4449 3.60512H15.9592L15.5375 3.83398L15.7089 4.19912L15.2872 3.97026L14.874 4.19912L15.0335 3.83398L14.6169 3.60383H15.1312L15.2855 3.23997ZM12.0026 1.96198L12.162 2.32712H12.6763L12.2546 2.55212L12.426 2.92112L12.0026 2.69226L11.5895 2.92112L11.7489 2.55212L11.3272 2.32712H11.8415L12.0026 1.96198ZM13.6432 1.96198L13.8026 2.32712H14.3169L13.8952 2.55212L14.0666 2.92112L13.6483 2.69226L13.2352 2.92112L13.3946 2.55212L12.9729 2.32712H13.4872L13.6432 1.96198ZM15.2837 1.96198L15.4432 2.32712H15.9575L15.5357 2.55212L15.7072 2.92112L15.2855 2.69226L14.8723 2.92112L15.0317 2.55212L14.6186 2.32712H15.1329L15.2837 1.96198Z" fill="#EEEEEE"/>
</svg>
