<svg width="18" height="18" viewBox="0 0 18 18" fill="none" xmlns="http://www.w3.org/2000/svg">
<path d="M15.667 9.00002C15.6668 7.51409 15.1702 6.0708 14.2561 4.89935C13.3419 3.72789 12.0626 2.89542 10.6213 2.53413C9.17992 2.17284 7.65919 2.30344 6.30056 2.90519C4.94193 3.50694 3.82327 4.54535 3.12223 5.85551C2.42119 7.16568 2.17796 8.6725 2.43115 10.1367C2.68435 11.6009 3.41946 12.9385 4.51975 13.9372C5.62004 14.9359 7.02244 15.5384 8.50425 15.6489C9.98606 15.7595 11.4623 15.3718 12.6987 14.5475L13.6237 15.9342C12.2555 16.8489 10.6461 17.336 9.00033 17.3334C4.39783 17.3334 0.666992 13.6025 0.666992 9.00002C0.666992 4.39752 4.39783 0.666687 9.00033 0.666687C13.6028 0.666687 17.3337 4.39752 17.3337 9.00002V10.25C17.3337 10.874 17.1337 11.4815 16.763 11.9834C16.3923 12.4853 15.8704 12.855 15.2739 13.0384C14.6775 13.2217 14.038 13.2089 13.4494 13.0019C12.8608 12.7949 12.3541 12.4046 12.0037 11.8884C11.4475 12.4667 10.7361 12.8721 9.95509 13.056C9.17405 13.2398 8.35655 13.1942 7.60079 12.9247C6.84504 12.6551 6.18319 12.1731 5.69475 11.5365C5.20631 10.8999 4.91206 10.1359 4.84736 9.33611C4.78266 8.53634 4.95025 7.7349 5.33001 7.02808C5.70977 6.32126 6.28553 5.73912 6.98813 5.3516C7.69073 4.96409 8.49028 4.78768 9.29071 4.84357C10.0911 4.89947 10.8584 5.18529 11.5003 5.66669H13.167V10.25C13.167 10.5815 13.2987 10.8995 13.5331 11.1339C13.7675 11.3683 14.0855 11.5 14.417 11.5C14.7485 11.5 15.0665 11.3683 15.3009 11.1339C15.5353 10.8995 15.667 10.5815 15.667 10.25V9.00002ZM9.00033 6.50002C8.33728 6.50002 7.7014 6.76341 7.23256 7.23225C6.76372 7.70109 6.50033 8.33698 6.50033 9.00002C6.50033 9.66306 6.76372 10.2989 7.23256 10.7678C7.7014 11.2366 8.33728 11.5 9.00033 11.5C9.66337 11.5 10.2993 11.2366 10.7681 10.7678C11.2369 10.2989 11.5003 9.66306 11.5003 9.00002C11.5003 8.33698 11.2369 7.70109 10.7681 7.23225C10.2993 6.76341 9.66337 6.50002 9.00033 6.50002Z" fill="#D2D2D2"/>
</svg>
