<svg width="24" height="22" viewBox="0 0 24 22" fill="none" xmlns="http://www.w3.org/2000/svg">
<path d="M0.265841 10.3319L10.0053 18.4359L5.38932 8.28929L3.74594 6.869C3.23843 6.4573 2.63424 6.31197 2.00589 6.69945L0.386678 8.61254C0.386678 8.61254 0 9.02421 0 9.50853C0 9.99285 0.265841 10.3319 0.265841 10.3319Z" fill="#FF4949"/>
<rect width="4.94247" height="19.5109" rx="1" transform="matrix(0.890636 0.454718 -0.453264 0.891376 19.5981 2.36108)" fill="#188FEE"/>
<path d="M5.23951 5.13946C5.26851 5.22229 10.5459 16.6565 10.5459 16.6565L10.7545 5.51288L9.86874 3.51613C9.58768 2.92555 9.10487 2.53364 8.37124 2.61216L6.08759 3.63991C6.08759 3.63991 5.56167 3.84455 5.35349 4.28165C5.14531 4.71875 5.2105 5.05663 5.23951 5.13946Z" fill="#11EB26"/>
<path d="M11.9717 2.63495C11.9617 2.72216 11.7303 15.3179 11.7303 15.3179L16.7963 5.39183L16.8439 3.19862C16.893 2.58276 16.6997 2.02578 15.8902 1.73044L13.3878 1.65658C13.3878 1.65658 12.8255 1.61074 12.4478 1.91298C12.0702 2.21523 11.9817 2.54774 11.9717 2.63495Z" fill="#FFB72B"/>
<ellipse cx="14.0896" cy="18.7108" rx="1.20837" ry="1.21081" fill="white"/>
</svg>
