<svg width="16" height="16" viewBox="0 0 16 16" fill="none" xmlns="http://www.w3.org/2000/svg">
<path d="M13 8.33366C13 7.41366 13.7466 6.66699 14.6666 6.66699V6.00033C14.6666 3.33366 14 2.66699 11.3333 2.66699H4.66665C1.99998 2.66699 1.33331 3.33366 1.33331 6.00033V6.33366C2.25331 6.33366 2.99998 7.08033 2.99998 8.00033C2.99998 8.92033 2.25331 9.66699 1.33331 9.66699V10.0003C1.33331 12.667 1.99998 13.3337 4.66665 13.3337H11.3333C14 13.3337 14.6666 12.667 14.6666 10.0003C13.7466 10.0003 13 9.25366 13 8.33366Z" stroke="#D50000" stroke-width="1.5" stroke-linecap="round" stroke-linejoin="round"/>
<path d="M6 9.83301L10 5.83301" stroke="#D50000" stroke-width="1.5" stroke-linecap="round" stroke-linejoin="round"/>
<path d="M9.99636 9.83333H10.0023" stroke="#D50000" stroke-width="2" stroke-linecap="round" stroke-linejoin="round"/>
<path d="M5.99636 6.16634H6.00235" stroke="#D50000" stroke-width="2" stroke-linecap="round" stroke-linejoin="round"/>
</svg>
