<svg width="24" height="24" viewBox="0 0 24 24" fill="none" xmlns="http://www.w3.org/2000/svg">
<path d="M12.0002 1C10.2208 1.00094 8.48163 1.52919 7.00231 2.51803C5.523 3.50687 4.36991 4.91194 3.68872 6.55577C3.00752 8.19959 2.82876 10.0084 3.17503 11.7538C3.52129 13.4991 4.37704 15.1027 5.63419 16.362C7.26419 17.992 11.1002 20.35 11.3272 22.827C11.3612 23.197 11.6302 23.5 12.0002 23.5C12.3702 23.5 12.6402 23.197 12.6732 22.827C12.9002 20.35 16.7332 17.996 18.3622 16.367C19.6208 15.1082 20.478 13.5046 20.8254 11.7587C21.1727 10.0129 20.9947 8.20326 20.3138 6.55857C19.6329 4.91388 18.4797 3.50799 16.9999 2.5186C15.5201 1.52921 13.7803 1.00074 12.0002 1Z" fill="#007DCA"/>
<path d="M11.9999 13.0789C11.5956 13.0789 11.1952 12.9993 10.8216 12.8445C10.4481 12.6898 10.1086 12.463 9.82272 12.1771C9.53681 11.8912 9.31001 11.5517 9.15527 11.1782C9.00054 10.8046 8.9209 10.4042 8.9209 9.9999C8.9209 9.59556 9.00054 9.19518 9.15527 8.82162C9.31001 8.44805 9.53681 8.10863 9.82272 7.82272C10.1086 7.53681 10.4481 7.31001 10.8216 7.15527C11.1952 7.00054 11.5956 6.9209 11.9999 6.9209C12.8165 6.9209 13.5997 7.24529 14.1771 7.82272C14.7545 8.40014 15.0789 9.1833 15.0789 9.9999C15.0789 10.8165 14.7545 11.5997 14.1771 12.1771C13.5997 12.7545 12.8165 13.0789 11.9999 13.0789Z" fill="white"/>
</svg>
