<svg width="48" height="48" viewBox="0 0 48 48" fill="none" xmlns="http://www.w3.org/2000/svg">
<rect width="48" height="48" rx="24" fill="#007DCA"/>
<path d="M23.9983 15.9059L31.3154 11L30.6751 13.1146L25.4617 17.4285L26.6507 18.8664L25.0044 22.2498L26.3763 24.2253L23.9983 31.5843V15.9059Z" fill="white"/>
<path d="M23.9983 15.9059L16.6812 11L17.3215 13.1146L22.5349 17.4285L21.3459 18.8664L22.9922 22.2498L21.6202 24.2253L23.9983 31.5843V15.9059Z" fill="white"/>
<path d="M31.2693 11L23.9994 33.4157V41L33.2018 25.1573C30.846 20.7753 34.1834 19.2303 36.1466 19.0056L38.9994 11H31.2693Z" fill="white"/>
<path d="M16.7295 11L23.9994 33.4157V41L14.7969 25.1573C17.1528 20.7753 13.8153 19.2303 11.8521 19.0056L8.99939 11H16.7295Z" fill="white"/>
</svg>
