<svg width="18" height="18" viewBox="0 0 18 18" fill="none" xmlns="http://www.w3.org/2000/svg">
<path d="M15.6667 8.99935C15.6666 7.51342 15.17 6.07013 14.2558 4.89868C13.3417 3.72722 12.0624 2.89475 10.621 2.53346C9.17968 2.17217 7.65895 2.30277 6.30032 2.90452C4.94168 3.50627 3.82303 4.54467 3.12199 5.85484C2.42095 7.16501 2.17771 8.67183 2.43091 10.136C2.6841 11.6002 3.41921 12.9379 4.5195 13.9366C5.61979 14.9352 7.02219 15.5377 8.504 15.6483C9.98582 15.7588 11.4621 15.3712 12.6984 14.5468L13.6234 15.9335C12.2553 16.8483 10.6459 17.3353 9.00008 17.3327C4.39758 17.3327 0.666748 13.6018 0.666748 8.99935C0.666748 4.39685 4.39758 0.666016 9.00008 0.666016C13.6026 0.666016 17.3334 4.39685 17.3334 8.99935V10.2493C17.3335 10.8733 17.1335 11.4809 16.7628 11.9827C16.392 12.4846 15.8701 12.8544 15.2737 13.0377C14.6773 13.221 14.0378 13.2083 13.4492 13.0013C12.8605 12.7943 12.3538 12.404 12.0034 11.8877C11.4472 12.466 10.7359 12.8714 9.95484 13.0553C9.17381 13.2391 8.3563 13.1935 7.60055 12.924C6.8448 12.6545 6.18294 12.1724 5.6945 11.5359C5.20606 10.8993 4.91182 10.1352 4.84712 9.33543C4.78241 8.53567 4.95001 7.73423 5.32977 7.02741C5.70953 6.32059 6.28529 5.73845 6.98789 5.35093C7.69049 4.96342 8.49003 4.78701 9.29046 4.8429C10.0909 4.8988 10.8582 5.18461 11.5001 5.66602H13.1667V10.2493C13.1667 10.5809 13.2984 10.8988 13.5329 11.1332C13.7673 11.3677 14.0852 11.4993 14.4167 11.4993C14.7483 11.4993 15.0662 11.3677 15.3006 11.1332C15.5351 10.8988 15.6667 10.5809 15.6667 10.2493V8.99935ZM9.00008 6.49935C8.33704 6.49935 7.70115 6.76274 7.23231 7.23158C6.76347 7.70042 6.50008 8.33631 6.50008 8.99935C6.50008 9.66239 6.76347 10.2983 7.23231 10.7671C7.70115 11.236 8.33704 11.4993 9.00008 11.4993C9.66312 11.4993 10.299 11.236 10.7678 10.7671C11.2367 10.2983 11.5001 9.66239 11.5001 8.99935C11.5001 8.33631 11.2367 7.70042 10.7678 7.23158C10.299 6.76274 9.66312 6.49935 9.00008 6.49935Z" fill="#D2D2D2"/>
</svg>
