<svg width="78" height="36" viewBox="0 0 78 36" fill="none" xmlns="http://www.w3.org/2000/svg">
<g clip-path="url(#clip0_1965_15394)">
<path fill-rule="evenodd" clip-rule="evenodd" d="M50.4454 13.1533C50.0767 12.682 50.013 11.8485 49.2653 11.7744C48.5395 11.5862 47.817 11.3854 47.0846 11.2227L42.7814 11.8951L42.2773 14.1214L49.2354 14.9925L51.0503 16.1543L55.7899 16.638L58.0084 15.8638C55.7093 15.1515 53.3546 14.5842 51.1198 13.6969C50.8451 13.5755 50.6546 13.3533 50.4454 13.1533Z" fill="#DB0026"/>
<path d="M58.8986 15.7674C58.7432 15.5729 58.4926 15.4953 58.3194 15.4205C58.1499 15.3437 58.1743 15.1852 58.0326 15.1391C57.8877 15.0945 57.6339 15.3782 57.4369 15.3192C57.2401 15.2573 57.2545 14.9041 57.0902 14.8519C56.9217 14.801 56.6291 15.0658 56.4762 15.0187C56.3219 14.9759 56.2919 14.6048 56.1431 14.5577C55.9962 14.5146 55.6839 14.7784 55.5314 14.733C55.3785 14.6837 55.3687 14.3224 55.1987 14.2688C55.0294 14.2189 54.7321 14.4889 54.5846 14.4401C54.4319 14.395 54.4172 14.0345 54.255 13.9821C54.091 13.932 53.7906 14.1967 53.6391 14.1491C53.4833 14.1007 53.4407 13.7304 53.2988 13.6856C53.1537 13.643 52.8708 13.8617 52.6404 13.8491C51.0425 13.706 50.4313 12.7412 50.3224 13.0266C50.2159 13.3062 50.6557 13.9866 51.2083 14.2164C51.6492 14.4003 56.4087 15.6653 56.5336 15.7218C56.6551 15.7795 56.9556 15.9079 56.8485 16.0744C56.6832 16.2876 56.2182 16.077 56.0998 15.9827C55.9802 15.8873 56.0075 15.8525 55.8952 15.8235C55.6401 15.7656 55.4986 16.2117 55.2289 16.152C54.9833 16.0991 55.0006 15.6255 54.7513 15.5701C54.476 15.5061 54.3513 15.955 54.0894 15.8966C53.8722 15.8495 53.8425 15.3671 53.6092 15.3132C53.3416 15.251 53.2201 15.7011 52.9411 15.6386C52.7013 15.5847 52.7146 15.1142 52.4638 15.0562C52.2132 14.9993 52.0381 15.4356 51.8014 15.384C51.5639 15.3311 51.5293 14.8504 51.3186 14.8026C51.1026 14.7565 50.9328 15.0008 50.6428 15.0371C50.6428 15.0371 49.8102 15.2532 48.4939 13.9332C47.175 12.616 46.6341 12.3601 45.8833 12.8966C44.6578 13.773 43.8968 13.1936 43.6748 12.9332C43.4084 12.6344 43.6874 12.3601 43.6874 12.3601C43.6874 12.3601 44.0766 12.9369 44.5665 12.947C45.3561 12.9697 45.9516 11.9356 47.3046 11.9172C49.0187 11.858 49.4656 12.4424 49.934 12.489C50.3681 12.5299 50.5129 12.4626 50.8131 12.2951H50.8116C51.0546 12.2122 51.2658 12.6629 51.5204 12.5722C51.7896 12.4747 51.5928 12.0205 51.8825 11.9157C52.1536 11.8225 52.3305 12.2792 52.5897 12.1865C52.8624 12.0908 52.6887 11.624 52.9506 11.5331C53.2201 11.4396 53.3775 11.9008 53.6572 11.8024C53.9383 11.7064 53.757 11.2441 54.0126 11.1512C54.2766 11.0587 54.4673 11.5127 54.7266 11.424C54.9722 11.3398 54.8318 10.8564 55.0874 10.7685C55.353 10.6771 55.5244 11.1325 55.8073 11.0328C56.0398 10.9549 55.9112 10.471 56.1523 10.3834C56.3932 10.297 56.6168 10.7456 56.8677 10.6554C57.1028 10.5723 56.9653 10.0914 57.2154 10.0015C57.4804 9.90977 57.6849 10.3582 57.9352 10.2735C58.1832 10.1881 57.995 9.8002 58.3183 9.64628C58.3183 9.64628 58.766 9.50496 58.7377 9.18957C58.734 9.13667 58.6416 8.46257 57.9045 8.31974C57.1954 8.18295 51.5975 9.6692 51.5251 9.58356C51.01 8.60616 50.3497 8.87796 50.2492 8.89963C50.1469 8.92482 49.5218 9.18 48.8295 8.92482C47.4702 8.3341 46.3848 9.83622 45.6403 9.63847C44.9546 9.45357 44.4306 9.56013 44.143 9.65409C43.8797 9.7415 43.4531 10.0705 42.5488 9.77198C35.5592 7.48114 30.0964 9.4838 30.0964 9.4838C27.0164 10.4715 26.6222 9.4838 26.6222 9.4838C26.6222 9.4838 25.6085 8.16205 32.7455 6.58561C43.0035 4.32349 43.3132 0.580156 43.1917 0.343364C43.0232 1.46031e-05 42.9589 0.404577 42.6212 0.776643C42.3378 1.08598 42.0082 0.933077 42.0082 0.933077C41.6854 0.784452 41.4789 1.13813 41.4789 1.13813C41.4789 1.13813 41.0637 1.75681 40.6966 1.40515C40.3436 1.06634 39.8752 1.83087 39.7002 1.8611C39.4905 1.89637 39.3882 1.79813 39.1071 1.67419C38.6857 1.49533 38.2333 2.23241 38.0018 2.28456C37.6473 2.36265 37.3982 1.88352 37.0936 2.08555C36.1819 2.69013 36.0386 2.77401 35.793 2.53898C35.612 2.36089 35.5849 2.16818 34.9761 2.72791C34.4578 3.20477 34.2098 3.2942 34.0017 2.9909C33.7876 2.68559 33.8427 2.26869 32.9521 3.08915C32.5269 3.48086 32.3097 3.48842 32.0661 3.31234C31.8827 3.18009 31.884 2.54906 31.2453 3.12038C30.6664 3.63427 30.246 3.85973 30.0822 3.40328C29.9012 2.89039 29.2189 3.49774 29.0612 3.64082C28.8974 3.78365 28.5468 4.16177 28.3009 3.77156C28.0553 3.37884 27.467 3.96503 27.1172 4.33684C26.8471 4.62578 26.6291 4.40284 26.3441 4.21945C26.0205 4.00634 25.0514 5.30492 24.9638 5.38251C24.8751 5.45657 24.8076 5.38251 24.5856 5.20189C24.2445 4.92429 23.3242 6.46697 23.1751 6.56748C23.1751 6.56748 23.1121 6.70073 22.8612 6.47074C22.5044 6.14478 20.6089 8.53965 19.8935 11.2494C18.9785 14.7232 20.4365 17.3874 20.4365 17.3874C20.4365 17.3874 20.8745 17.4 21.061 17.1161L21.3447 16.5019C21.5749 15.99 21.952 16.151 21.952 16.151L21.0582 18.7051C20.917 19.0414 21.0023 19.5172 21.3145 19.9672C21.6087 20.4191 21.8116 20.7246 22.0475 20.9347C22.7731 21.5907 22.6988 20.8148 22.7177 20.7181C22.8027 20.3027 23.2819 20.6216 23.658 20.8206C24.3405 21.1884 24.2647 20.3763 24.4142 20.1115C24.5182 19.9218 24.8538 19.9132 25.218 20.2062C25.5014 20.4337 25.7835 19.6631 25.7835 19.6631C26.1373 18.0207 25.3059 17.8307 24.8564 17.8065L23.9463 17.7667C23.9463 17.7667 24.0062 17.5169 24.1009 17.2828L24.1416 17.1171C25.1341 14.7429 23.4753 14.2846 22.9791 14.3224C22.4317 14.3693 22.47 14.0345 22.47 14.0345C22.47 14.0345 25.4679 13.4677 24.9089 16.5198C24.9089 16.5198 24.7987 17.0513 24.7323 17.3284L25.5563 17.4209C26.2651 17.5058 26.3911 18.3109 26.3911 18.3109C26.3911 18.3109 28.9987 18.9726 30.4777 18.7081C30.4777 18.7081 31.1387 18.557 31.3222 18.162C31.3222 18.162 32.28 15.9956 35.0764 15.9041C35.0764 15.9041 35.1748 16.1845 34.7279 16.3306C34.1925 16.5039 32.4075 16.64 32.0367 18.6079V18.6157C31.9963 18.9386 32.0866 19.6263 32.8161 19.945C33.4381 20.2143 33.6569 21.301 33.786 21.5945C34.1482 22.4275 34.6901 21.6313 34.6901 21.6313C34.6901 21.6313 35.0338 20.9587 35.3283 21.3317C35.8264 21.9607 36.0578 21.6438 36.1709 21.2433C36.2948 20.811 36.4751 20.6224 36.9965 21.1481C37.219 21.3763 37.6562 21.2 37.6998 20.8095C37.7921 19.9498 38.397 20.6332 38.4836 20.6664C38.5873 20.7042 39.2207 20.5674 38.8662 19.5979C38.8662 19.5979 38.3873 18.6739 36.2281 18.2753C35.7216 18.1831 35.8022 17.831 35.8022 17.831L36.2777 17.8952C36.4194 17.9174 37.6751 18.0512 37.8089 18.0716C43.0757 18.5703 47.0721 16.8553 47.1923 16.7332C51.2834 17.4856 56.8467 17.2292 57.8911 16.8679C58.9408 16.5128 59.019 15.9243 58.8983 15.7674H58.8986ZM50.451 9.50017C50.5366 9.36792 50.6174 9.29311 50.6916 9.25708C51.0092 9.08377 51.2118 9.62613 51.1732 9.64603C51.1713 9.64704 51.164 9.6493 51.1609 9.65056C51.1603 9.65132 51.1603 9.65333 51.1598 9.65409C51.1099 9.67726 50.4974 9.84403 50.4371 9.80574C50.3159 9.72513 50.451 9.50017 50.451 9.50017ZM48.1249 9.67172C48.1249 9.67172 48.2036 9.576 48.3569 9.52738C48.508 9.47448 48.7361 9.46566 49.0384 9.65258C49.3861 9.86468 49.3772 10.0304 49.3772 10.0304C49.3627 10.0368 49.3479 10.0423 49.3328 10.0471C49.0809 10.1408 48.047 10.2624 48.047 10.2624C47.988 10.1702 47.9636 10.0613 47.9777 9.95393C47.9919 9.84652 48.0438 9.74697 48.1249 9.67172ZM28.8423 4.86937C29.016 4.99785 28.8497 5.7382 28.7258 5.62912L27.833 5.17569C27.833 5.17569 28.6644 4.74468 28.8423 4.86937ZM27.3903 5.3422C27.5659 5.46765 27.4014 6.20952 27.277 6.09918L26.3866 5.64499C26.3869 5.64499 27.214 5.21348 27.3903 5.3422ZM26.8881 6.78941C27.0644 6.91586 26.8991 7.65899 26.7731 7.55168L25.8814 7.09195C25.8814 7.09195 26.7107 6.6637 26.8881 6.78941ZM26.0384 8.73261L25.1456 8.27742C25.1456 8.27742 25.9759 7.84565 26.152 7.97261C26.3304 8.09907 26.1599 8.84169 26.0384 8.73261ZM25.8704 10.1985L24.98 9.74301C24.98 9.74301 25.8085 9.31326 25.9851 9.43745C26.1617 9.5629 25.9972 10.3025 25.8701 10.1982L25.8704 10.1985ZM25.8539 5.85811C26.031 5.98431 25.8639 6.7229 25.7395 6.61786L24.8462 6.16115C24.8462 6.16115 25.6781 5.72989 25.8539 5.85811ZM25.0795 6.9864C25.2542 7.11235 25.0887 7.85119 24.9656 7.74615L24.0739 7.29095C24.0739 7.29095 24.9031 6.85843 25.0795 6.9864ZM23.4882 8.75655C23.4882 8.75655 24.32 8.32327 24.494 8.45149C24.6714 8.57694 24.5045 9.31729 24.3799 9.20998L23.4882 8.75655ZM24.1715 10.6106L23.2819 10.1536C23.2819 10.1536 24.1117 9.72488 24.287 9.85133C24.4641 9.97729 24.298 10.7169 24.1715 10.6106ZM23.537 7.50029C23.7128 7.62372 23.5467 8.36508 23.422 8.25802L22.5335 7.80132C22.5335 7.80132 23.3588 7.37257 23.537 7.50029ZM22.735 8.99309C22.9116 9.11854 22.746 9.86317 22.6185 9.75359L21.7289 9.29915C21.7292 9.29915 22.5587 8.87116 22.735 8.99309ZM21.5628 10.7615C21.5628 10.7615 22.3926 10.3332 22.5684 10.4592C22.7463 10.5841 22.577 11.3268 22.4548 11.2189L21.5628 10.7615ZM23.1536 12.4341L22.2627 11.9784C22.2627 11.9784 23.093 11.5469 23.2693 11.6736C23.4457 11.8006 23.2772 12.5399 23.1536 12.4341ZM24.431 13.4279L23.5401 12.974C23.5401 12.974 24.3707 12.5425 24.547 12.6677C24.7218 12.7921 24.5531 13.5375 24.431 13.4279ZM24.8304 11.8769L23.939 11.4197C23.939 11.4197 24.7693 10.9915 24.9456 11.1141C25.122 11.2409 24.9548 11.981 24.8304 11.8769ZM26.0158 14.0972L25.1262 13.642C25.1262 13.642 25.9518 13.2115 26.1299 13.3377C26.3058 13.4649 26.1423 14.2018 26.0158 14.0972ZM26.4435 12.6684L25.5534 12.2135C25.5534 12.2135 26.3819 11.7852 26.5577 11.9117C26.7335 12.0361 26.5698 12.7777 26.4435 12.6684ZM26.7385 11.3182L25.8481 10.8622C25.8481 10.8622 26.6768 10.434 26.8547 10.5599C27.0314 10.6872 26.8626 11.4245 26.7385 11.3182ZM27.991 13.9247L27.1004 13.4667C27.1004 13.4667 27.9294 13.0392 28.107 13.1634C28.2855 13.2894 28.1165 14.0327 27.991 13.9247ZM28.3768 12.5021L27.4867 12.048C27.4867 12.048 28.3167 11.6149 28.493 11.7432C28.6668 11.8653 28.4999 12.6085 28.3768 12.5021ZM28.6996 10.9952L27.8092 10.5398C27.8092 10.5398 28.6384 10.1128 28.8161 10.2368C28.9911 10.3632 28.8239 11.1028 28.6996 10.9952ZM29.9505 13.6579L29.0572 13.2024C29.0572 13.2024 29.8875 12.7714 30.0657 12.8969C30.2405 13.0266 30.0718 13.7677 29.9505 13.6579ZM30.2497 12.1364L29.3595 11.6787C29.3595 11.6787 30.1898 11.2494 30.3654 11.3741C30.5423 11.5018 30.3748 12.2392 30.2499 12.1361L30.2497 12.1364ZM30.5604 10.5741L29.6697 10.1181C29.6697 10.1181 30.4987 9.68911 30.6758 9.81405C30.8517 9.94328 30.6853 10.6814 30.5604 10.5741ZM31.9008 13.0563L31.0094 12.6052C31.0094 12.6052 31.8394 12.1744 32.0137 12.2996C32.1926 12.4251 32.0255 13.1644 31.9008 13.0563ZM32.1449 11.5575L31.2519 11.1046C31.2519 11.1046 32.0814 10.6746 32.2567 10.7985C32.4377 10.9257 32.2682 11.6691 32.1449 11.5575ZM32.454 10.0889L31.5605 9.63595C31.5605 9.63595 32.3923 9.20318 32.5671 9.32787C32.7432 9.45559 32.5765 10.1987 32.454 10.0889ZM33.8186 12.7397L32.9274 12.2837C32.9274 12.2837 33.7551 11.8527 33.9333 11.9789C34.1117 12.1061 33.9438 12.8447 33.8186 12.7397ZM34.0616 11.3404L33.1699 10.8864C33.1699 10.8864 34.001 10.4524 34.1757 10.5816C34.3518 10.704 34.1854 11.4484 34.0616 11.3404ZM34.355 9.8473L33.4622 9.39286C33.4622 9.39286 34.2925 8.95782 34.4704 9.08755C34.6468 9.21426 34.4817 9.95285 34.355 9.8473ZM35.5897 12.7656L34.7006 12.3104C34.7006 12.3104 35.5293 11.8782 35.7056 12.0072C35.8822 12.1316 35.7148 12.8719 35.5897 12.7656ZM35.8838 11.2633L34.9905 10.8091C34.9905 10.8091 35.8224 10.3758 35.999 10.5043C36.1738 10.6312 36.0069 11.3701 35.8838 11.2633ZM36.2176 9.7677L35.3257 9.31326C35.3257 9.31326 36.1562 8.87998 36.3328 9.00896C36.5107 9.13415 36.342 9.87577 36.2174 9.7677H36.2176ZM37.4465 12.7656L36.5548 12.3082C36.5548 12.3082 37.3841 11.8784 37.5602 12.0074C37.7362 12.1316 37.5725 12.8719 37.4465 12.7656ZM37.7318 11.3467L36.8422 10.8897C36.8422 10.8897 37.6704 10.4635 37.8465 10.5849C38.0233 10.7126 37.857 11.4547 37.7318 11.3467ZM38.069 9.89416L37.1802 9.43947C37.1802 9.43947 38.0092 9.01022 38.1863 9.13415C38.36 9.26011 38.1934 10.0015 38.069 9.89416ZM39.1921 12.98L38.3004 12.52C38.3004 12.52 39.1307 12.0936 39.3071 12.2208C39.4853 12.3442 39.3189 13.0861 39.1921 12.98ZM39.507 11.6038L38.6161 11.1502C38.6161 11.1502 39.4475 10.7199 39.6223 10.8459C39.8004 10.9741 39.6283 11.7127 39.507 11.6038ZM39.8474 10.1982L38.9541 9.74503C38.9541 9.74503 39.7852 9.31427 39.9626 9.4372C40.1382 9.56265 39.9686 10.3022 39.8474 10.198V10.1982ZM41.2367 11.9008L40.3465 11.4502C40.3465 11.4502 41.1753 11.0184 41.3532 11.1421C41.5282 11.2696 41.3613 12.0097 41.2367 11.9008Z" fill="#004526"/>
<path d="M17.82 24.8642C17.6336 24.3899 17.2802 24.1856 16.6328 24.1763C16.5737 24.1745 13.5782 24.1788 13.5782 24.1788L9.14385 35.7685H11.3022C11.4782 35.7829 11.655 35.7547 11.8166 35.6864C12.2365 35.5025 12.4425 35.0352 12.5023 34.8758C12.5023 34.8798 13.1056 33.261 13.1471 33.1552L17.6079 33.1537C17.7011 33.4268 18.5141 35.7635 18.5141 35.7635H21.4353L19.5824 30.1233L17.82 24.8642ZM16.9204 30.7747L13.9144 30.7752C14.2387 29.9233 15.0459 27.7674 15.3905 26.8948C15.6883 27.775 16.9125 30.7462 16.9204 30.7747ZM38.8393 24.0861H38.8377C35.3824 24.0906 32.876 26.5805 32.876 30.0034C32.876 33.3575 35.4378 35.8879 38.8393 35.8879C42.2389 35.8879 44.9048 33.3049 44.9048 30.0034C44.9048 26.6848 42.2389 24.0861 38.8393 24.0861ZM38.9259 33.3023C37.1645 33.3023 35.7842 31.8403 35.7842 29.9721C35.7842 28.1214 37.1348 26.7271 38.9238 26.7271C40.6998 26.7271 41.9878 28.0909 41.9878 29.9721C41.9875 31.872 40.6704 33.3023 38.9259 33.3023ZM52.7215 28.9638L52.6082 28.932C52.6113 28.9335 51.4845 28.6045 51.4816 28.6015L51.3134 28.5441C50.3931 28.2249 49.7397 27.9571 49.7397 27.443V27.4052C49.831 26.5515 51.4821 26.5424 51.4979 26.5424C52.4082 26.5424 53.1081 26.6759 53.9945 27.018L54.0134 27.0248L54.0515 27.0354C54.2562 27.0752 54.4354 27.0808 54.5805 27.0498L54.8259 26.9606C55.1783 26.7747 55.5286 25.7892 55.663 25.3743L55.7065 25.2413L55.5982 25.1456C55.5557 25.1066 55.2974 24.9025 54.3582 24.5662C53.403 24.2226 52.0503 24.169 52.0503 24.169L51.3827 24.1662C47.8969 24.1662 46.5662 26.2311 46.524 27.6178C46.4951 28.9995 47.3146 29.7107 48.553 30.3565C49.071 30.6321 50.0173 30.8856 50.7035 31.0697C50.7001 31.0667 51.4139 31.2697 51.4139 31.2697C52.7123 31.6612 53.2086 32.096 53.1162 32.7706C53.0747 32.9935 52.636 33.3626 51.639 33.3626C50.8806 33.3626 50.1952 33.2507 49.4817 33.0116C49.139 32.8809 48.7844 32.7121 48.41 32.4988L48.3919 32.4879L48.3535 32.4721C48.1462 32.3977 47.9607 32.3668 47.8014 32.3796L47.5272 32.4363C47.127 32.5801 46.5704 33.5555 46.3479 33.9679L46.2602 34.1309L46.4116 34.246C46.4384 34.2634 47.0577 34.7359 47.5839 35.0317C48.2032 35.3612 48.8989 35.5997 49.72 35.7592C50.0511 35.8171 50.577 35.8902 51.4008 35.8902C54.1018 35.8902 56.064 34.577 56.2896 32.6212C56.3878 30.8468 55.2536 29.689 52.7215 28.9638ZM58.4958 24.1931C58.3838 24.1914 57.7944 24.2025 57.4556 24.5032C57.2997 24.6408 57.2181 24.8247 57.2181 25.0317L57.2162 26.8654C57.2162 26.8654 60.475 26.8629 60.9017 26.8629V35.7728L63.9205 35.7703V26.8629C64.3231 26.8623 66.2926 26.8623 66.2926 26.8623C66.4041 26.8623 66.9922 26.8503 67.332 26.5507C67.4081 26.4833 67.4687 26.4013 67.5098 26.31C67.5508 26.2187 67.5714 26.1202 67.5703 26.0207V24.1931H58.4958ZM6.71305 33.1499H3.32416C3.32416 32.7227 3.31472 25.2501 3.31472 25.2501C3.31472 24.9222 3.21237 24.6619 3.0069 24.4801C2.67861 24.1841 2.18972 24.1856 2.00734 24.1894L0.226562 24.1856L0.231024 35.7683H7.78609L7.79134 33.9276C7.79134 33.692 7.68663 33.1499 6.71305 33.1499ZM28.3141 26.6553C29.0463 26.6084 29.6624 26.6553 30.2437 26.8079C30.5557 26.9079 30.8376 26.9278 31.0764 26.8631L31.3173 26.7603C31.6553 26.5606 31.8972 25.5424 32.0114 24.9557L32.0376 24.8181L31.9143 24.733C31.8836 24.7116 31.7875 24.6471 30.6935 24.3637C29.9365 24.1708 29.1564 24.0745 28.3732 24.0773L28.3249 24.0778C25.8246 24.0778 22.0594 25.662 21.9515 30.0243V30.049C22.0594 34.4128 25.8248 35.9965 28.3267 35.9965L28.3732 35.9983C28.8104 36 29.6958 35.9655 30.6935 35.7086C31.7878 35.4274 31.8836 35.3622 31.9156 35.3403L32.0379 35.2571L32.0116 35.1188C31.8975 34.5289 31.6555 33.5129 31.3175 33.3117V33.3102L31.0774 33.2086C30.8378 33.1459 30.5557 33.1663 30.2392 33.2683C29.6611 33.4175 29.0452 33.4658 28.3052 33.419C26.4116 33.2411 25.2743 32.004 25.1884 30.0268C25.274 28.0685 26.4116 26.8316 28.3139 26.6553H28.3141ZM76.5141 35.763C76.9804 35.7531 77.7726 35.4894 77.7726 34.5994L77.7637 33.1459L72.4437 33.1484C72.4437 33.1484 72.4526 31.4823 72.4526 31.2062H76.8442L76.8366 28.5267C76.8366 28.5267 72.895 28.5312 72.4602 28.5312C72.4592 28.2143 72.4602 27.1843 72.4602 26.8656C72.895 26.8656 76.4918 26.8608 76.4918 26.8608C76.6022 26.8626 77.2042 26.8631 77.5302 26.551C77.7579 26.3318 77.7684 25.9331 77.7684 25.7252V24.1954H69.3996L69.4012 35.7723L76.5141 35.763Z" fill="black"/>
</g>
<defs>
<clipPath id="clip0_1965_15394">
<rect width="78" height="36" fill="white"/>
</clipPath>
</defs>
</svg>
