<svg width="58" height="24" viewBox="0 0 58 24" fill="none" xmlns="http://www.w3.org/2000/svg">
<g clip-path="url(#clip0_1965_15392)">
<path d="M55.0251 23.2852L46.432 0.0203431L46.4261 0.00494385H46.2565L44.487 4.78578L41.2655 13.4894L41.2579 13.4825C40.1414 12.5137 38.5662 11.9082 36.5824 11.6826L35.9773 11.6212L36.5776 11.5455C39.8491 10.9674 42.0483 8.93565 42.0483 6.48774C42.0483 3.13093 38.8376 0.78791 34.2384 0.78791H24.6693V0.957872H27.4498V18.3031L20.6969 0.0202861L20.6908 0.00494385H20.5212L18.7516 4.78578L11.9265 23.2253L11.8845 23.2301C11.7679 23.2442 11.6525 23.2555 11.5384 23.264C11.3667 23.2772 11.196 23.2851 11.0248 23.2851H4.12861L17.2374 0.957815L17.3348 0.79002H1.30227V7.69686H1.47239C1.50255 4.33264 3.49496 0.957815 7.89705 0.957815H13.2078L0 23.4524H17.7935V16.8352H17.6234C17.6002 19.7674 15.9098 22.5525 12.234 23.1814L12.1171 23.201L14.9166 15.6345H22.7586L25.5844 23.2852H22.7969V23.4525H33.7377V23.2852H30.9383V11.7446H34.1684C37.4556 11.7446 39.3409 13.1887 39.3409 15.7054V17.7525C39.3409 17.9781 39.3565 18.3079 39.3737 18.5837V18.5937L37.6375 23.2841H35.3694V23.4514H40.0644V23.2841H37.8206L39.4017 19.013C39.405 19.0543 39.4066 19.0792 39.4066 19.0792L39.4502 19.4641L39.4922 19.7187C39.756 21.2936 40.3686 22.4513 41.3124 23.1596L41.448 23.2565C42.1651 23.7467 43.0561 23.995 44.0977 23.995C45.4776 23.995 46.3976 23.6567 47.1572 22.8606L47.0576 22.7684C46.3577 23.4037 45.7704 23.661 45.0345 23.661C43.7807 23.661 43.1245 22.1655 43.1245 20.6906V17.8224C43.1311 17.1107 43.0178 16.4029 42.789 15.7276L42.7578 15.6387V15.6355H48.4938L51.3196 23.2862H48.5321V23.4535H58V23.2862L55.0251 23.2852ZM14.979 15.4672L18.8422 5.0304L22.6967 15.4672H14.979ZM30.94 11.5767V0.957815H33.4056C36.6992 0.957815 38.438 2.88318 38.438 6.52378C38.438 10.3957 37.4399 11.5767 34.1684 11.5767H30.94ZM42.691 15.4672L42.6743 15.4259C42.4194 14.8154 42.0483 14.2584 41.5809 13.7848L41.4194 13.626L41.4022 13.6101L44.5752 5.0304L48.4298 15.4672H42.691Z" fill="black"/>
</g>
<defs>
<clipPath id="clip0_1965_15392">
<rect width="58" height="24" fill="white"/>
</clipPath>
</defs>
</svg>
