<svg width="164" height="42" viewBox="0 0 164 42" fill="none" xmlns="http://www.w3.org/2000/svg">
<path d="M52.346 9.254H50.51C51.224 9.662 51.564 11.192 51.564 13.164V28.124C51.564 29.994 51.258 31.592 50.51 32H58.534C64.926 32 67.884 28.022 67.884 20.644C67.884 13.436 64.552 9.288 58.534 9.288L52.346 9.254ZM56.222 31.66C55.406 31.66 54.692 31.082 54.522 30.266C54.42 29.654 54.352 28.906 54.352 28.124V13.164C54.352 12.382 54.386 11.634 54.488 11.022C54.658 10.206 55.372 9.628 56.222 9.628H58.058C62.852 9.628 64.756 13.606 64.756 20.644C64.756 27.818 62.818 31.66 58.194 31.66H56.222ZM83.3885 17.006C79.3085 17.006 76.0105 19.794 76.0105 24.486C76.0105 29.382 79.3085 32.17 83.3885 32.17C85.8705 32.17 88.0465 31.15 89.3725 29.246C89.3725 29.246 87.5365 31.252 84.4085 31.252C84.0685 31.252 83.7285 31.218 83.3885 31.184C80.8385 30.844 79.0025 28.974 79.0025 24.486V24.316H90.7665C90.6645 19.692 87.4005 17.006 83.3885 17.006ZM79.0025 23.976C79.1385 19.862 80.8045 17.38 83.3885 17.38C85.9725 17.38 87.6385 19.726 87.7745 23.976H79.0025ZM74.0725 21.596C74.2425 20.882 75.4665 17.38 79.0705 16.088C79.8525 15.816 81.1785 15.51 82.6405 15.51C84.0345 15.51 85.5645 15.782 86.7885 16.598L87.6045 14.15C86.8905 14.048 86.1765 13.98 85.4285 13.98C83.2185 13.98 81.0085 14.49 79.2745 15.204C76.3505 16.462 74.4125 19.318 74.0725 20.746V17.006C73.9705 17.074 72.4065 18.06 70.2645 18.332C70.6045 18.536 70.8765 19.012 71.0465 19.692C71.2165 20.372 71.3185 21.256 71.3185 22.242V28.09C71.3185 29.994 70.9785 31.558 70.2645 32H75.1265C74.4125 31.592 74.0725 29.96 74.0725 28.09V21.596ZM99.0222 32.17C100.858 32.17 104.768 31.252 104.768 27.92C104.768 26.458 103.918 25.03 102.252 24.316L97.8322 22.378C96.6762 21.868 95.9282 21.324 95.9282 20.032C95.9282 18.536 97.1862 17.414 98.9542 17.38C100.654 17.38 102.116 18.06 102.592 19.93L104.122 18.468C102.728 17.516 100.96 17.04 99.0222 17.04C94.3982 17.04 93.1742 19.794 93.1742 21.086C93.1742 22.446 93.9902 23.806 95.5202 24.452L100.314 26.56C101.47 27.07 102.388 27.818 102.388 28.94C102.388 30.538 101.028 31.796 99.0902 31.83C97.2202 31.83 95.1462 30.912 94.8742 28.566L93.1402 30.062C94.6362 31.422 96.7102 32.17 99.0222 32.17ZM113.033 32.17C114.869 32.17 118.779 31.252 118.779 27.92C118.779 26.458 117.929 25.03 116.263 24.316L111.843 22.378C110.687 21.868 109.939 21.324 109.939 20.032C109.939 18.536 111.197 17.414 112.965 17.38C114.665 17.38 116.127 18.06 116.603 19.93L118.133 18.468C116.739 17.516 114.971 17.04 113.033 17.04C108.409 17.04 107.185 19.794 107.185 21.086C107.185 22.446 108.001 23.806 109.531 24.452L114.325 26.56C115.481 27.07 116.399 27.818 116.399 28.94C116.399 30.538 115.039 31.796 113.101 31.83C111.231 31.83 109.157 30.912 108.885 28.566L107.151 30.062C108.647 31.422 110.721 32.17 113.033 32.17ZM145.777 32C145.063 31.592 144.723 29.994 144.723 28.124V24.452C144.723 19.59 142.649 17.04 139.113 17.04C136.291 17.04 134.829 19.522 134.285 20.644C133.435 18.264 131.667 17.04 129.253 17.04C126.737 17.04 125.581 18.74 124.969 19.794V17.04C124.867 17.074 123.303 18.06 121.161 18.366C121.501 18.536 121.773 19.012 121.943 19.692C122.113 20.372 122.181 21.256 122.181 22.242V28.124C122.181 29.994 121.875 31.558 121.161 32H126.023C125.309 31.592 124.969 29.994 124.969 28.124V20.304C125.241 19.998 126.193 17.822 128.165 17.686H128.471C129.729 17.686 132.075 18.23 132.075 24.52V28.124C132.075 29.994 131.769 31.558 131.021 32H135.917C135.169 31.592 134.863 29.994 134.863 28.124V24.452C134.863 23.16 134.693 22.038 134.421 21.086C134.897 19.964 136.291 17.686 138.059 17.686H138.093C139.215 17.686 141.969 17.72 141.969 24.52V28.124C141.969 29.994 141.629 31.558 140.915 32H145.777ZM162.876 24.316C162.808 19.692 159.544 17.04 155.498 17.04C151.452 17.04 148.154 19.794 148.154 24.486C148.154 29.382 151.452 32.17 155.498 32.17C157.98 32.17 160.156 31.15 161.516 29.246C161.516 29.246 159.646 31.252 156.552 31.252C156.212 31.252 155.872 31.218 155.532 31.184C152.982 30.844 151.146 28.974 151.146 24.486V24.316H162.876ZM155.532 17.38C158.116 17.38 159.782 19.726 159.918 23.976H151.146C151.282 19.862 152.914 17.38 155.532 17.38Z" fill="black"/>
<path d="M52.346 9.254L52.3476 8.954H52.346V9.254ZM50.51 9.254V8.954H49.3803L50.3612 9.51447L50.51 9.254ZM50.51 32L50.3663 31.7366L50.51 32.3V32ZM58.534 9.288L58.5324 9.588H58.534V9.288ZM54.522 30.266L54.2258 30.3154L54.2283 30.3272L54.522 30.266ZM54.488 11.022L54.1941 10.9608L54.1921 10.9727L54.488 11.022ZM52.346 8.954H50.51V9.554H52.346V8.954ZM50.3612 9.51447C50.6057 9.65422 50.8436 10.0314 51.0141 10.697C51.1799 11.3438 51.264 12.192 51.264 13.164H51.864C51.864 12.164 51.7781 11.2612 51.5954 10.548C51.4174 9.85362 51.1283 9.26178 50.6588 8.99353L50.3612 9.51447ZM51.264 13.164V28.124H51.864V13.164H51.264ZM51.264 28.124C51.264 29.0461 51.1882 29.8863 51.0264 30.5379C50.8593 31.2105 50.6211 31.5977 50.3663 31.7366L50.6537 32.2634C51.1469 31.9943 51.4357 31.3785 51.6086 30.6826C51.7868 29.9657 51.864 29.0719 51.864 28.124H51.264ZM50.51 32.3H58.534V31.7H50.51V32.3ZM58.534 32.3C61.7958 32.3 64.2304 31.2818 65.84 29.2765C67.4394 27.2839 68.184 24.3652 68.184 20.644H67.584C67.584 24.3008 66.8496 27.0601 65.372 28.901C63.9046 30.7292 61.6642 31.7 58.534 31.7V32.3ZM68.184 20.644C68.184 16.9987 67.342 14.0829 65.698 12.0731C64.0465 10.0541 61.6174 8.988 58.534 8.988V9.588C61.4686 9.588 63.7145 10.5959 65.2335 12.4529C66.76 14.3191 67.584 17.0813 67.584 20.644H68.184ZM58.5356 8.988L52.3476 8.954L52.3444 9.55399L58.5324 9.58799L58.5356 8.988ZM56.222 31.36C55.5493 31.36 54.957 30.8828 54.8157 30.2048L54.2283 30.3272C54.4271 31.2812 55.2627 31.96 56.222 31.96V31.36ZM54.8179 30.2167C54.7187 29.6211 54.652 28.8896 54.652 28.124H54.052C54.052 28.9224 54.1213 29.6869 54.2261 30.3153L54.8179 30.2167ZM54.652 28.124V13.164H54.052V28.124H54.652ZM54.652 13.164C54.652 12.3876 54.686 11.6589 54.7839 11.0713L54.1921 10.9727C54.086 11.6091 54.052 12.3764 54.052 13.164H54.652ZM54.7817 11.0832C54.9222 10.4086 55.5117 9.928 56.222 9.928V9.328C55.2323 9.328 54.3938 10.0034 54.1943 10.9608L54.7817 11.0832ZM56.222 9.928H58.058V9.328H56.222V9.928ZM58.058 9.928C59.2143 9.928 60.1793 10.1675 60.9792 10.6206C61.7785 11.0733 62.4297 11.7486 62.9445 12.646C63.9802 14.4513 64.456 17.1412 64.456 20.644H65.056C65.056 17.1088 64.5798 14.2907 63.465 12.3475C62.9046 11.3706 62.1808 10.6116 61.2749 10.0985C60.3695 9.5857 59.2987 9.328 58.058 9.328V9.928ZM64.456 20.644C64.456 24.2149 63.9717 26.9049 62.9486 28.6933C62.44 29.5822 61.8005 30.2447 61.022 30.6867C60.2429 31.129 59.3077 31.36 58.194 31.36V31.96C59.3923 31.96 60.4334 31.7108 61.3182 31.2085C62.2035 30.7059 62.9155 29.9595 63.4694 28.9912C64.5713 27.0651 65.056 24.2471 65.056 20.644H64.456ZM58.194 31.36H56.222V31.96H58.194V31.36ZM89.3725 29.246L89.6187 29.4174L89.1512 29.0435L89.3725 29.246ZM83.3885 31.184L83.3489 31.4815L83.3587 31.4825L83.3885 31.184ZM79.0025 24.316V24.016H78.7025V24.316H79.0025ZM90.7665 24.316V24.616H91.0732L91.0665 24.3094L90.7665 24.316ZM79.0025 23.976L78.7027 23.9661L78.6925 24.276H79.0025V23.976ZM87.7745 23.976V24.276H88.0843L88.0744 23.9664L87.7745 23.976ZM74.0725 21.596L73.7807 21.5265L73.7725 21.5608V21.596H74.0725ZM79.0705 16.088L78.972 15.8046L78.9693 15.8056L79.0705 16.088ZM86.7885 16.598L86.6221 16.8476L86.9489 17.0655L87.0731 16.6929L86.7885 16.598ZM87.6045 14.15L87.8891 14.2449L88.0028 13.9038L87.647 13.853L87.6045 14.15ZM79.2745 15.204L79.1603 14.9266L79.156 14.9284L79.2745 15.204ZM74.0725 20.746H73.7725L74.3644 20.8155L74.0725 20.746ZM74.0725 17.006H74.3725V16.4454L73.9061 16.7564L74.0725 17.006ZM70.2645 18.332L70.2267 18.0344L69.3673 18.1435L70.1102 18.5892L70.2645 18.332ZM71.0465 19.692L71.3376 19.6192L71.0465 19.692ZM70.2645 32L70.1066 31.7449L69.21 32.3H70.2645V32ZM75.1265 32V32.3H76.2562L75.2754 31.7395L75.1265 32ZM83.3885 16.706C81.2801 16.706 79.3582 17.427 77.9616 18.7703C76.5628 20.1156 75.7105 22.0663 75.7105 24.486H76.3105C76.3105 22.2137 77.1072 20.4244 78.3775 19.2027C79.6499 17.979 81.417 17.306 83.3885 17.306V16.706ZM75.7105 24.486C75.7105 27.0041 76.5604 29.0058 77.9595 30.3782C79.3568 31.7488 81.2799 32.47 83.3885 32.47V31.87C81.4172 31.87 79.6513 31.1972 78.3796 29.9498C77.1097 28.7042 76.3105 26.8639 76.3105 24.486H75.7105ZM83.3885 32.47C85.9543 32.47 88.2289 31.4131 89.6187 29.4174L89.1264 29.0746C87.8642 30.8869 85.7868 31.87 83.3885 31.87V32.47ZM89.3725 29.246C89.1512 29.0435 89.1513 29.0434 89.1514 29.0433C89.1514 29.0433 89.1515 29.0432 89.1515 29.0432C89.1515 29.0431 89.1516 29.0431 89.1516 29.0431C89.1516 29.0431 89.1515 29.0432 89.1512 29.0434C89.1508 29.0439 89.1499 29.0448 89.1486 29.0462C89.146 29.049 89.1416 29.0536 89.1355 29.06C89.1233 29.0726 89.1041 29.092 89.0782 29.1173C89.0263 29.1678 88.9473 29.2416 88.8424 29.331C88.6322 29.5098 88.3189 29.75 87.9111 29.9906C87.0953 30.4719 85.9066 30.952 84.4085 30.952V31.552C86.0385 31.552 87.3317 31.0291 88.216 30.5074C88.6581 30.2465 88.9993 29.9852 89.2312 29.7879C89.3472 29.6892 89.4361 29.6063 89.4969 29.5471C89.5272 29.5175 89.5506 29.4938 89.5668 29.4771C89.5749 29.4687 89.5812 29.4621 89.5857 29.4573C89.588 29.4549 89.5898 29.4529 89.5911 29.4515C89.5918 29.4507 89.5924 29.4501 89.5928 29.4496C89.593 29.4494 89.5932 29.4492 89.5934 29.449C89.5935 29.4489 89.5936 29.4488 89.5936 29.4488C89.5937 29.4486 89.5938 29.4485 89.3725 29.246ZM84.4085 30.952C84.086 30.952 83.7609 30.9197 83.4184 30.8855L83.3587 31.4825C83.6961 31.5163 84.0511 31.552 84.4085 31.552V30.952ZM83.4282 30.8866C82.2199 30.7255 81.2034 30.2076 80.482 29.2142C79.7547 28.2126 79.3025 26.6935 79.3025 24.486H78.7025C78.7025 26.7665 79.1684 28.4264 79.9965 29.5668C80.8306 30.7154 82.0072 31.3025 83.3489 31.4814L83.4282 30.8866ZM79.3025 24.486V24.316H78.7025V24.486H79.3025ZM79.0025 24.616H90.7665V24.016H79.0025V24.616ZM91.0665 24.3094C91.0139 21.9248 90.1436 20.0181 88.7492 18.7083C87.3568 17.4005 85.4615 16.706 83.3885 16.706V17.306C85.3276 17.306 87.0702 17.9545 88.3384 19.1457C89.6044 20.3349 90.4172 22.0832 90.4666 24.3226L91.0665 24.3094ZM79.3024 23.9859C79.3693 21.9618 79.8123 20.374 80.5271 19.3017C81.2347 18.2403 82.2084 17.68 83.3885 17.68V17.08C81.9847 17.08 80.8333 17.7607 80.0279 18.9688C79.2298 20.166 78.7718 21.8762 78.7027 23.9661L79.3024 23.9859ZM83.3885 17.68C84.5747 17.68 85.5468 18.2118 86.2511 19.2524C86.9641 20.3059 87.4077 21.8919 87.4747 23.9856L88.0744 23.9664C88.0054 21.8101 87.548 20.0981 86.748 18.9161C85.9393 17.7212 84.7864 17.08 83.3885 17.08V17.68ZM87.7745 23.676H79.0025V24.276H87.7745V23.676ZM74.3644 21.6655C74.4417 21.3409 74.7761 20.3218 75.5306 19.2292C76.283 18.1398 77.4438 16.9899 79.1718 16.3704L78.9693 15.8056C77.0933 16.4781 75.8401 17.7252 75.0369 18.8883C74.236 20.0482 73.8734 21.1371 73.7807 21.5265L74.3644 21.6655ZM79.1691 16.3713C79.9239 16.1088 81.2165 15.81 82.6405 15.81V15.21C81.1406 15.21 79.7812 15.5232 78.972 15.8047L79.1691 16.3713ZM82.6405 15.81C84.0023 15.81 85.4659 16.0768 86.6221 16.8476L86.9549 16.3484C85.6632 15.4872 84.0668 15.21 82.6405 15.21V15.81ZM87.0731 16.6929L87.8891 14.2449L87.3199 14.0551L86.5039 16.5031L87.0731 16.6929ZM87.647 13.853C86.9237 13.7497 86.1949 13.68 85.4285 13.68V14.28C86.1582 14.28 86.8574 14.3463 87.5621 14.447L87.647 13.853ZM85.4285 13.68C83.1757 13.68 80.927 14.1991 79.1603 14.9266L79.3888 15.4814C81.09 14.7809 83.2613 14.28 85.4285 14.28V13.68ZM79.156 14.9284C77.6421 15.5797 76.3909 16.6408 75.476 17.7169C74.5657 18.7876 73.9655 19.9005 73.7807 20.6765L74.3644 20.8155C74.5196 20.1635 75.0584 19.1344 75.9331 18.1056C76.8031 17.0822 77.983 16.0863 79.3931 15.4796L79.156 14.9284ZM74.3725 20.746V17.006H73.7725V20.746H74.3725ZM73.9061 16.7564C73.8241 16.8111 72.3048 17.7705 70.2267 18.0344L70.3023 18.6296C72.5083 18.3495 74.117 17.3369 74.2389 17.2556L73.9061 16.7564ZM70.1102 18.5892C70.3449 18.7301 70.5909 19.1062 70.7555 19.7648L71.3376 19.6192C71.1622 18.9178 70.8642 18.3419 70.4189 18.0748L70.1102 18.5892ZM70.7555 19.7648C70.9182 20.4158 71.0185 21.2746 71.0185 22.242H71.6185C71.6185 21.2374 71.5148 20.3282 71.3376 19.6192L70.7555 19.7648ZM71.0185 22.242V28.09H71.6185V22.242H71.0185ZM71.0185 28.09C71.0185 29.0271 70.9346 29.8673 70.7686 30.5192C70.5979 31.1893 70.3586 31.589 70.1066 31.7449L70.4224 32.2551C70.8845 31.969 71.1721 31.3657 71.35 30.6673C71.5325 29.9507 71.6185 29.0569 71.6185 28.09H71.0185ZM70.2645 32.3H75.1265V31.7H70.2645V32.3ZM75.2754 31.7395C75.1615 31.6745 75.0402 31.5467 74.9233 31.3349C74.8074 31.125 74.7059 30.8506 74.6227 30.5201C74.4564 29.859 74.3725 29.0098 74.3725 28.09H73.7725C73.7725 29.0402 73.8586 29.942 74.0408 30.6664C74.1319 31.0286 74.2493 31.3556 74.398 31.6249C74.5456 31.8923 74.7346 32.1215 74.9777 32.2605L75.2754 31.7395ZM74.3725 28.09V21.596H73.7725V28.09H74.3725ZM102.252 24.316L102.132 24.5908L102.134 24.5917L102.252 24.316ZM97.8322 22.378L97.7111 22.6525L97.7117 22.6528L97.8322 22.378ZM98.9542 17.38V17.0799L98.9484 17.0801L98.9542 17.38ZM102.592 19.93L102.301 20.004L102.428 20.5017L102.799 20.1469L102.592 19.93ZM104.122 18.468L104.329 18.6849L104.597 18.4291L104.291 18.2203L104.122 18.468ZM95.5202 24.452L95.6409 24.1773L95.6368 24.1756L95.5202 24.452ZM100.314 26.56L100.435 26.2855L100.435 26.2854L100.314 26.56ZM99.0902 31.83V32.13L99.0954 32.13L99.0902 31.83ZM94.8742 28.566L95.1722 28.5314L95.1069 27.9689L94.6782 28.3389L94.8742 28.566ZM93.1402 30.062L92.9442 29.8349L92.6877 30.0561L92.9384 30.284L93.1402 30.062ZM99.0222 32.47C99.9773 32.47 101.465 32.2335 102.725 31.559C103.995 30.8794 105.068 29.7312 105.068 27.92H104.468C104.468 29.4408 103.586 30.4176 102.442 31.03C101.288 31.6475 99.903 31.87 99.0222 31.87V32.47ZM105.068 27.92C105.068 26.3348 104.144 24.8003 102.37 24.0403L102.134 24.5917C103.693 25.2597 104.468 26.5812 104.468 27.92H105.068ZM102.373 24.0413L97.9526 22.1032L97.7117 22.6528L102.132 24.5907L102.373 24.0413ZM97.9533 22.1035C97.3821 21.8515 96.9549 21.6084 96.6677 21.2954C96.3926 20.9957 96.2282 20.6117 96.2282 20.032H95.6282C95.6282 20.7443 95.8377 21.2783 96.2256 21.7011C96.6014 22.1106 97.1263 22.3945 97.7111 22.6525L97.9533 22.1035ZM96.2282 20.032C96.2282 18.7387 97.3131 17.7116 98.9599 17.6799L98.9484 17.0801C97.0593 17.1164 95.6282 18.3333 95.6282 20.032H96.2282ZM98.9542 17.68C99.7673 17.68 100.497 17.843 101.072 18.2072C101.64 18.567 102.081 19.1376 102.301 20.004L102.883 19.856C102.627 18.8523 102.1 18.148 101.393 17.7003C100.693 17.257 99.841 17.08 98.9542 17.08V17.68ZM102.799 20.1469L104.329 18.6849L103.915 18.2511L102.385 19.7131L102.799 20.1469ZM104.291 18.2203C102.838 17.2277 101.008 16.74 99.0222 16.74V17.34C100.913 17.34 102.618 17.8043 103.953 18.7157L104.291 18.2203ZM99.0222 16.74C96.6479 16.74 95.1062 17.4488 94.1562 18.3622C93.2132 19.269 92.8742 20.3586 92.8742 21.086H93.4742C93.4742 20.5214 93.7471 19.588 94.5721 18.7947C95.3901 18.0082 96.7725 17.34 99.0222 17.34V16.74ZM92.8742 21.086C92.8742 22.5685 93.7642 24.0362 95.4035 24.7284L95.6368 24.1756C94.2162 23.5758 93.4742 22.3235 93.4742 21.086H92.8742ZM95.3994 24.7266L100.193 26.8346L100.435 26.2854L95.6409 24.1774L95.3994 24.7266ZM100.193 26.8345C101.332 27.3371 102.088 28.0124 102.088 28.94H102.688C102.688 27.6236 101.608 26.8029 100.435 26.2855L100.193 26.8345ZM102.088 28.94C102.088 30.3383 100.898 31.4982 99.0849 31.53L99.0954 32.13C101.158 32.0938 102.688 30.7377 102.688 28.94H102.088ZM99.0902 31.53C98.1995 31.53 97.275 31.3106 96.549 30.8279C95.8317 30.351 95.2974 29.6115 95.1722 28.5314L94.5762 28.6006C94.7229 29.8665 95.3616 30.759 96.2168 31.3276C97.0633 31.8904 98.1109 32.13 99.0902 32.13V31.53ZM94.6782 28.3389L92.9442 29.8349L93.3361 30.2891L95.0701 28.7931L94.6782 28.3389ZM92.9384 30.284C94.497 31.701 96.6463 32.47 99.0222 32.47V31.87C96.7741 31.87 94.7753 31.143 93.342 29.84L92.9384 30.284ZM116.263 24.316L116.142 24.5908L116.144 24.5917L116.263 24.316ZM111.843 22.378L111.721 22.6525L111.722 22.6528L111.843 22.378ZM112.965 17.38V17.0799L112.959 17.0801L112.965 17.38ZM116.603 19.93L116.312 20.004L116.439 20.5017L116.81 20.1469L116.603 19.93ZM118.133 18.468L118.34 18.6849L118.608 18.4291L118.302 18.2203L118.133 18.468ZM109.531 24.452L109.651 24.1773L109.647 24.1756L109.531 24.452ZM114.325 26.56L114.446 26.2855L114.445 26.2854L114.325 26.56ZM113.101 31.83V32.13L113.106 32.13L113.101 31.83ZM108.885 28.566L109.183 28.5314L109.117 27.9689L108.689 28.3389L108.885 28.566ZM107.151 30.062L106.955 29.8349L106.698 30.0561L106.949 30.284L107.151 30.062ZM113.033 32.47C113.988 32.47 115.475 32.2335 116.736 31.559C118.005 30.8794 119.079 29.7312 119.079 27.92H118.479C118.479 29.4408 117.597 30.4176 116.452 31.03C115.299 31.6475 113.913 31.87 113.033 31.87V32.47ZM119.079 27.92C119.079 26.3348 118.154 24.8003 116.381 24.0403L116.144 24.5917C117.703 25.2597 118.479 26.5812 118.479 27.92H119.079ZM116.383 24.0413L111.963 22.1032L111.722 22.6528L116.142 24.5907L116.383 24.0413ZM111.964 22.1035C111.392 21.8515 110.965 21.6084 110.678 21.2954C110.403 20.9957 110.239 20.6117 110.239 20.032H109.639C109.639 20.7443 109.848 21.2783 110.236 21.7011C110.612 22.1106 111.137 22.3945 111.721 22.6525L111.964 22.1035ZM110.239 20.032C110.239 18.7387 111.323 17.7116 112.97 17.6799L112.959 17.0801C111.07 17.1164 109.639 18.3333 109.639 20.032H110.239ZM112.965 17.68C113.778 17.68 114.507 17.843 115.082 18.2072C115.65 18.567 116.091 19.1376 116.312 20.004L116.893 19.856C116.638 18.8523 116.11 18.148 115.403 17.7003C114.703 17.257 113.851 17.08 112.965 17.08V17.68ZM116.81 20.1469L118.34 18.6849L117.925 18.2511L116.395 19.7131L116.81 20.1469ZM118.302 18.2203C116.848 17.2277 115.018 16.74 113.033 16.74V17.34C114.923 17.34 116.629 17.8043 117.963 18.7157L118.302 18.2203ZM113.033 16.74C110.658 16.74 109.117 17.4488 108.167 18.3622C107.224 19.269 106.885 20.3586 106.885 21.086H107.485C107.485 20.5214 107.757 19.588 108.582 18.7947C109.401 18.0082 110.783 17.34 113.033 17.34V16.74ZM106.885 21.086C106.885 22.5685 107.775 24.0362 109.414 24.7284L109.647 24.1756C108.227 23.5758 107.485 22.3235 107.485 21.086H106.885ZM109.41 24.7266L114.204 26.8346L114.445 26.2854L109.651 24.1774L109.41 24.7266ZM114.203 26.8345C115.343 27.3371 116.099 28.0124 116.099 28.94H116.699C116.699 27.6236 115.618 26.8029 114.446 26.2855L114.203 26.8345ZM116.099 28.94C116.099 30.3383 114.908 31.4982 113.095 31.53L113.106 32.13C115.169 32.0938 116.699 30.7377 116.699 28.94H116.099ZM113.101 31.53C112.21 31.53 111.285 31.3106 110.559 30.8279C109.842 30.351 109.308 29.6115 109.183 28.5314L108.587 28.6006C108.733 29.8665 109.372 30.759 110.227 31.3276C111.074 31.8904 112.121 32.13 113.101 32.13V31.53ZM108.689 28.3389L106.955 29.8349L107.347 30.2891L109.081 28.7931L108.689 28.3389ZM106.949 30.284C108.507 31.701 110.657 32.47 113.033 32.47V31.87C110.784 31.87 108.786 31.143 107.352 29.84L106.949 30.284ZM145.777 32V32.3H146.907L145.926 31.7395L145.777 32ZM134.285 20.644L134.002 20.7449L134.243 21.4183L134.555 20.7749L134.285 20.644ZM124.969 19.794H124.669V20.9081L125.228 19.9446L124.969 19.794ZM124.969 17.04H125.269V16.6238L124.874 16.7554L124.969 17.04ZM121.161 18.366L121.119 18.069L120.168 18.2048L121.027 18.6343L121.161 18.366ZM121.943 19.692L122.234 19.6192L121.943 19.692ZM121.161 32L121.003 31.7449L120.106 32.3H121.161V32ZM126.023 32V32.3H127.153L126.172 31.7395L126.023 32ZM124.969 20.304L124.745 20.1047L124.669 20.1899V20.304H124.969ZM128.165 17.686V17.386H128.155L128.144 17.3867L128.165 17.686ZM131.021 32L130.868 31.7417L129.924 32.3H131.021V32ZM135.917 32V32.3L136.061 31.7366L135.917 32ZM134.421 21.086L134.145 20.9688L134.103 21.0665L134.132 21.1684L134.421 21.086ZM140.915 32L140.757 31.7449L139.86 32.3H140.915V32ZM145.926 31.7395C145.811 31.6737 145.689 31.5469 145.573 31.3387C145.457 31.1321 145.356 30.8622 145.273 30.5362C145.107 29.8841 145.023 29.0439 145.023 28.124H144.423C144.423 29.0741 144.509 29.9679 144.691 30.6843C144.783 31.0425 144.9 31.3655 145.049 31.6317C145.197 31.8964 145.386 32.1223 145.628 32.2605L145.926 31.7395ZM145.023 28.124V24.452H144.423V28.124H145.023ZM145.023 24.452C145.023 21.9844 144.497 20.0567 143.481 18.7395C142.456 17.4105 140.96 16.74 139.113 16.74V17.34C140.801 17.34 142.11 17.9445 143.006 19.106C143.911 20.2793 144.423 22.0576 144.423 24.452H145.023ZM139.113 16.74C136.094 16.74 134.559 19.3907 134.015 20.5131L134.555 20.7749C135.099 19.6533 136.488 17.34 139.113 17.34V16.74ZM134.567 20.5431C134.125 19.3055 133.438 18.3498 132.529 17.7049C131.621 17.0598 130.512 16.74 129.253 16.74V17.34C130.408 17.34 131.39 17.6322 132.182 18.1941C132.973 18.7562 133.594 19.6025 134.002 20.7449L134.567 20.5431ZM129.253 16.74C126.566 16.74 125.332 18.5712 124.71 19.6434L125.228 19.9446C125.83 18.9088 126.908 17.34 129.253 17.34V16.74ZM125.269 19.794V17.04H124.669V19.794H125.269ZM124.874 16.7554C124.84 16.7666 124.806 16.7851 124.794 16.7911C124.774 16.8017 124.749 16.8154 124.721 16.8306C124.664 16.8616 124.588 16.903 124.493 16.9528C124.303 17.0522 124.038 17.1847 123.711 17.3254C123.056 17.6073 122.156 17.9208 121.119 18.069L121.203 18.663C122.308 18.5052 123.261 18.1727 123.949 17.8766C124.293 17.7283 124.572 17.5888 124.771 17.4842C124.871 17.432 124.951 17.3884 125.007 17.3578C125.036 17.3421 125.057 17.3309 125.072 17.3232C125.095 17.3108 125.085 17.3177 125.064 17.3246L124.874 16.7554ZM121.027 18.6343C121.127 18.6842 121.242 18.7933 121.357 18.9892C121.47 19.183 121.572 19.4434 121.652 19.7648L122.234 19.6192C122.144 19.2606 122.025 18.943 121.875 18.6863C121.726 18.4317 121.535 18.2178 121.295 18.0977L121.027 18.6343ZM121.652 19.7648C121.813 20.4096 121.881 21.2651 121.881 22.242H122.481C122.481 21.2469 122.413 20.3344 122.234 19.6192L121.652 19.7648ZM121.881 22.242V28.124H122.481V22.242H121.881ZM121.881 28.124C121.881 29.0458 121.805 29.8782 121.647 30.5265C121.485 31.1935 121.253 31.5903 121.003 31.7449L121.319 32.2551C121.783 31.9677 122.061 31.3615 122.23 30.6685C122.404 29.9568 122.481 29.0722 122.481 28.124H121.881ZM121.161 32.3H126.023V31.7H121.161V32.3ZM126.172 31.7395C126.057 31.6737 125.935 31.5469 125.819 31.3387C125.703 31.1321 125.602 30.8622 125.519 30.5362C125.353 29.8841 125.269 29.0439 125.269 28.124H124.669C124.669 29.0741 124.755 29.9679 124.937 30.6843C125.029 31.0425 125.146 31.3655 125.295 31.6317C125.443 31.8964 125.632 32.1223 125.874 32.2605L126.172 31.7395ZM125.269 28.124V20.304H124.669V28.124H125.269ZM125.193 20.5033C125.247 20.4429 125.305 20.3528 125.358 20.2688C125.418 20.1725 125.479 20.0718 125.559 19.9459C125.714 19.7022 125.911 19.4112 126.156 19.1275C126.65 18.5569 127.313 18.0455 128.186 17.9853L128.144 17.3867C127.045 17.4625 126.246 18.1071 125.703 18.735C125.43 19.0505 125.214 19.3694 125.053 19.6241C124.974 19.7473 124.901 19.8678 124.849 19.9497C124.79 20.0437 124.759 20.0886 124.745 20.1047L125.193 20.5033ZM128.165 17.986H128.471V17.386H128.165V17.986ZM128.471 17.986C129.051 17.986 129.846 18.108 130.511 18.9326C131.191 19.7759 131.775 21.4013 131.775 24.52H132.375C132.375 21.3487 131.786 19.5571 130.978 18.5559C130.156 17.536 129.149 17.386 128.471 17.386V17.986ZM131.775 24.52V28.124H132.375V24.52H131.775ZM131.775 28.124C131.775 29.046 131.699 29.8776 131.537 30.5247C131.371 31.1891 131.133 31.5855 130.868 31.7417L131.174 32.2583C131.657 31.9725 131.946 31.3659 132.119 30.6703C132.298 29.9574 132.375 29.072 132.375 28.124H131.775ZM131.021 32.3H135.917V31.7H131.021V32.3ZM136.061 31.7366C135.806 31.5977 135.568 31.2105 135.401 30.5379C135.239 29.8863 135.163 29.0461 135.163 28.124H134.563C134.563 29.0719 134.64 29.9657 134.818 30.6826C134.991 31.3785 135.28 31.9943 135.773 32.2634L136.061 31.7366ZM135.163 28.124V24.452H134.563V28.124H135.163ZM135.163 24.452C135.163 23.1336 134.989 21.9838 134.709 21.0036L134.132 21.1684C134.396 22.0922 134.563 23.1864 134.563 24.452H135.163ZM134.697 21.2032C134.925 20.665 135.377 19.8445 135.98 19.1642C136.59 18.4759 137.305 17.986 138.059 17.986V17.386C137.045 17.386 136.179 18.0351 135.531 18.7663C134.876 19.5055 134.392 20.385 134.145 20.9688L134.697 21.2032ZM138.059 17.986H138.093V17.386H138.059V17.986ZM138.093 17.986C138.646 17.986 139.5 17.9987 140.236 18.7614C140.984 19.5359 141.669 21.1472 141.669 24.52H142.269C142.269 21.0928 141.577 19.2871 140.668 18.3446C139.746 17.3903 138.662 17.386 138.093 17.386V17.986ZM141.669 24.52V28.124H142.269V24.52H141.669ZM141.669 28.124C141.669 29.0437 141.585 29.8754 141.419 30.523C141.248 31.1889 141.009 31.5888 140.757 31.7449L141.073 32.2551C141.535 31.9692 141.822 31.3661 142 30.672C142.183 29.9596 142.269 29.0742 142.269 28.124H141.669ZM140.915 32.3H145.777V31.7H140.915V32.3ZM162.876 24.316V24.616H163.18L163.176 24.3116L162.876 24.316ZM161.516 29.246L161.76 29.4204L161.296 29.0414L161.516 29.246ZM155.532 31.184L155.492 31.4815L155.502 31.4825L155.532 31.184ZM151.146 24.316V24.016H150.846V24.316H151.146ZM159.918 23.976V24.276H160.228L160.218 23.9664L159.918 23.976ZM151.146 23.976L150.846 23.9661L150.836 24.276H151.146V23.976ZM163.176 24.3116C163.141 21.9262 162.279 20.0267 160.883 18.7246C159.49 17.4249 157.586 16.74 155.498 16.74V17.34C157.456 17.34 159.207 17.9811 160.474 19.1634C161.739 20.3433 162.543 22.0818 162.576 24.3204L163.176 24.3116ZM155.498 16.74C153.407 16.74 151.493 17.4522 150.101 18.7869C148.706 20.1238 147.854 22.0662 147.854 24.486H148.454C148.454 22.2138 149.25 20.4332 150.516 19.2201C151.784 18.0048 153.543 17.34 155.498 17.34V16.74ZM147.854 24.486C147.854 27.0041 148.704 29.0056 150.098 30.3778C151.491 31.7484 153.406 32.47 155.498 32.47V31.87C153.544 31.87 151.787 31.1976 150.519 29.9502C149.253 28.7044 148.454 26.8639 148.454 24.486H147.854ZM155.498 32.47C158.064 32.47 160.337 31.4127 161.76 29.4204L161.272 29.0716C159.975 30.8873 157.895 31.87 155.498 31.87V32.47ZM161.516 29.246C161.296 29.0414 161.296 29.0414 161.296 29.0413C161.296 29.0413 161.297 29.0412 161.297 29.0412C161.297 29.0411 161.297 29.0411 161.297 29.0411C161.297 29.0411 161.297 29.0412 161.296 29.0415C161.296 29.042 161.295 29.0429 161.294 29.0443C161.291 29.0472 161.286 29.0518 161.28 29.0582C161.268 29.0709 161.248 29.0904 161.222 29.1157C161.169 29.1664 161.089 29.2403 160.982 29.3298C160.769 29.5089 160.452 29.7494 160.042 29.9903C159.221 30.4722 158.032 30.952 156.552 30.952V31.552C158.165 31.552 159.458 31.0288 160.346 30.5077C160.79 30.2471 161.134 29.9861 161.368 29.7891C161.486 29.6905 161.576 29.6077 161.637 29.5487C161.668 29.5192 161.691 29.4956 161.708 29.4789C161.716 29.4706 161.722 29.4639 161.727 29.4592C161.729 29.4568 161.731 29.4549 161.732 29.4534C161.733 29.4527 161.734 29.4521 161.734 29.4516C161.734 29.4514 161.735 29.4512 161.735 29.451C161.735 29.4509 161.735 29.4508 161.735 29.4508C161.735 29.4507 161.735 29.4506 161.516 29.246ZM156.552 30.952C156.229 30.952 155.904 30.9197 155.562 30.8855L155.502 31.4825C155.839 31.5163 156.194 31.552 156.552 31.552V30.952ZM155.571 30.8866C154.363 30.7255 153.347 30.2076 152.625 29.2142C151.898 28.2126 151.446 26.6935 151.446 24.486H150.846C150.846 26.7665 151.312 28.4264 152.14 29.5668C152.974 30.7154 154.15 31.3025 155.492 31.4814L155.571 30.8866ZM151.446 24.486V24.316H150.846V24.486H151.446ZM151.146 24.616H162.876V24.016H151.146V24.616ZM155.532 17.68C156.718 17.68 157.69 18.2118 158.394 19.2524C159.107 20.3059 159.551 21.8919 159.618 23.9856L160.218 23.9664C160.149 21.8101 159.691 20.0981 158.891 18.9161C158.083 17.7212 156.93 17.08 155.532 17.08V17.68ZM159.918 23.676H151.146V24.276H159.918V23.676ZM151.446 23.9859C151.513 21.9607 151.947 20.373 152.658 19.301C153.361 18.241 154.334 17.68 155.532 17.68V17.08C154.112 17.08 152.96 17.76 152.158 18.9695C151.364 20.167 150.915 21.8773 150.846 23.9661L151.446 23.9859Z" fill="black"/>
<rect width="40" height="40" rx="20" fill="black" fill-opacity="0.2"/>
<path fill-rule="evenodd" clip-rule="evenodd" d="M13.9018 9.16666L19.9993 13.2549L26.0969 9.16666L25.5634 10.9288L21.2188 14.5237L22.2097 15.722L20.8377 18.5415L21.981 19.8544L19.9993 25.9869L18.0176 19.8544L19.1609 18.5415L17.789 15.722L18.7798 14.5237L14.4353 10.9288L13.9018 9.16666Z" fill="black"/>
<path fill-rule="evenodd" clip-rule="evenodd" d="M20 27.8464L13.9417 9.16666H7.5L9.8773 15.838C11.5133 16.0253 14.2945 17.3127 12.3313 20.9644L20 34.1667L27.6687 20.9644C25.7055 17.3127 28.4867 16.0253 30.1227 15.838L32.5 9.16666H26.0583L20 27.8464Z" fill="black"/>
</svg>
