<svg width="121" height="21" viewBox="0 0 121 21" fill="none" xmlns="http://www.w3.org/2000/svg">
<path fill-rule="evenodd" clip-rule="evenodd" d="M78.7137 2.39623C78.9438 2.39623 79.3492 2.45239 79.3492 2.0867C79.3492 1.7984 79.1164 1.76142 78.8692 1.76142H78.3679V2.39623H78.7137ZM79.5588 3.39467H79.2896L78.7719 2.56743H78.3665V3.39467H78.1364V1.60734H78.924C79.0965 1.60734 79.2301 1.62857 79.3663 1.70321C79.4814 1.76211 79.5574 1.91687 79.5574 2.08807C79.5574 2.45376 79.3074 2.56812 79.0198 2.56812L79.5588 3.39467ZM80.1354 2.49279C80.1338 2.12623 79.9874 1.77515 79.7282 1.51595C79.469 1.25675 79.1179 1.11042 78.7514 1.1088C77.9824 1.1088 77.3325 1.72444 77.3325 2.49279C77.3325 3.27963 77.9824 3.91239 78.7514 3.91239C79.5012 3.9117 80.1354 3.27963 80.1354 2.49279ZM77.1585 2.49279C77.1583 2.28433 77.1995 2.0779 77.2797 1.88548C77.3599 1.69306 77.4775 1.51847 77.6256 1.37183C77.7738 1.22519 77.9496 1.10943 78.1429 1.03125C78.3361 0.953063 78.5429 0.914016 78.7514 0.916372C79.6368 0.916372 80.347 1.62857 80.347 2.49279C80.347 3.37619 79.6368 4.10413 78.7514 4.10413C77.8495 4.10413 77.1585 3.37619 77.1585 2.49279ZM118.704 2.39623C118.937 2.39623 119.34 2.45239 119.34 2.0867C119.34 1.7984 119.088 1.76142 118.878 1.76142H118.36V2.39623H118.704ZM119.532 3.39467H119.281L118.745 2.56743H118.36V3.39467H118.149V1.60734H118.918C119.071 1.60734 119.205 1.62857 119.358 1.70321C119.494 1.76211 119.551 1.91687 119.551 2.08807C119.551 2.45376 119.302 2.56812 118.993 2.56812L119.532 3.39467ZM120.126 2.49279C120.126 1.72444 119.513 1.1088 118.725 1.1088C118.543 1.10817 118.363 1.14353 118.195 1.21286C118.027 1.28219 117.874 1.38411 117.745 1.51275C117.617 1.64139 117.515 1.79421 117.445 1.96241C117.376 2.13061 117.341 2.31087 117.341 2.49279C117.341 3.27963 117.958 3.91239 118.725 3.91239C119.513 3.9117 120.126 3.27963 120.126 2.49279ZM117.148 2.49279C117.148 1.62857 117.821 0.916372 118.725 0.916372C119.608 0.916372 120.318 1.62857 120.318 2.49279C120.318 3.37619 119.608 4.10413 118.725 4.10413C117.821 4.10413 117.148 3.37619 117.148 2.49279ZM23.7411 17.1476C23.188 17.1496 22.6399 17.0421 22.1285 16.8313C21.6171 16.6205 21.1524 16.3106 20.7613 15.9195C20.3702 15.5283 20.0604 15.0636 19.8497 14.5521C19.639 14.0407 19.5316 13.4926 19.5337 12.9395C19.5335 12.3871 19.6422 11.84 19.8536 11.3297C20.0651 10.8193 20.375 10.3556 20.7658 9.96517C21.1566 9.57471 21.6205 9.26513 22.131 9.05412C22.6416 8.84311 23.1887 8.73483 23.7411 8.73546C24.2933 8.73519 24.8401 8.84374 25.3502 9.05492C25.8604 9.26609 26.324 9.57575 26.7144 9.96618C27.1048 10.3566 27.4145 10.8202 27.6257 11.3303C27.8368 11.8405 27.9454 12.3873 27.9451 12.9395C27.9474 13.4924 27.8402 14.0403 27.6298 14.5516C27.4194 15.0629 27.1099 15.5275 26.7191 15.9186C26.3283 16.3098 25.864 16.6198 25.3529 16.8307C24.8418 17.0416 24.294 17.1493 23.7411 17.1476ZM7.95022 17.1476C5.62668 17.1476 3.76402 15.2856 3.76402 12.9395C3.76402 10.6159 5.62668 8.73546 7.95022 8.73546C10.2738 8.73546 12.1577 10.6159 12.1577 12.9395C12.1596 13.4926 12.052 14.0406 11.8413 14.5519C11.6305 15.0633 11.3207 15.5279 10.9296 15.9191C10.5385 16.3102 10.074 16.6201 9.56263 16.8309C9.0513 17.0418 8.50331 17.1494 7.95022 17.1476ZM60.8876 17.1476C58.5641 17.1476 56.7021 15.2856 56.7021 12.9395C56.7021 10.6159 58.5641 8.73546 60.8876 8.73546C63.192 8.73546 65.0765 10.6159 65.0765 12.9395C65.0789 13.4911 64.9723 14.0378 64.7628 14.5482C64.5534 15.0585 64.2452 15.5225 63.856 15.9135C63.4668 16.3045 63.0043 16.6148 62.4949 16.8265C61.9855 17.0383 61.4393 17.1474 60.8876 17.1476ZM44.9262 17.1476C44.3727 17.1509 43.824 17.0444 43.3119 16.8341C42.7999 16.6238 42.3347 16.314 41.9433 15.9225C41.552 15.5311 41.2422 15.0658 41.032 14.5538C40.8218 14.0417 40.7153 13.493 40.7188 12.9395C40.7172 12.3867 40.825 11.839 41.036 11.3281C41.2469 10.8171 41.5568 10.3529 41.9479 9.96214C42.3389 9.57141 42.8034 9.26188 43.3145 9.05135C43.8257 8.84083 44.3734 8.73347 44.9262 8.73546C45.4785 8.7351 46.0255 8.84357 46.5359 9.05467C47.0463 9.26577 47.5102 9.57537 47.9009 9.96577C48.2916 10.3562 48.6016 10.8197 48.8131 11.33C49.0246 11.8402 49.1335 12.3871 49.1336 12.9395C49.1354 13.4925 49.0278 14.0405 48.817 14.5518C48.6063 15.0631 48.2964 15.5277 47.9054 15.9188C47.5143 16.31 47.0498 16.6199 46.5385 16.8308C46.0272 17.0416 45.4793 17.1493 44.9262 17.1476ZM27.967 18.724C26.7443 19.6278 25.2623 20.1125 23.7418 20.1059C19.7829 20.1059 16.576 16.8983 16.576 12.9395C16.576 9.00185 19.7829 5.7956 23.7418 5.7956C25.3155 5.7956 26.7748 6.31331 27.9458 7.17753V1.28206H31.0589V19.9916H27.967V18.724ZM77.946 10.368C77.7721 9.19428 76.8305 8.35129 75.3342 8.35129C74.5467 8.35129 72.8374 8.61836 72.8374 9.63666C72.8374 11.1549 75.4308 11.2884 76.0635 11.3281C80.2141 11.7123 81.4228 13.5373 81.4228 15.6876C81.4228 17.2818 80.6161 18.472 79.4649 19.3177C78.4857 20.0279 76.4689 20.3155 75.2383 20.3155C72.5101 20.3155 69.7455 18.8199 69.3798 15.4363H72.4348C72.6046 17.0319 74.2776 17.6269 75.2192 17.6269C76.9271 17.6269 78.1378 16.8983 78.1378 16.0526C78.1378 14.7083 76.8901 14.4193 75.0829 14.2283C74.068 14.1132 72.1245 13.7667 71.3192 13.0942C70.418 12.3841 69.649 11.576 69.649 10.1941C69.649 7.71578 71.5883 5.75725 75.4123 5.73602C78.5809 5.71753 80.9818 7.60142 81.0564 10.3461L77.946 10.368ZM12.1761 18.724C10.9535 19.6284 9.47105 20.1132 7.95022 20.1059C3.97494 20.1059 0.805664 16.8983 0.805664 12.9395C0.805664 9.00185 3.97494 5.7956 7.95022 5.7956C9.52664 5.7956 10.986 6.31331 12.1761 7.17753V5.81477H15.2489V19.9916H12.1761V18.724ZM36.397 4.83482V1.26288H33.3051V4.83482H36.397ZM36.397 19.9909V5.81409H33.3051V19.9909H36.397ZM65.0765 18.724C63.9233 19.6067 62.4647 20.1059 60.8876 20.1059C56.9315 20.1059 53.7245 16.8983 53.7245 12.9395C53.7245 9.00185 56.9315 5.7956 60.8876 5.7956C62.4647 5.7956 63.924 6.31331 65.0765 7.17753V5.81477H68.1862V19.9916H65.1142L65.0765 18.724ZM49.1521 18.724C47.9811 19.6067 46.5033 20.1059 44.9262 20.1059C40.9886 20.1059 37.7631 16.8983 37.7631 12.9395C37.7631 9.00185 40.9886 5.7956 44.9262 5.7956C46.5033 5.7956 47.9626 6.31331 49.1521 7.17753V1.28206H52.2255V19.9916H49.1521V18.724ZM105.318 11.3281C105.491 7.96643 104.49 4.27739 101.8 0.686279C99.19 4.04798 98.2696 7.87055 98.4984 11.3281H105.318ZM98.901 13.9961C98.786 13.4948 98.6901 12.9893 98.6134 12.4807H105.202C105.127 12.9895 105.031 13.4951 104.914 13.9961H98.901ZM100.438 17.8016C100.861 18.5055 101.349 19.1679 101.897 19.78C102.436 19.1835 102.916 18.5103 103.359 17.8016H100.438ZM115.594 11.3466C116.362 9.75171 116.901 7.96642 117.149 5.96817C112.675 6.35303 109.16 8.5218 106.795 11.3466H115.594ZM114.999 12.4807C114.691 13.0169 114.363 13.4969 114.019 13.9961L105.047 13.9585C105.335 13.4784 105.624 12.9395 105.951 12.4807H114.999ZM111.464 16.6484C112.026 16.1894 112.552 15.6883 113.038 15.1493L90.7567 15.1308C91.2584 15.6861 91.8042 16.2 92.3886 16.6675L111.464 16.6484ZM103.685 17.8016C103.553 18.4398 103.476 19.0882 103.455 19.7396C105.587 19.6444 107.795 18.9904 109.794 17.8016H103.685ZM88.7988 12.4807C89.1241 13.0169 89.4514 13.4969 89.8178 13.9961H98.7497C98.4984 13.4784 98.1923 12.9799 97.8629 12.4807H88.7988ZM94.0218 17.8016C96.0201 18.9904 98.2108 19.6444 100.342 19.7396C100.318 19.0894 100.248 18.4418 100.132 17.8016H94.0218ZM96.9987 11.3466C94.6566 8.5218 91.1621 6.35303 86.6848 5.96817C86.9123 7.82818 87.4244 9.64218 88.203 11.3466H96.9987Z" fill="black"/>
</svg>
