<svg width="64" height="64" viewBox="0 0 64 64" fill="none" xmlns="http://www.w3.org/2000/svg">
<path fill-rule="evenodd" clip-rule="evenodd" d="M43.3043 14.7134C45.3134 13.7087 46.3443 13.8631 46.3702 14.8678C46.3954 16.1816 46.1893 17.9334 46.0601 19.1958C45.2878 26.0488 44.051 31.6391 43.9481 38.698C47.2717 30.0932 50.0281 24.1679 53.6094 16.8258C54.7429 14.4813 55.49 14.9193 56.4173 14.4813C60.05 12.8581 60.1785 13.8628 59.6891 15.8722C57.9377 23.1632 53.4546 46.2204 52.7594 49.7505C52.5532 50.7811 51.4197 50.3687 51.162 49.9567C49.8223 48.179 48.3793 48.1528 48.5337 46.9422C49.3584 41.0687 52.2955 26.2035 53.0426 22.6996C49.1523 30.6341 45.1331 40.6045 43.0729 46.2204C42.6346 47.4057 41.8361 47.3287 41.3467 46.4525C40.6248 45.1898 39.2851 44.5719 39.0796 43.1292C38.3578 38.5174 39.8778 29.7067 40.084 24.1164C37.9972 30.1961 34.4422 42.0471 32.8963 47.3795C32.2525 49.5954 30.1142 49.2089 30.681 47.0963C33.0507 38.105 38.1263 22.261 40.3157 16.5675C40.831 15.2028 42.196 15.2802 43.3043 14.7134ZM30.4745 13.6058C29.7785 13.4514 27.7691 14.5331 26.5327 14.7138C26.1465 14.817 25.7856 15.2032 25.6571 15.512C23.6985 20.0202 21.947 24.2974 20.4529 28.1611C18.1965 28.5749 15.9462 29.0216 13.7028 29.5009C15.532 24.8638 17.3614 20.2526 19.1388 15.8466C20.0146 13.6314 17.6964 13.4252 16.794 15.6408C15.6349 18.5005 13.4449 23.8843 11.0234 30.1453C9.24572 30.5833 7.31333 31.0727 5.3557 31.6653C3.91305 32.0515 3.86125 32.4376 4.47949 33.3142C4.84007 33.7777 5.5101 33.7262 5.84511 34.0871C6.69543 34.9627 7.21073 36.0192 8.73008 36.1736C7.33923 39.7804 5.99917 43.4646 4.8145 46.994C4.04154 49.2352 6.23126 49.699 7.05568 47.329C8.3954 43.5419 9.81216 39.7034 11.281 35.8127C12.4919 35.5554 15.4031 34.9371 18.1082 34.3186C15.9699 40.2439 14.5787 44.701 14.0116 46.8907C13.909 47.3028 14.1149 47.509 14.1919 47.7148C14.8878 48.7454 15.609 48.7969 16.5363 50.1111C16.7684 50.472 17.6184 50.6519 17.9279 49.776C19.7746 44.1698 21.7415 38.6039 23.8273 33.0821C24.6262 32.8759 26.0691 32.5409 26.9447 31.253C28.4906 28.9341 28.9289 29.3983 29.3409 28.7023C29.8044 27.8009 29.4694 27.002 27.8209 27.1823C27.8209 27.1823 27.2023 27.2341 26.0173 27.363C27.872 22.6482 29.5215 18.6552 30.6548 15.5893C31.0409 14.5331 31.093 13.7602 30.4745 13.6058Z" fill="#C7232F"/>
<path fill-rule="evenodd" clip-rule="evenodd" d="M28.662 42.8821C28.9299 42.5421 29.1729 42.1912 29.3921 41.8671C30.3682 40.4228 29.418 39.5738 28.4133 40.4241C28.2698 40.556 28.1208 40.6997 27.9727 40.8491C27.8079 40.3338 27.6445 39.818 27.4823 39.3019C27.9428 38.7374 28.391 38.1581 28.7735 37.5644C30.3882 35.0603 27.2283 33.6229 25.8623 35.2462C25.1415 36.0965 25.3218 36.9465 25.5276 37.6936C25.5874 37.918 25.6804 38.2387 25.7956 38.6279C25.2946 39.1512 24.81 39.69 24.3426 40.2435C22.7712 42.0474 23.2081 44.3699 24.8579 44.8809C25.8527 45.1894 26.7913 44.7398 27.6045 44.0226C27.6436 44.1249 27.6812 44.2222 27.7177 44.3145C28.1556 45.3966 29.5212 45.0615 28.98 43.7477C28.893 43.5269 28.7841 43.2298 28.662 42.8821ZM26.4254 40.6121C26.5589 41.0327 26.7027 41.4747 26.8461 41.8977C26.6665 42.0474 26.4842 42.1988 26.3006 42.3051C25.6618 42.6746 25.1926 42.2792 26.017 41.1715C26.1518 40.9803 26.29 40.795 26.4254 40.6121ZM26.9411 37.4575C26.8936 37.3376 26.8664 37.2201 26.8415 37.1268C26.3793 35.4003 28.3582 35.8614 27.3571 36.998C27.215 37.159 27.0858 37.3184 26.9411 37.4575Z" fill="#C7232F"/>
</svg>
