<svg width="52" height="20" viewBox="0 0 52 20" fill="none" xmlns="http://www.w3.org/2000/svg">
<path fill-rule="evenodd" clip-rule="evenodd" d="M7.19156 1.73218C3.91081 5.58501 0.765197 10.3629 0.733655 13.9341C0.72137 15.2778 1.15035 16.4509 2.1793 17.3394C3.66013 18.619 5.29171 19.0702 6.91531 19.0729C9.28797 19.0762 11.644 18.119 13.4888 17.3809C16.5955 16.1385 50.938 1.22485 50.938 1.22485C51.2693 1.05883 51.2072 0.851983 50.7925 0.955243C50.6252 0.997078 13.4054 11.0837 13.4054 11.0837C12.7004 11.2831 11.9719 11.3874 11.2393 11.3938C8.37888 11.4107 5.83357 9.82299 5.85416 6.47717C5.86213 5.16799 6.26288 3.5892 7.19156 1.73218Z" fill="black"/>
</svg>
