<svg width="58" height="17" viewBox="0 0 58 17" fill="none" xmlns="http://www.w3.org/2000/svg">
<path fill-rule="evenodd" clip-rule="evenodd" d="M57.6738 7.04267C58.0847 7.63346 58.126 8.56458 57.69 9.28619C57.3006 9.93068 54.9704 12.4038 54.2121 13.1986C53.5548 13.8889 52.6676 14.5801 51.7944 14.5801H33.5107C31.0397 14.5801 30.8906 13.7382 30.8906 11.8348V4.11338C30.8906 2.16934 31.4615 1.60742 33.149 1.60742H51.7944C52.6676 1.60742 53.4447 2.05536 54.3372 2.96742C55.095 3.74138 57.3586 6.58815 57.6738 7.04267Z" fill="#33CCCC"/>
<path fill-rule="evenodd" clip-rule="evenodd" d="M57.6738 7.04267C58.0847 7.63346 58.126 8.56458 57.69 9.28619C57.3006 9.93068 54.9704 12.4038 54.2121 13.1986C53.5548 13.8889 52.6676 14.5801 51.7944 14.5801H33.5107C31.0397 14.5801 30.8906 13.7382 30.8906 11.8348V4.11338C30.8906 2.16934 31.4615 1.60742 33.149 1.60742H51.7944C52.6676 1.60742 53.4447 2.05536 54.3372 2.96742C55.095 3.74138 57.3586 6.58815 57.6738 7.04267Z" fill="url(#paint0_linear_3995_29827)"/>
<path fill-rule="evenodd" clip-rule="evenodd" d="M35.0354 4.5922V4.54136C35.0354 4.29311 35.0147 4.04772 34.6099 4.04772H33.0819C32.7268 4.04772 32.7044 4.24508 32.7044 4.55172V6.59232C33.4482 5.52348 34.2729 5.02686 35.0354 4.5922ZM45.286 11.9657V11.8561H45.2871V6.94473C45.2871 4.88509 44.3861 3.85537 42.5841 3.85559C42.0848 3.85087 41.5939 3.98572 41.1664 4.24508C40.7374 4.50488 40.3253 4.86778 39.93 5.33378C39.7357 4.82738 39.4427 4.45442 39.051 4.21491C38.6592 3.9754 38.1516 3.85562 37.5282 3.85559C36.8066 3.85559 35.9677 4.10962 35.3731 4.60116C35.2401 4.73505 32.704 6.741 32.704 8.80118V11.9455C32.704 12.0455 32.656 12.4249 33.0791 12.4249H34.6698C35.1643 12.4249 35.116 12.0995 35.116 11.9657V6.88013C35.3845 6.52221 35.9332 5.63827 36.8243 5.63827C37.1663 5.63827 37.4126 5.75458 37.5632 5.98723C37.7138 6.21987 37.7894 6.60993 37.79 7.15742V11.1295H37.7882V11.9456C37.7882 12.0456 37.7402 12.425 38.163 12.425H39.7335C40.2283 12.425 40.18 12.0996 40.18 11.9658V11.8562H40.1819V6.88035C40.4696 6.52243 41.0428 5.63848 41.8896 5.63848C42.2381 5.63848 42.4894 5.75481 42.6435 5.98744C42.7977 6.22008 42.8747 6.61014 42.8745 7.15763V11.1297H42.8729V11.9458C42.8729 12.0459 42.8251 12.4252 43.2482 12.4252H44.8395C45.3343 12.425 45.286 12.0995 45.286 11.9657ZM54.0467 9.96883C53.4812 11.498 52.1262 12.3526 50.4474 12.3526C48.0157 12.3526 46.4095 10.6874 46.4095 8.18994C46.4095 5.72257 48.077 3.93411 50.3717 3.93411C52.6418 3.93411 54.1643 5.52283 54.2609 8.082C54.2733 8.409 54.1782 8.69789 53.7717 8.69789H48.6118C48.6425 10.0702 49.3009 10.8104 50.463 10.8104C51.1719 10.8104 51.5919 10.5033 51.9576 9.90137C52.1166 9.63946 52.4425 9.65403 52.4425 9.65403H53.7717C53.9887 9.65387 54.0848 9.86694 54.0467 9.96867V9.96883ZM50.3717 5.52186C49.4072 5.52186 48.7343 6.20018 48.6118 7.3109H52.0693C51.9775 6.33937 51.4571 5.52186 50.3717 5.52186Z" fill="white"/>
<path fill-rule="evenodd" clip-rule="evenodd" d="M9.49707 1.67742C9.29267 1.35011 9.02754 1.06538 8.71611 0.838753C8.40468 0.61887 8.0627 0.446466 7.70111 0.327134C7.29951 0.19568 6.88471 0.109078 6.46426 0.0688962C5.98324 0.0213605 5.50017 -0.00160524 5.01688 8.7117e-05H0.781265C0.400397 8.7117e-05 0.00116382 0.251472 0.00116382 0.725528V7.62755C0.537719 8.77788 1.5829 9.99913 2.7712 10.5828V9.21395C2.7712 8.49163 3.31248 8.33027 3.53637 8.33027H4.78874C6.51383 8.33027 7.83048 7.9662 8.73872 7.23811C9.64696 6.51105 10.101 5.4311 10.101 3.99822C10.1036 3.58419 10.0558 3.17141 9.95876 2.76904C9.86226 2.38325 9.70646 2.01496 9.49707 1.67742ZM7.02885 5.22211C6.88261 5.47718 6.66447 5.68302 6.40202 5.81373C6.11755 5.95011 5.81026 6.03192 5.49593 6.05497C5.15361 6.08562 4.80011 6.101 4.43543 6.10106H3.2453C2.95417 6.10106 2.7712 5.8629 2.7712 5.51156V2.6897C2.7712 2.37323 2.97651 2.24047 3.22269 2.24047H4.43543C4.83047 2.24047 5.20094 2.25193 5.54684 2.27485C5.85816 2.28912 6.1639 2.3633 6.44745 2.49337C6.70018 2.61427 6.90936 2.811 7.04614 3.05642C7.19028 3.30881 7.26235 3.665 7.26246 4.12499C7.26246 4.59203 7.18459 4.95774 7.02885 5.22211ZM2.7712 11.0288C1.46427 10.5041 0.588093 9.87802 0.00116382 9.25739V12.5894C0.00116382 12.5894 -0.0471699 13.1328 0.479126 13.1328H2.32702C2.83393 13.1328 2.77142 12.5894 2.77142 12.5894V11.0288H2.7712ZM28.9595 3.63102H27.301C26.964 3.63102 26.7419 3.77338 26.6083 4.14587C26.4746 4.51836 24.7168 9.43824 24.7168 9.43824C24.7168 9.43824 23.0352 4.61998 22.9029 4.2469C22.7706 3.87382 22.5533 3.63102 22.1618 3.63102H20.638C20.1004 3.63102 20.1004 4.05537 20.167 4.22364C20.2211 4.35964 22.3079 10.1076 23.1027 12.2973C23.2902 12.8143 23.3642 12.9699 23.37 13.1614C23.3758 13.3529 23.182 13.755 23.0481 13.9858C22.9866 14.0911 22.916 14.1908 22.8371 14.2837C24.3953 13.8149 26.1912 12.1137 27.1199 10.2708C28.0382 7.70235 29.2492 4.3095 29.3018 4.13594C29.3862 3.85482 29.3854 3.63102 28.9595 3.63102ZM21.6365 14.7725C21.4925 14.7699 21.3488 14.7595 21.206 14.7412C21.0312 14.7179 20.7041 14.7508 20.7041 15.0386V16.3254C20.7041 16.8166 20.9377 16.8493 21.0664 16.8784C21.4533 16.9595 21.848 16.9978 22.2433 16.9927C22.7673 16.9927 23.2231 16.8969 23.6109 16.7054C24.0025 16.5106 24.3515 16.2392 24.6373 15.9069C24.9524 15.537 25.2186 15.1278 25.4295 14.6894C25.661 14.2184 25.8832 13.6995 26.0962 13.1327C26.0962 13.1327 26.1875 12.8766 26.3379 12.457C25.8804 12.921 23.7243 14.9756 21.6365 14.7725ZM19.146 5.15859C19.056 4.94351 18.933 4.74391 18.7816 4.56704C18.6308 4.39726 18.4581 4.24843 18.2682 4.1245C18.0632 3.99058 17.8457 3.87705 17.6189 3.78553C17.3872 3.69462 17.149 3.62172 16.9062 3.5675C16.6303 3.50676 16.3503 3.46645 16.0685 3.44688C15.7641 3.4241 15.422 3.41262 15.0422 3.41245C12.5298 3.41245 11.0993 4.2104 10.7505 5.80634C10.637 6.30155 11.1245 6.33064 11.1245 6.33064H12.67C13.0735 6.33064 13.0562 6.19998 13.252 5.83332C13.3225 5.6338 13.4494 5.45927 13.6172 5.33112C13.9138 5.10151 14.3583 4.98668 14.9509 4.98664C15.521 4.98664 15.9352 5.09759 16.1935 5.31947C16.4518 5.54135 16.6037 5.87838 16.6495 6.33064C16.6495 6.85505 16.4867 7.20492 15.8559 7.20492C14.318 7.1488 12.6654 7.32365 11.7346 7.85994C10.8038 8.39622 10.2776 9.44466 10.2776 10.5706C10.2776 11.0299 10.3593 11.432 10.5228 11.777C10.6811 12.1152 10.9153 12.4121 11.2068 12.6443C11.5162 12.8868 11.8708 13.0645 12.2497 13.1671C12.6804 13.2857 13.1253 13.3439 13.5718 13.3398C14.2407 13.3398 14.8317 13.2555 15.3447 13.0869C15.8576 12.9186 16.6514 12.3637 16.7524 12.2827V12.5785C16.7524 12.8716 16.8412 13.1331 17.1893 13.1331H18.9865C19.3503 13.1331 19.4312 12.8716 19.4312 12.5499V6.98576C19.4343 6.63988 19.4115 6.29426 19.3629 5.95183C19.3244 5.67924 19.2514 5.41269 19.146 5.15859ZM16.6952 10.614C16.6952 10.614 16.2311 11.5828 14.5748 11.5828C14.119 11.5828 13.7486 11.4795 13.4634 11.2728C13.1781 11.0661 13.0356 10.7443 13.0358 10.3076C13.0358 9.74041 13.2676 9.34002 13.7314 9.10649C14.1947 8.87314 15.1223 8.73983 15.8174 8.75619C16.5125 8.77254 16.6952 9.21395 16.6952 9.5187V10.6143V10.614Z" fill="#333333"/>
<defs>
<linearGradient id="paint0_linear_3995_29827" x1="66.9572" y1="5.35309" x2="63.3733" y2="26.8929" gradientUnits="userSpaceOnUse">
<stop offset="0.47231" stop-color="#00CCCC"/>
<stop offset="1" stop-color="#3399FF"/>
</linearGradient>
</defs>
</svg>
