<svg width="22" height="22" viewBox="0 0 22 22" fill="none" xmlns="http://www.w3.org/2000/svg">
<path fill-rule="evenodd" clip-rule="evenodd" d="M2.29339 11.0001C2.29083 12.1273 2.24053 13.6647 2.93788 14.2394C3.58834 14.7755 4.04614 14.6373 5.23368 14.7245C6.42207 14.8125 8.93014 18.3058 10.8636 17.2008C11.8611 16.4165 11.9352 14.7722 11.9352 11.0001C11.9352 7.22804 11.8611 5.58372 10.8636 4.79938C8.93014 3.69357 6.42207 7.18775 5.23368 7.27572C4.04614 7.36287 3.58834 7.22475 2.93788 7.7608C2.24053 8.33549 2.29083 9.87292 2.29339 11.0001Z" stroke="black" stroke-width="1.5" stroke-linecap="round" stroke-linejoin="round"/>
<path d="M17.9523 5.41199C20.2898 8.77709 20.2975 13.2159 17.9523 16.5876" stroke="#008F0E" stroke-width="1.5" stroke-linecap="round" stroke-linejoin="round"/>
<path d="M15.6578 7.62152C16.8599 9.72132 16.8599 12.2856 15.6578 14.3789" stroke="#008F0E" stroke-width="1.5" stroke-linecap="round" stroke-linejoin="round"/>
</svg>
