<svg width="20" height="16" viewBox="0 0 20 16" fill="none" xmlns="http://www.w3.org/2000/svg">
<path fill-rule="evenodd" clip-rule="evenodd" d="M1.29333 8.00011C1.29077 9.12729 1.24047 10.6647 1.93782 11.2394C2.58828 11.7755 3.04608 11.6373 4.23362 11.7245C5.42201 11.8125 7.93008 15.3058 9.86357 14.2008C10.861 13.4165 10.9352 11.7722 10.9352 8.00011C10.9352 4.22804 10.861 2.58372 9.86357 1.79938C7.93008 0.693574 5.42201 4.18775 4.23362 4.27572C3.04608 4.36287 2.58828 4.22475 1.93782 4.7608C1.24047 5.33549 1.29077 6.87292 1.29333 8.00011Z" stroke="black" stroke-width="1.5" stroke-linecap="round" stroke-linejoin="round"/>
<path d="M16.9523 2.41199C19.2898 5.77709 19.2975 10.2159 16.9523 13.5876" stroke="#EAA700" stroke-width="1.5" stroke-linecap="round" stroke-linejoin="round"/>
<path d="M14.6578 4.62152C15.8599 6.72132 15.8599 9.28563 14.6578 11.3789" stroke="#EAA700" stroke-width="1.5" stroke-linecap="round" stroke-linejoin="round"/>
</svg>
