<svg width="20" height="16" viewBox="0 0 20 16" fill="none" xmlns="http://www.w3.org/2000/svg">
<path fill-rule="evenodd" clip-rule="evenodd" d="M1.29339 8.00011C1.29083 9.12729 1.24053 10.6647 1.93788 11.2394C2.58834 11.7755 3.04614 11.6373 4.23368 11.7245C5.42207 11.8125 7.93014 15.3058 9.86363 14.2008C10.8611 13.4165 10.9352 11.7722 10.9352 8.00011C10.9352 4.22804 10.8611 2.58372 9.86363 1.79938C7.93014 0.693574 5.42207 4.18775 4.23368 4.27572C3.04614 4.36287 2.58834 4.22475 1.93788 4.7608C1.24053 5.33549 1.29083 6.87292 1.29339 8.00011Z" stroke="black" stroke-width="1.5" stroke-linecap="round" stroke-linejoin="round"/>
<path d="M16.9523 2.41199C19.2898 5.77709 19.2975 10.2159 16.9523 13.5876" stroke="#E17A02" stroke-width="1.5" stroke-linecap="round" stroke-linejoin="round"/>
<path d="M14.6578 4.62152C15.8599 6.72132 15.8599 9.28563 14.6578 11.3789" stroke="#E17A02" stroke-width="1.5" stroke-linecap="round" stroke-linejoin="round"/>
</svg>
