<svg width="20" height="20" viewBox="0 0 20 20" fill="none" xmlns="http://www.w3.org/2000/svg">
<path d="M9.723 2.08399C9.80506 2.02938 9.90143 2.00024 10 2.00024C10.0986 2.00024 10.1949 2.02938 10.277 2.08399C12.1649 3.35668 14.3169 4.18446 16.571 4.50499C16.6901 4.52207 16.799 4.58153 16.8778 4.67245C16.9566 4.76338 17 4.87967 17 4.99999V9.59999C16.6804 9.43643 16.3454 9.3048 16 9.20699V5.42699C14.019 5.09177 12.1191 4.38575 10.4 3.34599L10 3.09699L9.6 3.34599C7.88094 4.3861 5.98102 5.09246 4 5.42799V9.49999C4 12.742 5.798 15.143 9.478 16.746C9.673 17.181 9.922 17.586 10.218 17.952L10.18 17.967C10.0642 18.0117 9.93584 18.0117 9.82 17.967C5.308 16.23 3 13.39 3 9.49999V4.99999C3.00002 4.87952 3.04353 4.76311 3.12253 4.67216C3.20154 4.58122 3.31072 4.52185 3.43 4.50499C5.68377 4.18431 7.83543 3.35654 9.723 2.08399ZM19 14.5C19 15.6935 18.5259 16.8381 17.682 17.682C16.8381 18.5259 15.6935 19 14.5 19C13.3065 19 12.1619 18.5259 11.318 17.682C10.4741 16.8381 10 15.6935 10 14.5C10 13.3065 10.4741 12.1619 11.318 11.318C12.1619 10.4741 13.3065 9.99999 14.5 9.99999C15.6935 9.99999 16.8381 10.4741 17.682 11.318C18.5259 12.1619 19 13.3065 19 14.5ZM16.854 12.646C16.8076 12.5994 16.7524 12.5625 16.6916 12.5373C16.6309 12.5121 16.5658 12.4991 16.5 12.4991C16.4342 12.4991 16.3691 12.5121 16.3084 12.5373C16.2476 12.5625 16.1924 12.5994 16.146 12.646L13.5 15.293L12.854 14.646C12.7601 14.5521 12.6328 14.4994 12.5 14.4994C12.3672 14.4994 12.2399 14.5521 12.146 14.646C12.0521 14.7399 11.9994 14.8672 11.9994 15C11.9994 15.1328 12.0521 15.2601 12.146 15.354L13.146 16.354C13.1924 16.4005 13.2476 16.4375 13.3084 16.4627C13.3691 16.4879 13.4342 16.5009 13.5 16.5009C13.5658 16.5009 13.6309 16.4879 13.6916 16.4627C13.7524 16.4375 13.8076 16.4005 13.854 16.354L16.854 13.354C16.9006 13.3075 16.9375 13.2524 16.9627 13.1916C16.9879 13.1309 17.0009 13.0658 17.0009 13C17.0009 12.9342 16.9879 12.8691 16.9627 12.8084C16.9375 12.7476 16.9006 12.6924 16.854 12.646Z" fill="black"/>
</svg>
