<svg width="20" height="20" viewBox="0 0 20 20" fill="none" xmlns="http://www.w3.org/2000/svg">
<g clip-path="url(#clip0_2443_20799)">
<path d="M5.83333 14.1667C6.98393 14.1667 7.91667 13.2339 7.91667 12.0833C7.91667 10.9327 6.98393 10 5.83333 10C4.68274 10 3.75 10.9327 3.75 12.0833C3.75 13.2339 4.68274 14.1667 5.83333 14.1667Z" stroke="#303030" stroke-width="1.5" stroke-linecap="round" stroke-linejoin="round"/>
<path d="M14.1668 14.1667C15.3174 14.1667 16.2502 13.2339 16.2502 12.0833C16.2502 10.9327 15.3174 10 14.1668 10C13.0162 10 12.0835 10.9327 12.0835 12.0833C12.0835 13.2339 13.0162 14.1667 14.1668 14.1667Z" stroke="#303030" stroke-width="1.5" stroke-linecap="round" stroke-linejoin="round"/>
<path d="M10.0001 5.83341C11.1507 5.83341 12.0834 4.90067 12.0834 3.75008C12.0834 2.59949 11.1507 1.66675 10.0001 1.66675C8.84949 1.66675 7.91675 2.59949 7.91675 3.75008C7.91675 4.90067 8.84949 5.83341 10.0001 5.83341Z" stroke="#303030" stroke-width="1.5" stroke-linecap="round" stroke-linejoin="round"/>
<path d="M1.66675 18.3335C1.66675 16.0322 3.53216 14.1668 5.83341 14.1668C8.13466 14.1668 10.0001 16.0322 10.0001 18.3335C10.0001 16.0322 11.8655 14.1668 14.1667 14.1668C16.468 14.1668 18.3334 16.0322 18.3334 18.3335M14.1667 10.0002C14.1667 7.69891 12.3013 5.8335 10.0001 5.8335C7.69883 5.8335 5.83341 7.69891 5.83341 10.0002" stroke="#303030" stroke-width="1.5" stroke-linecap="round" stroke-linejoin="round"/>
</g>
<defs>
<clipPath id="clip0_2443_20799">
<rect width="20" height="20" fill="white"/>
</clipPath>
</defs>
</svg>
