<svg width="20" height="20" viewBox="0 0 20 20" fill="none" xmlns="http://www.w3.org/2000/svg">
<path d="M14.1665 8.33325C15.5472 8.33325 16.6665 7.21396 16.6665 5.83325C16.6665 4.45254 15.5472 3.33325 14.1665 3.33325C12.7858 3.33325 11.6665 4.45254 11.6665 5.83325C11.6665 7.21396 12.7858 8.33325 14.1665 8.33325Z" stroke="#303030" stroke-width="1.5" stroke-linecap="round" stroke-linejoin="round"/>
<path d="M5.83325 16.6665C7.21396 16.6665 8.33325 15.5472 8.33325 14.1665C8.33325 12.7858 7.21396 11.6665 5.83325 11.6665C4.45254 11.6665 3.33325 12.7858 3.33325 14.1665C3.33325 15.5472 4.45254 16.6665 5.83325 16.6665Z" stroke="#303030" stroke-width="1.5" stroke-linecap="round" stroke-linejoin="round"/>
<path d="M11.6666 11.6666H16.6666V15.8333C16.6666 16.0543 16.5788 16.2662 16.4225 16.4225C16.2662 16.5788 16.0543 16.6666 15.8333 16.6666H12.4999C12.2789 16.6666 12.0669 16.5788 11.9107 16.4225C11.7544 16.2662 11.6666 16.0543 11.6666 15.8333V11.6666ZM3.33325 3.33325H8.33325V7.49992C8.33325 7.72093 8.24545 7.93289 8.08917 8.08917C7.93289 8.24545 7.72093 8.33325 7.49992 8.33325H4.16659C3.94557 8.33325 3.73361 8.24545 3.57733 8.08917C3.42105 7.93289 3.33325 7.72093 3.33325 7.49992V3.33325Z" stroke="#303030" stroke-width="1.5" stroke-linecap="round" stroke-linejoin="round"/>
</svg>
