<svg width="18" height="18" viewBox="0 0 18 18" fill="none" xmlns="http://www.w3.org/2000/svg">
<path d="M15.7485 7.5C15.7395 5.86875 15.6675 4.98525 15.0908 4.40925C14.4323 3.75 13.371 3.75 11.25 3.75H9C6.879 3.75 5.81775 3.75 5.15925 4.40925C4.5 5.06775 4.5 6.129 4.5 8.25V12C4.5 14.121 4.5 15.1823 5.15925 15.8408C5.81775 16.5 6.879 16.5 9 16.5H11.25C13.371 16.5 14.4323 16.5 15.0908 15.8408C15.75 15.1823 15.75 14.121 15.75 12V11.25" stroke="#505050" stroke-width="1.2" stroke-linecap="round"/>
<path d="M2.25 7.5V12C2.25 12.5967 2.48705 13.169 2.90901 13.591C3.33097 14.0129 3.90326 14.25 4.5 14.25M13.5 3.75C13.5 3.15326 13.2629 2.58097 12.841 2.15901C12.419 1.73705 11.8467 1.5 11.25 1.5H8.25C5.42175 1.5 4.00725 1.5 3.129 2.379C2.6385 2.86875 2.42175 3.525 2.3265 4.5" stroke="#505050" stroke-width="1.2" stroke-linecap="round"/>
</svg>
