<svg width="20" height="20" viewBox="0 0 20 20" fill="none" xmlns="http://www.w3.org/2000/svg">
<path d="M14.1417 10.209V13.959C14.1417 17.084 12.8917 18.334 9.76666 18.334H6.01666C2.89166 18.334 1.64166 17.084 1.64166 13.959V10.209C1.64166 7.08398 2.89166 5.83398 6.01666 5.83398H9.76666C12.8917 5.83398 14.1417 7.08398 14.1417 10.209Z" stroke="black" stroke-width="1.5" stroke-linecap="round" stroke-linejoin="round"/>
<path d="M18.3083 4.87435V7.62435C18.3083 9.91602 17.3917 10.8327 15.1 10.8327H14.1417V10.2077C14.1417 7.08268 12.8917 5.83268 9.76666 5.83268H9.14166V4.87435C9.14166 2.58268 10.0583 1.66602 12.35 1.66602H15.1C17.3917 1.66602 18.3083 2.58268 18.3083 4.87435Z" stroke="black" stroke-width="1.5" stroke-linecap="round" stroke-linejoin="round"/>
</svg>
