<svg width="20" height="20" viewBox="0 0 20 20" fill="none" xmlns="http://www.w3.org/2000/svg">
<path d="M8.33335 3.74935V14.9993C8.33335 15.8993 7.96667 16.7243 7.38334 17.3243L7.35003 17.3577C7.27503 17.4327 7.19169 17.5077 7.11669 17.566C6.86669 17.7827 6.58334 17.9493 6.29168 18.066C6.20001 18.1077 6.10835 18.141 6.01669 18.1743C5.69169 18.2827 5.34169 18.3327 5.00002 18.3327C4.77502 18.3327 4.55003 18.3077 4.33336 18.266C4.22503 18.241 4.11668 18.216 4.00835 18.1827C3.87502 18.141 3.75003 18.0993 3.62503 18.041C3.62503 18.0327 3.62502 18.0327 3.61668 18.041C3.38335 17.9243 3.15836 17.791 2.95003 17.6327L2.94169 17.6243C2.83335 17.541 2.73336 17.4577 2.6417 17.3577C2.55003 17.2577 2.45835 17.1577 2.36668 17.0494C2.20835 16.841 2.07503 16.616 1.95836 16.3827C1.96669 16.3744 1.96669 16.3743 1.95836 16.3743C1.95836 16.3743 1.95835 16.366 1.95002 16.3577C1.90002 16.241 1.85835 16.116 1.81668 15.991C1.78335 15.8827 1.75834 15.7744 1.73334 15.666C1.69168 15.4494 1.66669 15.2243 1.66669 14.9993V3.74935C1.66669 2.49935 2.50002 1.66602 3.75002 1.66602H6.25002C7.50002 1.66602 8.33335 2.49935 8.33335 3.74935Z" stroke="black" stroke-width="1.5" stroke-linecap="round" stroke-linejoin="round"/>
<path d="M18.3333 13.7493V16.2493C18.3333 17.4993 17.5 18.3327 16.25 18.3327H5C5.34167 18.3327 5.69167 18.2827 6.01667 18.1743C6.10833 18.141 6.19999 18.1077 6.29166 18.066C6.58332 17.9493 6.86667 17.7827 7.11667 17.566C7.19167 17.5077 7.27501 17.4327 7.35001 17.3577L7.38332 17.3243L13.05 11.666H16.25C17.5 11.666 18.3333 12.4993 18.3333 13.7493Z" stroke="black" stroke-width="1.5" stroke-linecap="round" stroke-linejoin="round"/>
<path d="M4.00832 18.1839C3.50832 18.0339 3.03333 17.7589 2.64167 17.3589C2.24167 16.9672 1.96665 16.4922 1.81665 15.9922C2.14165 17.0339 2.96665 17.8589 4.00832 18.1839Z" stroke="black" stroke-width="1.5" stroke-linecap="round" stroke-linejoin="round"/>
<path d="M15.3083 9.40845L13.05 11.6668L7.3833 17.3251C7.96663 16.7251 8.33331 15.9001 8.33331 15.0001V6.95012L10.5916 4.6918C11.475 3.80846 12.6583 3.80846 13.5416 4.6918L15.3083 6.45846C16.1916 7.34179 16.1916 8.52512 15.3083 9.40845Z" stroke="black" stroke-width="1.5" stroke-linecap="round" stroke-linejoin="round"/>
<path d="M5.00002 15.8327C5.46026 15.8327 5.83335 15.4596 5.83335 14.9993C5.83335 14.5391 5.46026 14.166 5.00002 14.166C4.53978 14.166 4.16669 14.5391 4.16669 14.9993C4.16669 15.4596 4.53978 15.8327 5.00002 15.8327Z" stroke="black" stroke-width="1.5" stroke-linecap="round" stroke-linejoin="round"/>
</svg>
