<svg width="14" height="14" viewBox="0 0 14 14" fill="none" xmlns="http://www.w3.org/2000/svg">
<path d="M10.9457 8.54602C10.773 8.71335 10.6937 8.95535 10.733 9.19268L11.3257 12.4727C11.3757 12.7507 11.2583 13.032 11.0257 13.1927C10.7977 13.3594 10.4943 13.3793 10.2457 13.246L7.29299 11.706C7.19032 11.6513 7.07632 11.622 6.95965 11.6187H6.77899C6.71632 11.628 6.65499 11.648 6.59899 11.6787L3.64565 13.226C3.49965 13.2993 3.33432 13.3253 3.17232 13.2993C2.77765 13.2247 2.51432 12.8487 2.57899 12.452L3.17232 9.17202C3.21165 8.93268 3.13232 8.68935 2.95965 8.51935L0.552319 6.18602C0.350986 5.99068 0.280986 5.69735 0.372986 5.43268C0.462319 5.16868 0.690319 4.97602 0.965653 4.93268L4.27899 4.45202C4.53099 4.42602 4.75232 4.27268 4.86565 4.04602L6.32565 1.05268C6.36032 0.986016 6.40499 0.924682 6.45899 0.872682L6.51899 0.826016C6.55032 0.791349 6.58632 0.762682 6.62632 0.739349L6.69899 0.712682L6.81232 0.666016H7.09299C7.34365 0.692016 7.56432 0.842016 7.67965 1.06602L9.15899 4.04602C9.26565 4.26402 9.47299 4.41535 9.71232 4.45202L13.0257 4.93268C13.3057 4.97268 13.5397 5.16602 13.6323 5.43268C13.7197 5.70002 13.6443 5.99335 13.439 6.18602L10.9457 8.54602Z" fill="#F4A622"/>
</svg>
