<svg width="18" height="14" viewBox="0 0 18 14" fill="none" xmlns="http://www.w3.org/2000/svg">
<path d="M4.83333 1.16602H1.63333C1.59797 1.16602 1.56406 1.18006 1.53905 1.20507C1.51405 1.23007 1.5 1.26399 1.5 1.29935V4.49935" stroke="black" stroke-width="1.3" stroke-linecap="round" stroke-linejoin="round"/>
<path d="M16.5 4.49935V1.29935C16.5 1.26399 16.4859 1.23007 16.4609 1.20507C16.4359 1.18006 16.402 1.16602 16.3666 1.16602H13.1666" stroke="black" stroke-width="1.3" stroke-linecap="round" stroke-linejoin="round"/>
<path d="M13.1666 12.8333H16.3666C16.402 12.8333 16.4359 12.8193 16.4609 12.7943C16.4859 12.7693 16.5 12.7354 16.5 12.7V9.5" stroke="black" stroke-width="1.3" stroke-linecap="round" stroke-linejoin="round"/>
<path d="M1.5 9.5V12.7C1.5 12.7354 1.51405 12.7693 1.53905 12.7943C1.56406 12.8193 1.59797 12.8333 1.63333 12.8333H4.83333" stroke="black" stroke-width="1.3" stroke-linecap="round" stroke-linejoin="round"/>
<path d="M4.83337 4.5V9.5" stroke="black" stroke-width="1.3" stroke-linecap="round" stroke-linejoin="round"/>
<path d="M9 4.5V9.5" stroke="black" stroke-width="1.3" stroke-linecap="round" stroke-linejoin="round"/>
<path d="M13.1666 4.5V9.5" stroke="black" stroke-width="1.3" stroke-linecap="round" stroke-linejoin="round"/>
</svg>
