<svg width="18" height="18" viewBox="0 0 18 18" fill="none" xmlns="http://www.w3.org/2000/svg">
<path d="M9 4.83008V7.32758" stroke="black" stroke-width="1.5" stroke-miterlimit="10" stroke-linecap="round"/>
<path d="M9.01505 1.5C6.25505 1.5 4.02005 3.735 4.02005 6.495V8.07C4.02005 8.58 3.81005 9.345 3.54755 9.78L2.59505 11.37C2.01005 12.3525 2.41505 13.4475 3.49505 13.8075C7.08005 15 10.9575 15 14.5425 13.8075C15.555 13.47 15.99 12.285 15.4425 11.37L14.49 9.78C14.2275 9.345 14.0175 8.5725 14.0175 8.07V6.495C14.01 3.75 11.76 1.5 9.01505 1.5Z" stroke="black" stroke-width="1.5" stroke-miterlimit="10" stroke-linecap="round"/>
<path d="M11.4974 14.1152C11.4974 15.4877 10.3724 16.6127 8.99994 16.6127C8.31744 16.6127 7.68744 16.3277 7.23744 15.8777C6.78744 15.4277 6.50244 14.7977 6.50244 14.1152" stroke="black" stroke-width="1.5" stroke-miterlimit="10"/>
</svg>
