<svg width="20" height="20" viewBox="0 0 20 20" fill="none" xmlns="http://www.w3.org/2000/svg">
<path d="M13.8417 16.6667C14.9584 16.675 16.0334 16.2584 16.8584 15.5084C19.5834 13.125 18.125 8.34169 14.5334 7.89169C13.25 0.108351 2.02502 3.05835 4.68335 10.4667" stroke="#E17A02" stroke-width="1.2" stroke-miterlimit="10" stroke-linecap="round" stroke-linejoin="round"/>
<path d="M6.06668 10.8084C5.62501 10.5834 5.13334 10.4667 4.64168 10.475C0.758343 10.75 0.766676 16.4 4.64168 16.675" stroke="#E17A02" stroke-width="1.2" stroke-miterlimit="10" stroke-linecap="round" stroke-linejoin="round"/>
<path d="M13.1833 8.24169C13.6167 8.02503 14.0833 7.90836 14.5667 7.90002" stroke="#E17A02" stroke-width="1.2" stroke-miterlimit="10" stroke-linecap="round" stroke-linejoin="round"/>
<path d="M8.30833 16.6667L6.64166 18.3334" stroke="#E17A02" stroke-width="1.2" stroke-miterlimit="10" stroke-linecap="round" stroke-linejoin="round"/>
<path d="M11.6416 16.6667L9.97498 18.3334" stroke="#E17A02" stroke-width="1.2" stroke-miterlimit="10" stroke-linecap="round" stroke-linejoin="round"/>
<path d="M11.6416 13.3333L9.97498 15" stroke="#E17A02" stroke-width="1.2" stroke-miterlimit="10" stroke-linecap="round" stroke-linejoin="round"/>
<path d="M8.30833 13.3333L6.64166 15" stroke="#E17A02" stroke-width="1.2" stroke-miterlimit="10" stroke-linecap="round" stroke-linejoin="round"/>
</svg>
