<svg width="20" height="20" viewBox="0 0 20 20" fill="none" xmlns="http://www.w3.org/2000/svg">
<path fill-rule="evenodd" clip-rule="evenodd" d="M8.2305 12.6719C5.02717 12.6719 2.29133 13.156 2.29133 15.096C2.29133 17.036 5.0105 17.5377 8.2305 17.5377C11.4347 17.5377 14.1697 17.0527 14.1697 15.1135C14.1697 13.1744 11.4513 12.6719 8.2305 12.6719Z" stroke="black" stroke-width="1.5" stroke-linecap="round" stroke-linejoin="round"/>
<path fill-rule="evenodd" clip-rule="evenodd" d="M8.2305 9.90484C10.333 9.90484 12.0372 8.20067 12.0372 6.09817C12.0372 3.99567 10.333 2.2915 8.2305 2.2915C6.12883 2.2915 4.42464 3.99567 4.42464 6.09817C4.41717 8.19317 6.10883 9.89734 8.20467 9.90484H8.2305Z" stroke="black" stroke-width="1.5" stroke-linecap="round" stroke-linejoin="round"/>
<path d="M16.0031 7.22412V10.5658" stroke="black" stroke-width="1.5" stroke-linecap="round" stroke-linejoin="round"/>
<path d="M17.708 8.89502H14.2997" stroke="black" stroke-width="1.5" stroke-linecap="round" stroke-linejoin="round"/>
</svg>
