<svg width="20" height="20" viewBox="0 0 20 20" fill="none" xmlns="http://www.w3.org/2000/svg">
<path d="M6.66667 10.1665H12.5" stroke="black" stroke-width="1.5" stroke-miterlimit="10" stroke-linecap="round" stroke-linejoin="round"/>
<path d="M6.66667 13.5H10.3167" stroke="black" stroke-width="1.5" stroke-miterlimit="10" stroke-linecap="round" stroke-linejoin="round"/>
<path d="M8.33333 4.99984H11.6667C13.3333 4.99984 13.3333 4.1665 13.3333 3.33317C13.3333 1.6665 12.5 1.6665 11.6667 1.6665H8.33333C7.5 1.6665 6.66667 1.6665 6.66667 3.33317C6.66667 4.99984 7.5 4.99984 8.33333 4.99984Z" stroke="black" stroke-width="1.5" stroke-miterlimit="10" stroke-linecap="round" stroke-linejoin="round"/>
<path d="M13.3333 3.3501C16.1083 3.5001 17.5 4.5251 17.5 8.33343V13.3334C17.5 16.6668 16.6667 18.3334 12.5 18.3334H7.5C3.33333 18.3334 2.5 16.6668 2.5 13.3334V8.33343C2.5 4.53343 3.89167 3.5001 6.66667 3.3501" stroke="black" stroke-width="1.5" stroke-miterlimit="10" stroke-linecap="round" stroke-linejoin="round"/>
</svg>
