<svg width="20" height="20" viewBox="0 0 20 20" fill="none" xmlns="http://www.w3.org/2000/svg">
<path d="M1.90833 6.48348V14.5918C1.90833 16.1751 3.03333 16.8251 4.4 16.0418L6.35833 14.9251C6.78333 14.6835 7.49167 14.6585 7.93333 14.8835L12.3083 17.0751C12.75 17.2918 13.4583 17.2751 13.8833 17.0335L17.4917 14.9668C17.95 14.7001 18.3333 14.0501 18.3333 13.5168V5.40848C18.3333 3.82514 17.2083 3.17514 15.8417 3.95848L13.8833 5.07514C13.4583 5.31681 12.75 5.34181 12.3083 5.11681L7.93333 2.93348C7.49167 2.71681 6.78333 2.73348 6.35833 2.97514L2.75 5.04181C2.28333 5.30848 1.90833 5.95848 1.90833 6.48348Z" stroke="black" stroke-width="1.5" stroke-linecap="round" stroke-linejoin="round"/>
<path d="M7.13333 3.3335V14.1668" stroke="black" stroke-width="1.5" stroke-linecap="round" stroke-linejoin="round"/>
<path d="M13.1083 5.5166V16.6666" stroke="black" stroke-width="1.5" stroke-linecap="round" stroke-linejoin="round"/>
</svg>
