<svg width="20" height="20" viewBox="0 0 20 20" fill="none" xmlns="http://www.w3.org/2000/svg">
<path d="M7.08334 15.8332H6.66667C3.33334 15.8332 1.66667 14.9998 1.66667 10.8332V6.6665C1.66667 3.33317 3.33334 1.6665 6.66667 1.6665H13.3333C16.6667 1.6665 18.3333 3.33317 18.3333 6.6665V10.8332C18.3333 14.1665 16.6667 15.8332 13.3333 15.8332H12.9167C12.6583 15.8332 12.4083 15.9582 12.25 16.1665L11 17.8332C10.45 18.5665 9.55001 18.5665 9.00001 17.8332L7.75001 16.1665C7.61667 15.9832 7.30834 15.8332 7.08334 15.8332Z" stroke="black" stroke-width="1.5" stroke-miterlimit="10" stroke-linecap="round" stroke-linejoin="round"/>
<path d="M13.3304 9.16667H13.3379" stroke="black" stroke-width="2" stroke-linecap="round" stroke-linejoin="round"/>
<path d="M9.99624 9.16667H10.0037" stroke="black" stroke-width="2" stroke-linecap="round" stroke-linejoin="round"/>
<path d="M6.66209 9.16667H6.66957" stroke="black" stroke-width="2" stroke-linecap="round" stroke-linejoin="round"/>
</svg>
