<svg width="20" height="20" viewBox="0 0 20 20" fill="none" xmlns="http://www.w3.org/2000/svg">
<path d="M2.50833 9.3501V13.0918C2.50833 16.8334 4.00833 18.3334 7.75 18.3334H12.2417C15.9833 18.3334 17.4833 16.8334 17.4833 13.0918V9.3501" stroke="black" stroke-width="1.5" stroke-linecap="round" stroke-linejoin="round"/>
<path d="M10 9.99984C11.525 9.99984 12.65 8.75817 12.5 7.23317L11.95 1.6665H8.05833L7.5 7.23317C7.35 8.75817 8.475 9.99984 10 9.99984Z" stroke="black" stroke-width="1.5" stroke-linecap="round" stroke-linejoin="round"/>
<path d="M15.2583 9.99984C16.9417 9.99984 18.175 8.63317 18.0083 6.95817L17.775 4.6665C17.475 2.49984 16.6417 1.6665 14.4583 1.6665H11.9167L12.5 7.50817C12.6417 8.88317 13.8833 9.99984 15.2583 9.99984Z" stroke="black" stroke-width="1.5" stroke-linecap="round" stroke-linejoin="round"/>
<path d="M4.7 9.99984C6.075 9.99984 7.31667 8.88317 7.45 7.50817L7.63333 5.6665L8.03334 1.6665H5.49167C3.30834 1.6665 2.475 2.49984 2.175 4.6665L1.95 6.95817C1.78333 8.63317 3.01667 9.99984 4.7 9.99984Z" stroke="black" stroke-width="1.5" stroke-linecap="round" stroke-linejoin="round"/>
<path d="M10 14.1665C8.60833 14.1665 7.91667 14.8582 7.91667 16.2498V18.3332H12.0833V16.2498C12.0833 14.8582 11.3917 14.1665 10 14.1665Z" stroke="black" stroke-width="1.5" stroke-linecap="round" stroke-linejoin="round"/>
</svg>
