<svg width="20" height="20" viewBox="0 0 20 20" fill="none" xmlns="http://www.w3.org/2000/svg">
<path d="M10.9 17.938V18.0515L11.0126 18.0372C13.0551 17.7773 14.922 16.7494 16.2339 15.1625C17.5457 13.5756 18.2041 11.5486 18.0752 9.49371C17.9463 7.43878 17.0397 5.51005 15.5398 4.09953C14.0398 2.68901 12.0591 1.90255 10.0001 1.9L10.0001 1.9C7.93858 1.89846 5.95407 2.683 4.45091 4.09376C2.94774 5.50452 2.03903 7.43533 1.90994 9.49278C1.78085 11.5502 2.44109 13.5795 3.75613 15.1671C5.07117 16.7546 6.94206 17.7811 8.98757 18.0372L9.1 18.0513V17.938V12V11.9H9H7.1V10.1H9H9.1V10V8.346C9.1 7.01722 9.23906 6.55069 9.48829 6.08195L9.48838 6.08179C9.7351 5.61572 10.1164 5.23473 10.5827 4.98842L10.5833 4.98811C10.9474 4.79271 11.4062 4.67136 12.2294 4.6188C12.531 4.59954 12.921 4.62083 13.401 4.68601V6.399H13C12.5409 6.399 12.2124 6.40972 11.969 6.43621C11.7264 6.46264 11.5607 6.50545 11.4315 6.57445C11.2787 6.65327 11.1542 6.77779 11.0754 6.93068C10.9423 7.18158 10.9 7.43059 10.9 8.345V10V10.1H11H13.3719L12.9219 11.9H11H10.9V12V17.938ZM10 19.9C4.53223 19.9 0.1 15.4678 0.1 10C0.1 4.53223 4.53223 0.1 10 0.1C15.4678 0.1 19.9 4.53223 19.9 10C19.9 15.4678 15.4678 19.9 10 19.9Z" fill="black" stroke="white" stroke-width="0.2"/>
</svg>
