<svg width="106" height="16" viewBox="0 0 106 16" fill="none" xmlns="http://www.w3.org/2000/svg">
<g clip-path="url(#clip0_1965_15398)">
<path d="M90.0255 15.5415V12.5703H81.1678V9.14204H88.254V6.17088H81.1678V3.42827H89.3169V0.342827H77.979V15.5415H90.0255ZM94.5135 0.342827V15.5415H105.97V12.5703H97.7023V0.342827H94.5135ZM19.6357 0.342827V15.5415H22.8245V9.14204H30.265V15.5415H33.3362V0.342827H30.265V6.17088H22.8245V0.342827H19.6357ZM51.4056 15.5415H54.8306L47.6263 0.342827H43.4927L36.4064 15.5415H39.7138L41.3668 12.1132H49.7527L51.4056 15.5415ZM57.9018 0.342827V15.5415H61.0906V4.57102L69.5936 15.5415H72.0738V0.342827H68.885V9.48487L61.7992 0.342827H57.9018ZM12.7857 10.3991C12.3581 11.1928 11.7134 11.8577 10.922 12.3211C10.1306 12.7846 9.22283 13.0289 8.29775 13.0274C5.43767 13.025 3.12972 10.7924 3.10118 7.99929C3.12972 5.28381 5.43767 3.05068 8.29775 3.08544C10.241 3.05068 11.9437 4.1063 12.7857 5.71378L15.6202 4.22819C14.1675 1.71747 11.4309 0.0204744 8.29775 0C3.70843 0.0204744 -0.00150136 3.61015 0.0304851 7.99929C-0.00199346 12.466 3.70794 16.0552 8.29775 15.9986C11.4393 16.0552 14.1823 14.3492 15.6202 11.8847L12.7857 10.3991Z" fill="black"/>
<path d="M48.4532 9.02779H42.7842L45.6192 2.97119L48.4532 9.02779Z" fill="white"/>
</g>
<defs>
<clipPath id="clip0_1965_15398">
<rect width="106" height="16" fill="white"/>
</clipPath>
</defs>
</svg>
